<mxfile host="Electron" modified="2023-04-25T09:27:36.629Z" agent="Mozilla/5.0 (Macintosh; Intel Mac OS X 10_15_7) AppleWebKit/537.36 (KHTML, like Gecko) draw.io/21.1.2 Chrome/106.0.5249.199 Electron/21.4.3 Safari/537.36" etag="gzvNOyzRl8Nb-gOpDwYY" version="21.1.2" type="device">
  <diagram name="第 1 页" id="9OPtFpMiKqDEOYWciRYg">
    <mxGraphModel dx="2506" dy="2169" grid="0" gridSize="10" guides="1" tooltips="1" connect="1" arrows="1" fold="1" page="0" pageScale="1" pageWidth="827" pageHeight="1169" math="0" shadow="0">
      <root>
        <mxCell id="0" />
        <mxCell id="1" parent="0" />
        <mxCell id="y8ol8J6fjDSW4kQSu5Xz-3" style="edgeStyle=none;curved=1;rounded=0;orthogonalLoop=1;jettySize=auto;html=1;entryX=0.002;entryY=0.451;entryDx=0;entryDy=0;entryPerimeter=0;fontSize=12;startSize=8;endSize=8;" edge="1" parent="1" source="y8ol8J6fjDSW4kQSu5Xz-1" target="y8ol8J6fjDSW4kQSu5Xz-2">
          <mxGeometry relative="1" as="geometry" />
        </mxCell>
        <mxCell id="y8ol8J6fjDSW4kQSu5Xz-1" value="" style="image;points=[];aspect=fixed;html=1;align=center;shadow=0;dashed=0;image=img/lib/allied_telesis/computer_and_terminals/Personal_Computer.svg;fontSize=16;" vertex="1" parent="1">
          <mxGeometry x="-1119" y="-616" width="45.6" height="61.800000000000004" as="geometry" />
        </mxCell>
        <mxCell id="y8ol8J6fjDSW4kQSu5Xz-2" value="" style="rounded=0;whiteSpace=wrap;html=1;fontSize=16;" vertex="1" parent="1">
          <mxGeometry x="-942" y="-838" width="716" height="564" as="geometry" />
        </mxCell>
        <mxCell id="y8ol8J6fjDSW4kQSu5Xz-4" value="http" style="text;html=1;align=center;verticalAlign=middle;resizable=0;points=[];autosize=1;strokeColor=none;fillColor=none;fontSize=16;" vertex="1" parent="1">
          <mxGeometry x="-1038" y="-621" width="45" height="31" as="geometry" />
        </mxCell>
        <mxCell id="y8ol8J6fjDSW4kQSu5Xz-5" value="" style="rounded=0;whiteSpace=wrap;html=1;fontSize=16;" vertex="1" parent="1">
          <mxGeometry x="-861" y="-771" width="540" height="430" as="geometry" />
        </mxCell>
        <mxCell id="y8ol8J6fjDSW4kQSu5Xz-7" value="" style="shape=image;verticalLabelPosition=bottom;labelBackgroundColor=default;verticalAlign=top;aspect=fixed;imageAspect=0;image=data:image/png,iVBORw0KGgoAAAANSUhEUgAABDwAAAE0CAYAAADAASMpAAAEDmlDQ1BrQ0dDb2xvclNwYWNlR2VuZXJpY1JHQgAAOI2NVV1oHFUUPpu5syskzoPUpqaSDv41lLRsUtGE2uj+ZbNt3CyTbLRBkMns3Z1pJjPj/KRpKT4UQRDBqOCT4P9bwSchaqvtiy2itFCiBIMo+ND6R6HSFwnruTOzu5O4a73L3PnmnO9+595z7t4LkLgsW5beJQIsGq4t5dPis8fmxMQ6dMF90A190C0rjpUqlSYBG+PCv9rt7yDG3tf2t/f/Z+uuUEcBiN2F2Kw4yiLiZQD+FcWyXYAEQfvICddi+AnEO2ycIOISw7UAVxieD/Cyz5mRMohfRSwoqoz+xNuIB+cj9loEB3Pw2448NaitKSLLRck2q5pOI9O9g/t/tkXda8Tbg0+PszB9FN8DuPaXKnKW4YcQn1Xk3HSIry5ps8UQ/2W5aQnxIwBdu7yFcgrxPsRjVXu8HOh0qao30cArp9SZZxDfg3h1wTzKxu5E/LUxX5wKdX5SnAzmDx4A4OIqLbB69yMesE1pKojLjVdoNsfyiPi45hZmAn3uLWdpOtfQOaVmikEs7ovj8hFWpz7EV6mel0L9Xy23FMYlPYZenAx0yDB1/PX6dledmQjikjkXCxqMJS9WtfFCyH9XtSekEF+2dH+P4tzITduTygGfv58a5VCTH5PtXD7EFZiNyUDBhHnsFTBgE0SQIA9pfFtgo6cKGuhooeilaKH41eDs38Ip+f4At1Rq/sjr6NEwQqb/I/DQqsLvaFUjvAx+eWirddAJZnAj1DFJL0mSg/gcIpPkMBkhoyCSJ8lTZIxk0TpKDjXHliJzZPO50dR5ASNSnzeLvIvod0HG/mdkmOC0z8VKnzcQ2M/Yz2vKldduXjp9bleLu0ZWn7vWc+l0JGcaai10yNrUnXLP/8Jf59ewX+c3Wgz+B34Df+vbVrc16zTMVgp9um9bxEfzPU5kPqUtVWxhs6OiWTVW+gIfywB9uXi7CGcGW/zk98k/kmvJ95IfJn/j3uQ+4c5zn3Kfcd+AyF3gLnJfcl9xH3OfR2rUee80a+6vo7EK5mmXUdyfQlrYLTwoZIU9wsPCZEtP6BWGhAlhL3p2N6sTjRdduwbHsG9kq32sgBepc+xurLPW4T9URpYGJ3ym4+8zA05u44QjST8ZIoVtu3qE7fWmdn5LPdqvgcZz8Ww8BWJ8X3w0PhQ/wnCDGd+LvlHs8dRy6bLLDuKMaZ20tZrqisPJ5ONiCq8yKhYM5cCgKOu66Lsc0aYOtZdo5QCwezI4wm9J/v0X23mlZXOfBjj8Jzv3WrY5D+CsA9D7aMs2gGfjve8ArD6mePZSeCfEYt8CONWDw8FXTxrPqx/r9Vt4biXeANh8vV7/+/16ffMD1N8AuKD/A/8leAvFY9bLAAAAbGVYSWZNTQAqAAAACAAEARoABQAAAAEAAAA+ARsABQAAAAEAAABGASgAAwAAAAEAAgAAh2kABAAAAAEAAABOAAAAAAAAAJAAAAABAAAAkAAAAAEAAqACAAQAAAABAAAEPKADAAQAAAABAAABNAAAAAARcU84AAAACXBIWXMAABYlAAAWJQFJUiTwAABAAElEQVR4AeydB5gVNdfHz90GSAdRsaBSpEkREFAQQelgQ7EgCIgidl/FCnawoIJ0BEGUIr13pEgXERRFRMpHlaKAgEjZ9uVcyJqdnZk7cye37f7zPLtJTk5Okt9suTmT4qPsF3zZb0gYEQiAAAiAAAiAAAiAAAiAAAiAAAiEnEB6yFsIYwOx7hyI9f6H8VGjKRAAARAAARAAARAAARAAARAAARBwTSBmnSCx5jCIhv5GQx9c/4SiAgiAAAiAAAiAAAiAAAiAAAiAQMwTiAbnQzT0wdGDjIXJezj7GM62HD0gKIEACIAACIAACIAACIAACIAACICACwLhdEiEsy0XCM6pRusEP9T90m1ftz3XDxIVQAAEQAAEQAAEQAAEQAAEQAAEshUB3c4E3faMsENt39hewHy0TdRD0R8vNr3UDQgfCiAAAiAAAiAAAiAAAiAAAiAAAiDgkYAXR4OXulbdDoVNq7Zs5dEyodfZD7e23OobgXqtb7SHPAiAAAiAAAiAAAiAAAiAAAiAAAgwAa/OA7f13erbPSWdtuzasSyL5GRdZ9tObTnVk8Dc6st6iEEABEAABEAABEAABEAABEAABEAgHATcOhac6jvVczJGnbactOfXidSEXke7Tmw40WEQTvUCgdVlJ1A7KAcBEAABEAABEAABEAABEAABEMieBHQ5B5zacaLnRCfQ09BhI1AbmcrDPUH32p6T+oF0ApVnAnQ+E0wdMzuqLBQ2VftIgwAIgAAIgAAIgAAIgAAIgAAIRAeBUEz2g7EZqE6gcqbpRMeOutf6drYzlYVr0u21nUD17crtyjLBEBmnuk71jPaRBwEQAAEQAAEQAAEQAAEQAAEQAIFgCDh1FDjV4z7Y6dqVBarrZHyB7DuxYasTjom7lzbs6gZbJoF4re/EjtRBDAIgAAIgAAIgAAIgAAIgAAIgAAJuCbhxCtjp2pXJPtnpBFsmbVvFdnat6jiW2036HRuxUQzWvl09qzIrueyeVbmVPFA9We4mDtSWG1vQBQEQAAEQAAEQAAEQAAEQAAEQiD0COif5gWxZlVvJJU2rcis517Mrk3bN4mDrmdnKJAvVBDxYu3b1zMrMZOoAzcrNZFzHSq7ak2k3urKOWazLjpltyEAABEAABEAABEAABEAABEAABCJPQNeE3o0dK10zuZlMpWZWbiaTdezKpI5ZHGw9M1t+WSgm3MHYtKtjVmYmk4M0K3MqkzY4NqvjplzVdZIO1J4TG9ABARAAARAAARAAARAAARAAARCIPAHdk/dA9oIpN6tjJpM0zcrMZHb6sswqtrNnVcdSrnuSHYw9qzpmcjMZD85MbpQZ8yoUqzIruVWbqk03abt23NiBLgiAAAiAAAiAAAiAAAiAAAiAQHQQ0Dl5t7NlVWYlZzrGMmPeTEdS9aor7VjFZvatdG3lOifabm1Z6ZvJzWQ8MKM8UF7CCFZP1jdrWy1DGgRAAARAAARAAARAAARAAARAAAR0EbBzAliVGeXGvOybUR4ob1WP5ca6drqyzCy2smOmaykzTvwtFQMUuLVjpW+UG/OyG0a5mlfTTvStdFhuZkvqq7FTPbUO0iAAAiAAAiAAAiAAAiAAAiAAAiBgRcDppN9Mz4kskI6x3JiX/TbKjXkrPSm3iq3sWOlnkeuYqLu1YaYfjMxYR3dehWW07bRM1bNK29m2qgM5CIAACIAACIAACIAACIAACIBA9BPwOmm3q++mzKjrJW+sy0/Bi8zuKZrZtdPPVOZ1su2mvpWuUW7Mc4dVmZo2lhnzdrrGMmNdznMw07OT+yvhGwiAAAiAAAiAAAiAAAiAAAiAAAhoImA18TeTB5IZy9W8muau2+WNZYH0VRRmddVyNe1GV61nOZnPpGSRsXIEmKmb6TqRGXXUvJrmNtW8k7SxjpM866hBbUeVW6Xd6lvZgRwEQAAEQAAEQAAEQAAEQAAEQCA2CbidwAfSN5a7yau6Vmmm7LTMqCufkFrfTibLjLFZfaNOlnywE3A39cx0jTJjnjuqyqzSqp6VjipX9Y1ps7wbGes6Ccb+OKkDHRAAARAAARAAARAAARAAARAAgdgnENTE/fywzeo6kak6aprNqnmztCpzon++q/7Irq7UM+pIuVnsRtdfP9jJt9N6ZnpGmV1eLVPT3HmZl7GVTJXbpY1lZnmWyaC2K2VqHKhc1UUaBEAABEAABEAABEAABEAABEAg5xIINJm3KzeW2eXVMjXN5GVexlYyVW6XNpaZ5a1kLDcGtV/GMtN8MJNyp3XM9Iwyu7xaZpZ2KuOBm+naySUstZ6dzGhL6iIGARAAARAAARAAARAAARAAARAAAbcErCb3ZvJAMrXcTdpM10zGY7OSG8vM8lYylhuD2o6xLEvebEKfRUkRONU301NlalqalzIZszxQWpbLWK1jJlPLjWljXq1vLOO8Goy6aplVOpg6VrYgBwEQAAEQAAEQAAEQAAEQAAEQiF4Cribq54dhV8dYpubVNJtS84HSZuVSJmMnNlXd88Ox7IdZuZSZxWa2zfQyORRMFRSh0wm6mZ4qU9NsXs0HSstyY6zasStT9ZymWY+DtHsulzUv5TI26ks5YhAAARAAARAAARAAARAAARAAARBQCQSaxBvLjXm2pcqCTct6MlbtSpkxVnXs0oHKjOWctwqyD1blfrmbSbkTXTMdVaamuQNqXqZlrJZLmYztyux0zOqpMk5zMLNxriRzmZ1MliEGARAAARAAARAAARAAARAAARAAAbcEzCb1RpmaV9PclpqXaRmr5XYyWSZjs3p2Zao+pzmY6Z8rOfddLVflatqJTqaJvVrZmFYdAMYyNW/UU/NqmuuoeZmWsVouZU5jJ3VVHau0bI/LORjz56TWcqflUg8xCIAACIAACIAACIAACIAACIBAziIQaOJuVW6Uy7yMmWKgtCw3xmpdY1mgvFldVcZpDtKOMW2WZ5lZUG2YlVtO4o3KVpN9Vc+oo+bVNNdR8zItY7VcyjiWaWO5ldyop+bVtKwvY7WM0xzUMrO8X8lET8oRgwAIgAAIgAAIgAAIgAAIgAAIgIATAlYTeaPcLi/LjDG3b5RZ5aWusdxKLvVkuRob08a8WtdYxnmzYKyTRcc4kc+iIATB6Kh11DTbV/MyHcpY2lbbljJjzDocAsnPaf33Xer/J8mcClSeWRs5EAABEAABEAABEAABEAABEACB7E4g0ITdqtwol3kZS24ybxWzHpdZleuWy/Y4lkG2wXk1bZaXddTYWEcty5jYZxIaMoEm68Zyu7xaJtPBxE7qSB0eDqdl3hjLcjU2pp3kzXRYhgACIAACIAACIAACIAACIAACIAACTgmYTeKNMru8LJMxtyvTaizTslzm7WK7MmnHLlbLjGknedZRg+yPKstIy8l/hsCQCFTO6kYdNR8oLcvNYimTbci8GqtpOz1Z5iRWdezSXCaD7IfMG+NA5UZ95EEABEAABEAABEAABEAABEAABLI3AdvJuhi6VbkqD5SW5W5iM107GT8lLjfTkWVq7DRt1OO8WZDtZikLNBF3W67qB0rLcrPYqYwHxLqB9M3KZV2OOVjpnCv9r9wqr9qQOohBAARAAARAAARAAARAAARAAARAwA0Bswm8UWaVl3IZc7sybRarMjUt65nJ7Mrs9GU9jjlIXbu0sYzzxqDayVQmJ/mZhOczdmWsYixX82pa1ZVyu9isTJWpaWlblVmljboybxYHknG5DLI9mVdjuzJVD2kQAAEQAAEQAAEQAAEQAAEQAIGcScBywi5wmJWpMpmWMROUaWMsy4xyzqsyq7RZfVXXrFzK7GIu4yBtGdNmeZapQa2bIbebkNuVsQFjuZo3S0uZXWxWpsqMaTUv+8QyK7nUcROzLgdp05j2FyrfVD1FHDAZbL2AhqEAAiAAAiAAAiAAAiAAAiAAAiAQVgKmE3AHPbCrp5apaTYr825iM12WOZGrOmpa9sVMJsvMYlVmTJvlWaYG2Z4qyzSJVwsCTb6N5WreLC1ldrFapqa5X5yXX2peTat1nKRlXbPYSqbKOc1BtnUu9993K/l/GkiBAAiAAAiAAAiAAAiAAAiAAAiAwH9OBiML40TeKq/KZdouVsvs0k7LuN+sa6Uvy+1itcyYNsuzTA2y7QxZQkYq+IQ6sTdLS5mMZUsyz3EwaWOdQHluN5NOwYIF43r27Fnx2sqVKxQtVqxkgfz5S+bKlfuKxPj4fHFx4is+Lq/P50uUHUYMAiAAAiAAAiAAAiAAAiAAAiAAAtFCID09PTktNe1kWlrqP8mpqf+cOXN6z/ETJ3Yc/vPPHb9s3Phrt27dNh07dixN9NfoDOC5sZSp6UBD4zpyXq3qqnKztGyL68j2jLFaZkxz3nUw66iZTDVsLFfzZmkpU+Ng0lzHWM9Nnsfg69Sp0yWdO3dpVvyy4nUK5C9YSzg1CqiDQxoEQAAEQAAEQAAEQAAEQAAEQAAEsgMB4Qw5fvzEse/279u/cujQIXOHDx9+QIxLOh/UmNPB5I11GJuZLTO5lKmxXdpYxnljkP3xy6XDQFUyk1mVq7pmaSkzi1nmRC71VF07Gfc1U3n58uVz9x80qHn5suXuzl+gQB1RHsdKCCAAAiAAAiAAAiAAAiAAAiAAAiCQQwiknTh+fOXmLb9NfvqJJ+Zs3rz59PlxSweFdBbY5c10zGRs2oncqHe+Sxl11XJjWuqqsWzTL5NOBFXBTCbLjWUyL2PWk2m7WC0zps3yVjKWW5VR7dq18/UfOLht6VIlH41PSCgmB4EYBEAABEAABEAABEAABEAABEAABHIqgdSUlD+3bd8x7OknHx+9Zs2af85zYGeB+sViNa+mzcqMMjVvlpYys9hKpso5bQzcx4wgnQVSYMxLuYzV8kBpWa7GdmljGeflF7cv02ZxpvKLL744YfbsuQ+XKlP6yfj4+MJciAACIAACIAACIAACIAACIAACIAACIPAfgdTU1KPbt24b2KJFsxEHDx5MESWBnBpOyrkBKz21TKbNYlVml+YyY8hwerDzQA3GvF2Z1JUx68q0WazKjGmzPMvs5LJcjWnUqFE1mzZr3jNX7txl1c4jDQIgAAIgAAIgAAIgAAIgAAIgAAIgkJXAmdOnt8ybO6dbu3bt1p4vVR0WdmlWNys3ytW8WVrK1FhNZzgxWCiCMX9Oeu57Rpl0KMhCY17KOVbLAqW5XOqosVFulQ8kl+UZ8RVXXJH0zZIl3YtfUry90jb3GwEEQAAEQAAEQAAEQAAEQAAEQAAEQMCeQPr+A/u/bNigQY89e/acFarsOHDyxVbN9Ixyq7wql2mOObBdGazSslzGGXpOD+9kx4JZUOUyLWNVn2WqXE2znlqulkm5bfzyy92uXLdhw1Th7OhgaIdtI4AACIAACIAACIAACIAACIAACIAACNgT8PGcmufWPMcWqrbzcKVcWpVzeVlPyjmWZTKt5qWelMlY6spyNVZ1VHmmtKqkpjMpiYxaZpeWZWYxy1S5zMuY25Rpx/G4iRPrNG3cdKi4XjY/G0AAARAAARAAARAAARAAARAAARAAARAInoC4zvbEvAXzOt/fuvVKYYVXTLj94sbN6hjlMm+Mua4MTtJSV8b+OuxYkEFNS5mM1TKZljHryLRZzDL5JXWt8lLuKF64cGHLmrVv6Ovz+RLZMAIIgAAIgAAIgAAIgAAIgAAIgAAIgIB3Aunp6clr16x+tlGjRrOENTPnhVMZd0bVNeb9zonzOrJMjdW01FVlnDYGvx47FmRQ01LGsSq3S8syNTamzfIsc/21cuXqNpWqVH5P1HW6LYfHggACIAACIAACIAACIAACIAACIAACIOCMQNrPP218rU6dG8YKddVpEWyaW1XrqnmZlrHfacEZEZykz2me++7Xl84C6YhQFezSqr6aNqsjnRmyTOZlrMrVtCzPEvPKDjg7JCrEIAACIAACIAACIAACIAACIAACIBASAnE89+Y5uLCeZW5ukMkOsJ4MxjpGucybxUY7ZjpWMn9d6fCwUnIrlx2Sg1LrS5nUkWVSznk1real3MdndvA2FlGou+/cHgIIgAAIgAAIgAAIgAAIgAAIgAAIgMB/BOJ4Ds5zcSHKmJsraakpyzivpo3lXKYGVddYpuq5Tsefr2FlVJWbpaXMLGaZ/OJmZDqYmJ0bPj4ptmOHDuPi4uLysEEEEAABEAABEAABEAABEAABEAABEACB0BIQ52bGlypZqkl6etzslSuXHzvfmrrNJJgOsG/AKsgyGat6qkxNqzr+tCyUsVFBlcu0jFlXpjm2S8tyo44q57TfsXHelloWd8UVVyTx9Th5cuepJMoRQAAEQAAEQAAEQAAEQAAEQAAEQAAEwkjg1OlTP9e47rq79uzZc1Y0mya+2Olh/LKSSweJUd8o5xFJHZnmmIOqe07yn0zmZZyuY1uIdGJIozKWDguZl7GUm8VWOvTNkiXd4eyQeBCDAAiAAAiAAAiAAAiAAAiAAAiAQHgJ8Jyc5+bnWzXO6WVnjHI1L3VkLMtkXo25zFOwc3ioxtW0bFCVybSMpQ7HLJNfqlyWyVjqqDb8slGjRtUsfknx9sbKyIMACIAACIAACIAACIAACIAACIAACISPAM/NeY4uWpRzeNm4zMuY5Zw2BlluVcb6apmalrZUmZqW5f6YC6wKVblMy5gryzTHxrSdTJYZY7PtLHEXX3xxwi+bfp2bK3fustwoAgiAAAiAAAiAAAiAAAiAAAiAAAiAQOQInDl9esu1FSs0O3jwYIrohdkWFjOZ3KZijHkgdjJZzjEH1uUgY2PaX8jf7FZ4ZCiZJFQHh0lxhkh1amQIzyfUMmmPi1Q5zZ4992E4O4zokAcBEAABEAABEAABEAABEAABEACByBDgOTrP1c+3nmkObyJT5/uyw2Z1ZJkay7oyVssCpp04PAIZluUcy7RZw7JcxqqOlMn6/nzt2rXzlSpT+klVEWkQAAEQAAEQAAEQAAEQAAEQAAEQAIHIEuC5Os/ZRS/kfJ47JNNybi87qcqNZVJHrS/TapkxbWfHr2vl8DCraCYzNsh51gtWN1Pd/gMHt42Pjy9s1ghkIAACIAACIAACIAACIAACIAACIAACkSHAc3WesyutZ5rPC7kxr6hmSbrVNRrg+lmClcMji6KJwNSgoic7bBezulqekS9fvnzu0qVKPqrYQxIEQAAEQAAEQAAEQAAEQAAEQAAEQCBKCPCcnefuojtyXs89k2mOOah5q/Q5TfPv0o55qY00GIeH2phMq522aS5TkawjhZny/QcNah6fkFBMFiIGARAAARAAARAAARAAARAAARAAARCIHgI8Z+e5u9KjTPN6ITfmFVXTpNTnmIOMjWl/YaBvgRweqvFAtmR5oDpcLnVkOku+fNlyd0uDiEEABEAABEAABEAABEAABEAABEAABKKPwPm5u+Xc/nyPZbndAKRfwE7HWGZbx8zhYVbBKDPmzRplHbMvqavakHr+sk6dOl2Sv0CBOlIRMQiAAAiAAAiAAAiAAAiAAAiAAAiAQPQR4Lk7z+GVnmWa3wu52dxf6qixYiJLUrXBhca8qczM4ZHFsiJwZFTRt0qqdoxpX+fOXXhJjNu+WbUFOQiAAAiAAAiAAAiAAAiAAAiAAAiAQGgIxJ2fw/Pc3ji/ly2qcikLFJvVMZNZ2vHiVFAb4rT8smpMlst6Mi/1M+TFL7sUqzskFcQgAAIgAAIgAAIgAAIgAAIgAAIgEMUEzs/hM+b0SlfVeb9MSz1FLSNppmOnn1HRLOHF4WFmT8rUTsq0LONY7bBa7itYsGBcgfwFaqrKSIMACIAACIAACIAACIAACIAACIAACEQnAZ7D81xe9E7O9dV5PndayuUAZLkayzJtsZ3DQ3ZIxrJRY17KZeymXNX1p3v27FkxLj6ugDSGGARAAARAAARAAARAAARAAARAAARAIHoJ8Bye5/Lne5hlnm8iNxuMWs9JudSXcZY6dg6PLMomAjZsadygr+qqaVaTNnzXVq5cwVAPWRAAARAAARAAARAAARAAARAAARAAgSgmcH4unzG3V7qqzv/VtKJimnSja2ogWIeHHIQ0atURqSdj1jemZd4fFy1WrKQ0ihgEQAAEQAAEQAAEQAAEQAAEQAAEQCD6CShzeXWOL9M8ALO0KpODZJlRbsxLXdvY6PCwM2JXJhthHfWL5Vb1VLlM+wrkzw+Hh6SJGARAAARAAARAAARAAARAAARAAARigMD5uXzG3F7pspQpIn9SyjlWv4x6xrysZ5RzPlOZ0eFhVkGnLFPj5w1LmT/OlSv3FTobhC0QAAEQAAEQAAEQAAEQAAEQAAEQAIHQElDm8pnm+IZWZZlBHJqsW4dHsJ3jerKuMZ1pZInx8fkyCZABARAAARAAARAAARAAARAAARAAARCIagIWc3krP4CUux2Tq3qBHB52xrjMrlx23EpHylU7vrg4ODwkOMQgAAIgAAIgAAIgAAIgAAIgAAIgEAsEzs/lTef5Fv2XuhbFfrHqLzDTs7Vh5fCwrWRoxaoDZnI7u/4ycZ1NXoN9ZEEABEAABEAABEAABEAABEAABEAABKKYgDKXDzjvV4Zh5jfgYiu5UjVT0rRNK4dHpprnG5MyU0PnC+06pdaT6Syxz+dLlA0hBgEQAAEQAAEQAAEQAAEQAAEQAAEQiH4C5+fyWeb453su5ZxV0+rAWG5VZqxnp5dh06nDI6OCTUJtUE0bq9iVGXWRBwEQAAEQAAEQAAEQAAEQAAEQAAEQiH0Cdr4AtUxNexq1ToeHVUe4s7LDMmZdmTbGVnYgBwEQAAEQAAEQAAEQAAEQAAEQAAEQiG4Cxjm+zHOvZZpjmQ7ZaFSHR8gbU0Yh2zLGigqSIAACIAACIAACIAACIAACIAACIAACMUjAONeX+XAMJaMt1eHhpuEMAwEqqXpq2qqaEx2rupCDAAiAAAiAAAiAAAiAAAiAAAiAAAhEjoCTOb2qo6bteu1UL5MNNw4PYwPGfCbDImNVbpTLvIyNdpAHARAAARAAARAAARAAARAAARAAARCIDQJybi9j2WtjPpDcqtzKjtTPiM0cHo4rCyusq+rLtIxlQ8Y8y81kUh8xCIAACIAACIAACIAACIAACIAACIBA7BMwm/sbZTIvYx41p9V8IBJZdM0cHtJIFmWXjUk7bmKzNt3Uhy4IgAAIgAAIgAAIgAAIgAAIgAAIgEBkCIR6Tm9m30zmH72dw8MtHtmIjM3qG8tkXsZmdSADARAAARAAARAAARAAARAAARAAARCIHQJyji9j2XNjXso5lmUyVsuCSut0eATqgNppNR2oHspBAARAAARAAARAAARAAARAAARAAARil4DqA1DTIR2RE4eHk85Y6bDcqkwOLFC51EMMAiAAAiAAAiAAAiAAAiAAAiAAAiAQGwQCzfXt/AWB6jKBgDpOHB66UcpOyVi3fdgDARAAARAAARAAARAAARAAARAAARCIDgJy7i/jsPUqEg4Pq8GFffBWHYEcBEAABEAABEAABEAABEAABEAABEAgKAJRM7cPpcNDHaSatiPmVM/OBspAAARAAARAAARAAARAAARAAARAAATCT8DpnF7VU9NaexxKh4fWjsIYCIAACIAACIAACIAACIAACIAACIAACDglEGmHh/TkyNhpv6EHAiAAAiAAAiAAAiAAAiAAAiAAAiAQnQTkHF/GEemldHhEtBMRGTkaBQEQAAEQAAEQAAEQAAEQAAEQAAEQyI4E/D4O6fAI1wDhWAkXabQDAiAAAiAAAiAAAiAAAiAAAiAAAtFFIKw+gXA7PCTqsA5SNooYBEAABEAABEAABEAABEAABEAABEAg7AQi4gNw6vCISOfC/gjQIAiAAAiAAAiAAAiAAAiAAAiAAAiAQLQTcOSjcOrwUAfryLBaAWkQAAEQAAEQAAEQAAEQAAEQAAEQAAEQ8EDAtS8iGIcH9891Qx4GhaogAAIgAAIgAAIgAAIgAAIgAAIgAAI5l0BQPohgHR6MmRsMqtGc+4wwchAAARAAARAAARAAARAAARAAARAAAYcEPPkdvDg8jP2Tzg9PHTIaRR4EIkUgfvuPkWoa7YIACIAACIAACIAACIAACIBATiKg+hGkb8Hz+HU6PLgzZh0zk3nuOAyAQCgJ5JrWn1JLVQ1lE7ANAiAAAiAAAiAAAiAAAiAAAjmZgJmvwEwWNCPdDo+gO4KKIBAtBHwnj5Fv24Zo6Q76AQIgAAIgAAIgAAIgAAIgAAIgEASBcDo8tHpqghgrqoCAIwK5JvSitPK1HOlCCQRAAARAAARAAARAAARAAARAwBWBsPkGwunwsCIgBytjKz3Io5xA/B9bo7yHgbuXsHsz+aZ9RqnX3RpYGRogAAIgAAIgAAIgAAIgAAIgAAJGAnJuL2Njedjy0eDwCNtg0VDoCOT5qCPF/bUvdA2EyXLCxE/IV6I8pV5aOkwtohkQAAEQAAEQAAEQAAEQAAEQAIFQEIDDIxRUc5jN3MNeJd/enZRcuX5Mjzzxx0XkWzaN0irXjelxoPMgAAIgAAIgAAIgAAIgAAIgAAJECYAAAl4I5Jral3yzhlHyu5O8mImKuokT+1G66Ela9QZR0R90AgRAAARAAARAAARAAARAAARAIHgCWOERPLscXzPp2wkUN/JdojLVYn51R67Foyn9l5Xky5OfzlZrnOOfLQCAAAiAAAiAAAiAAAiAAAiAQKwTgMMj1p9ghPqfuGklJQzt7m89peObEeqFvmbjpw31G0uvdKM+o7AEAiAAAiAAAiAAAiAAAiAAAiAQMQJweEQMfew2HHfkD0r87FVK/+cIUa1mlFyxTuwORvQ81+SPKX3Xr/4xpFatF9NjQedBAARAAARAAARAAARAAARAAATOEYDDAz8Jrgkkjeie4SBIvvtp1/WjqULc34coftaojC7hOtoMFEiAAAiAAAiAAAiAAAiAAAiAQEwTgMMjph9f+Dufe/z75Fs+41zDDVpRStma4e+ExhaTxKGr6UfOXafru6oirqPVyBamQAAEQAAEQAAEQAAEQAAEQCCSBODwiCT9GGs7aeVU8o39JKPXZ297IiMdi4n4HT9S3OwvM7qedi3O78iAgQQIgAAIgAAIgAAIgAAIgAAIxDgBODxi/AGGq/sJe7ZQ/Mge/zXXtB2llqr6Xz4GU0mzhlJ68umMnuM62gwUSIAACIAACIAACIAACIAACIBAzBOAwyPmH2F4BpA04nWiQ7v8jfHVrcnNHwlPwyFqJXHDN0SLJmRY9+UviutoM2ggAQIgAAIgAAIgAAIgAAIgAAKxTwAOj9h/hiEfQe4vulH6+sUZ7aQ1eZBSrqyYkY/FRMKsEZm6nV6xVqY8MiAAAiAAAiAAAiAAAiAAAiAAArFNAA6P2H5+Ie990sop5Jv2WUY7vsKXUHKLRzPysZjItWAk0boFmbqeWjm2r9bNNBhkQAAEQAAEQAAEQAAEQAAEQAAECA4P/BBYEog7eoASvv7vkFJWTGvahlIvutKyTrQX+E4cofjpQ7N0E9fRZkECAQiAAAiAAAiAAAiAAAiAAAjENAE4PGL68YW287lG96R0cVipDL5LrqYzLR6T2ZiMkyZ/Sul7f8/c99LX4TrazESQAwEQAAEQAAEQAAEQAAEQAIGYJwCHR8w/wtAMINc3XxF983Um46lN21K6ONwzVkPCb2sobkbW1R3p1+L8jlh9pug3CIAACIAACIAACIAACIAACFgRgMPDikwOlsf/sY3ixvXJRMB3ZQU62zK2V3ckTh1ElJqSaVycSatSL4sMAhAAARAAARAAARAAARAAARAAgdgmAIdHbD+/kPQ+cez7RH/uyWQ7hVd3JObOJIulTK7Fo4nWzMnSZT6E9Wy1xlnkEIAACIAACIAACIAACIAACIAACMQ2ATg8Yvv5ae990qwh5Fs+PbPda6rT2eadM8tiKBd38jjFT/3vphm162nYzqLiQBoEQAAEQAAEQAAEQAAEQAAEsg0BODyyzaP0PpD47T+KW1kyb2Vhq2nN2nk3HkELSVPFQaW7N5v2IO3aG0zlEIIACIAACIAACIAACIAACIAACMQ2ATg8Yvv5ae190tcfUvo/hzPZ9FWqS2duaZtJFkuZhK3rKG7aMMsup1aub1mGAhAAARAAARAAARAAARAAARAAgdglkBC7XUfPdRLINfljou8XZjGZ0uyhLLJYEiROG0jpyafMu1y+Jq6jNScDKQiAAAiAQA4h8Oeff9K+vXto3759tP+P/bR//346ePAgHTp0iLgsPiGe8l5wAeXLl5/y5ssrvvJRlcpVqHatWlSuQoUcQgnDBAEQAAEQiFUCcHjE6pPT2O/ETSsp/uvelG60eX0jOlunlVEaM/mkpeOIVsy07G/6tbUty7wUzJ2b9XBUJ/Z8aZm1ylWsQFdddVVmIXIgAAJhIxDM77Lx95g727RF87D1GQ2BgBMCS5cupXFfj6W5c+bQ0aNHnVQx1SlWrBiVK1eeyov/Vy1b3kb169c31QuVMJjfUe6L8fcUv6OhekKwqxII9udVtWGWbtYs8v9j5Nj4dytd4/6BaBibGXPIYosAHB6x9bxC0tuEsb3EKoizWWynNuuQRRYrAt+Zfylh+tCsThxlAKnX1lFyepILFyyg+1q31mKsY8eHqW///lpswQgIgIB7Ajp+lyeMn+i+YdQAgRAQYCfHrFkz/U6OPbt3a2mBV4Dw1/Lly2jokCHC+VGO6gmnR7icH4sWLfK362Uwnbt0gVPSC0DUdUygYcNGVLRwIcf6ThU3/rIpoi/I9oq/Jzr+XxrH+8WXI40i5EEgKAIafXBBtY9KESaQe/Q7RL+szNqLurfT2epNssqDkCT8toby9GofRM3gq+Sa1IfSd2y0NnBRCUqueqt1eZAlAwcOCLJm1moTJozPKoQEBEAABEAABBwSOHnyH3qpa1eqWaM63d6yhd85oMvZYdaF3377zd8Gt9W0cSOaME6stEQAARDwE0hMTKT/Pf+8dhpvvN5du003Bl9/43U36o50q1WrRnffrecFoqMGoZStCcDhka0fr/3gkn6YT76J/UyVUjSu7kiYNZR8v6w1bScUwvgdP1LczM/tTYfoOtrF4m2TrnDy5ElaunSJLnOwAwIgAAIgkIMIfP7551T3xjo0ZMhgYkdEuMOqVavokUc6wfERbvBoL6oJvP3Ou1S4cGGtfZw2dSr99defWm06NXbi+AmaPGmSU3XHemPH4aWfY1hQDEgADo+AiLKnQtypkxQ/VhxUahZuvY+Sr61nVuJalvTtePItn0HptfSsFnHSgcSpAyj91Alb1dQqesanNjJyxAg1qyU9AFtatHCEERAAARDIKQRWr15Fd91xOz3/3LO0ffu2iA9bOj7atmmjvS9x5NNuEwZBINQEBg0arL2Jbq+9pt2mE4Pdur3qRM2VTvsOHejSSy91VQfKIGBHAA4POzrZuCxplNjKsm2D6QiTm3U0lbsVxp0W52hM+8xfLeXGlm6rB6WftGIy+ZZNs63rK3gRJddoaqsTTOHnn1tffxuMPa6zYP78YKuiHgiAAAiAQA4iwNtXunZ9QTg77iA+2yLawowZ06lq5cp08MBBbV1Lsz2pS1szMAQCWgm0uO02ql1b78H5X48dS6dPWdxKqLX3mY2N/OKLzAKPOd7203/AQI9WUB0EMhOAwyMzjxyRS9ywkHyzh5uPteH9lFKmhnmZS2nSZHHzizhHw5e3MCVf19BlbffqvpRkip86JGDF9Oo3U3o+vcsJ//33X9q40ebMkIC9slb4cuRI60KUgAAIgAAI5HgCv/zyi3/7Ch8cyv+PojXs2LGdypQuSd8sXBitXUS/QCAsBEaNHqu9nVdfeUW7TTuD3V7Tv7qjd+8+dk2iDASCIgCHR1DYYrtS4tRBlgNIbtTWssxNQfz29RQnbknhkH5DeLaz5JryieWqFbXvqdX1O1/69BZthygMG3qOY4jMwywIgAAIgEAME9ixfQe1b9c2KravOMXY6q47adm33zpVhx4IZDsCF19yMXV+7DGt4xo+PMD5dVpbIxouzgnSGcqXL0/tO+pZZa6zX7AV+wTg8Ij9Z+hqBEmzBlH6T8vN69zSmlLK6Vli5z9HQ1wNyyGlZugdHgm7NlHcNItVK+poi15Oydc3UyVa0qO+GqXFjpmRjRt/orNnz5oVQQYCIAACIJCDCRzYv5/aPvgAbd26NeYotGzRnGbNmBFz/UaHQUAXgY8/6U158+bVZc5v57UwrfL44L33tK8mG/nll1pZwBgISAJweEgSOSCO+3MPxU+zPmcipWE7LRTkQaVszJcrH6VU1b+iwtjRxGn9KP3kUaM4a75aPUrPdUFWuQfJ9m3b6I8/9nmwELhqrw8/CKwEDRAAARAAgRxD4NixY/TA/fcRb2eJ1dCmzQM0ZsyYWO0++g0Cngl8+mlfzzZUA8OG6V11odpW04MHW68WV/Wcpu9p3ZrKV6joVB16IOCKABwernDFtnLS5E+JhNPDLPhubkXJFW80K3IlUw8q5YppNzYWDoY8rmy4VU5cJQ4pXTzZUbWUGo0c6blR+rRPbzfqQemOHhW6FSRBdQiVQAAEQAAEIkYgOTmZ7hMThB9++CFifdDVcNfn/0eLvom+Q1Z1jQ92QMCOwH0PPECVxWG+usKZM6fo3bff1mXO1M6gAQPo6FEHLxlNa5sLP/9c/02H5i1BmhMJwOGRQ566/6DSudZLxZIb6zm7Qx5UKrGmVWkgk6GJ09IpYfq5m2ACNnDxVZQSgu0sk0Jw/7hxLH/88Qdt2bLFKEYeBEAABEAgBxLo8NBDtGrVymwx8pMnT1K3116hE8ftr5PPFoPFIEDAhMCwzx1syTapZyX67LPAB/hb1XUi79tP76qU99//gOLiMSV1wh46wRHAT1dw3GKult1Bpek33UHJ19bzPCb1oFK/sYRclHLdrZ7t2hnINVWsrvjtezuVjLL0auJ2lviEjLyOxNKlS4g/rIUjfNo79CtJwjEOtAECIAACIBA8gUkTJ9DMmdnr7Itff/2VnnrqieChoCYIxDCB8hUq0INt9bx4ZAzHjx+nj3t9FBIio8WZdfvFSzhd4aqrrqInn35alznYAQFTAnB4mGLJXkLbg0rFUFM1re5QDyr1E6x+C6UVuihkMOO3/0jxk517sdOu13+WyMD+A0I2PqPhGTOmG0XIgwAIgAAI5DAC/fr1y5YjnjplSsgmadkSGAaVrQgMHDhY63gGDuyv1Z409knvj2VSSzw4xKtRtHQSRmKeABweMf8I7QcQ6KBSqtOSkit733aiHlQqe5Ra9SaZDEmcNO4jZweVitZ9l5ehs9X1384yf/68kIzNzOiJEydoQRjbM+sDZCAAAiAAApEjMGjgAPpxw4bIdSDELffv35e2bP7NcStx5HOsC0UQiGYCvKWjTx9x1p6mcPjwYeK/FzrDjOnTiQ/q1xWat2hBdeqEdq6gq6+wE9sE4PCI7ecXsPd2B5Vy5ZRGDwa0EUjBeFCp1E+97haZ1B7nmiE812vnO7abVrW+Y12niqNHj3aqqk1vgOZ/Xto6BkMgAAIgAAIhJzBjemi3shQqVIhKlixFtWrVpttvv4M6d+lCjRs3pnLlylHBggVDPj4+CPGjj3o5bieN0h3rWinCaWJFBvJwE+j06KN0zTXXaGu2X1+9Z230+vBDbX1jQ/3F4acIIBAOAnoPNAhHj9GGYwKBDiqlWs0o+Trvt5YYDyrlDvqEgyG1eGnHfXWj6N/KMk5cQ+uiUmoItrMM+8zhYaku+hlIdeniJYFUUA4CIAACIJANCaxb+31IDipNSEigRsKp8eCDben2O+6wJbd161b6cf16Gjt2DC1aFJqbVSZMGE9txaGs9evXt+0LCkEgOxLo228ANWvaWMvQ+MD7kV+MoA4dH/Zsb+nSpbRx40+e7UgD3bp1p2LFQrftXbaDGASYAFZ4ZOOfA7uDSnnYqU28H5CU5aDS8zxTr7s5ZGTdbGXhTviurEDJVfUennrs2DHasGF9yMZoZ3jo0KF2xSgDARAAARDIhgTGTRinfVQdH36YvhGO9PETJgZ0dnDjZcqUodb33UdTxUqT+QsX+p0khQsX1t6vPp/oPSdAewdhEARCRKBO3Tp05113abPe+5NPtNh6v2dPLXbYyCWXXEIvv/qqNnswBAKBCMDhEYhQjJYHOqiUajQRZ1o08Ty6LAeVnreYWk3/AaFs2u1WFq7Dt7PoDp8Ndn5Yqu62R3w+TLdJ2AMBEAABEIhyAuvX/aC1h/3Eodt9+/WnatWqBWX3hhtupMFipeOMmbO0LsPnzuzbt48mjB8fVL9cV8IxIK6RoUJoCXzSu4+2Bnbu3On5d4nPDVq9epW2PvXWOD5tnYKhbE0ADo9s+HgDHlQqxpzSpI3nkZsdVMpGfZXqUkqJ8p7tGw3IrSxGeaB8inDu6A5ffTVSt0nH9vj6vn/ElWMIIAACIAACOYfAli3OD/MMRIWdHR06dgyk5qi8StWqNHHyFKpcpYojfTulcuXKU4+e79G69RvoXrGSBAEEciKBYsWK0bvv9tA29I96eTt7452339bWl5sbNKCWt9+uzR4MgYATAjjDwwmlGNMJdFApOySSa7bwNCp5UKnZORqp1ep5sm1V2e1WFrbjK1WVkq+ta2UyKPlv4gT53bt3B1VXV6Ve4lC3dzT+M9TVr1DYOXhgP+3atUsw30t79u6h/eLNHwd5WF1FcX99nbo3aX/DGIqxWNk8dfIk7RRj3LNnN+3ds5f27ttLqSmpVLRoUSpa7EIqdmExulB8ALpI7He96OKLKCkpycpUzMgPHjhIa9euofXiPIAT//zj77c8PDA+IZ4KFihIBQvxV2EqXLgQ1a51AxUuon/pfLQBO3P6DO0VP+d79u4l3n99YJ/4OniAChQoIFgUokLi4MhCYgtBnTp1qUjRItHWfdv+JCcn07p168QtI+tp+44dmZ45/z4XL16cLrv0UvF1GV12+RV0RYkrKDEx0dZmTilctWol8U1dOkLXF1/U5uyQ/bn66qtp1uw5dF/re8Sb4NVS7DiuWLEitWv3ED3x1FOO67Ci/JvhqpJHZf4d5RUof/yxl/b/sZ/2HzhAB8XvKP+sFipYyP93q7D4u1Xh2mtj8v8Sf8bZ+NOPtHbd9xmkJGf+G3xpxu/o5XTFFSUoX/58GXo5JcHPf5/4G71/v3j++/8g/n+WkpJCBQoVoMIFC/t/BkqUuJJq1a4dNJJn//c/Gjr0M/G5YE/QNmTFLVu20KyZM6nlbbdJkeP4//7v/+ibbxY61g+k+HEvbFcLxAjl+gnA4aGfaUQtBjyoVPQutZ53z6rZQaVy4Ckh2M4SzFYW7k9a9RBsZxmi9650yc1NPHHChLA7POaJD7M6QtMWzQOa+f3332nw4EE0bcoU4qvVnIQrr7yS6os3B23FwXu1brjBSZWI6Yz84guaOmUy7RAfJI4eOULHXa7YqV69BrW+917q0uVx4qvsYiHwB8K5c+f4x/3LL7/Qn3/+6brbPKniN8DVa1Snh8Tk6BLxwTu7hAnjxtGIEcPFoZTOlw2XL1/ef5tG/VtuoVatWkUlinnz5tEk8fdqzZrVQTmK+dYQPiOiZMmS1PHhTo7OmYhKEB47tWeXPid7qK6B5Gc1f+E3VPfGG8Thhhsdjbhy5SrUrv1D9NhjXRzpG5Wk49soD0V+7Xff0ciRX9DsWbPp6NEjjpq4XDjurr++Bt18c316+JFHHNUJt9KmTZtoxvRptOibRbR9+zbH/3NlP/Pnz++/waeIcNDff//91Fb8beafhXCEcH4uYSfH5+IMtalTp9CO8w7bQGMsUqQIVb3uOqp7Uz3//yx+YeEmfNjrI2rzwP1uqljqfvD++0E5PN58vbulTbcFzz33PypbvlxGtXA+v4xGAyR09MnJ59wA3UCxZgK8c1F+SdOc56DGxrSso8r5U7cql2kplzHLZZpjNe07/s/J34UMIUgCF7xxF6X/tNyytu+Sq+l0328pLfcFljqBCpJ+mE/x71hcZ1uhNp16f1YgE67KeStLrtdbU/rJo67qsXJyrzmUUram63p2FS4rfom2N2127QQqW7FytVhCXDmQmrZy/idw732tPdnjD7crbCZ0E8WebR2n/99cvz49Ij5c3nGnvoO/PA1cVGYnx8yZM2i1GP8/51c0eLXJb/35g/Td4q1qq1Z3ezUXkvq9e39CC+bPp1UrV2q1z6scbr31Vv+y92bNAjvRgmm8QL68wVTLVGf8xIlk1b9gPkBnMq5k+HaN17u/kenDpFIc1iRPDIeJicHy5cv8q1R0Nn7RRRfRncK5ww6eG2+so9N0VNsaOKA/vfrKK577yH8z9opVCaEMM6dPF4eZ2m+bvU5MAtu1by/+Tj/qqStdu75AQ4cM8WSjy+OPU6+PrN86T582jUaPGkXz58/z1M71119PL3Z9iaJlMsR/m+cI583atd95GpdZ5SZNmtBdd7Wie4RjPpQrEsPxuSQYR5cZkxIlStCTYgXT4088aVZsKbvn7lb+/6GWCi4Kps2YSbcIB7nTcPTIUbqyxOVO1W312HG9y79aRU4dicLx/Gw7ZVKo4/++mMuaWM5ZIsHxGjFi3giQpsRqmsuM5VKmxrKOUPfrq2Wc5iBlMq3G/jQ7GxCyCYGAB5WKcabXaenJ2eH75ygljLHeC5h+XT3tNIPZyuLvRMUbtTs7lixZEhXODh5f30/1HWql/aEFYfClrl2pU6eHtVx1+O3SpdSubVt6SHzxaoJIBV5G2knsky9d8mp65umnaOGCBdqcHTwmXhnCTpQO4grHGtWrEX8wj5bAH6arX1eV3nrjDe3ODh7j30eP0uRJk8QS+tbU+p67adPGn6Nl6I76MXnyRLq1QX36RNxG4fRtoZ3hGWKS2VRcZfjBe+/ZqYW0jK8sfeLxLnRbyxY0fvw47c4O7vyhQ4f8E9ym4hrVenXrUo9336EDYll5dg9HDjtbURCIw+WX65m82LVzm3C+te/QwVSFV6f169+fvl2+wrOzw7QBjcITx09Q+4faif8lD3p2dnC3vv/+e/9LgyeFg4W3d0UqqH+bQ+Hs4HHNF07uLl0eo7JlStPD4mdh8sRJkRqup3bff68nNbz1Fr/Dy+mqHqsGeSv0yy+9RHeIbSU//OD8AOKe771vZdK1/L2e7s4F6dZN300qPXr0FP39z9nhuvOoAAIeCMDh4QFeNFWN+2sfxU8bZt+leB8l33yPvU6A0tyj3qX07dZLVVOq3RrAgrviXFN6E62d767See20mo2CqmdX6bPPvL1JYtt8LsPw4SPsmnFU5vVtk6NGwqD0mziEtcHN9WhICLYKTZs2lZo3bUJDInCrTt8+fahFs6Y0ceIE/yQt1Ch/F84V/mD+9ptvhropW/tfiG0Z0tHBE+BwhPli20SLls3pww+snbHh6Id5G1k/4PGH6I7tO2h3CBwW27/eE7b5rXe4g39iIN4c8pvwU6dOhaX5H3/cQL0+/JAa1L/Z7zgKS6MRakQX06N//x2WEbz44kv+K2xlYzVr1qKBgwbRkm+/FeeHPCzFURvz9o7rqlYWW/CmaO/jqFFf0W1ia+ehg4e027YzyA7xcP9t5r9JkyZNpI4d21MHsXVp966ddl2MSJkv659ofz/aPfggvR8CB/KSJYvpQbFNhX/GnISyZcvSC+KFkI7Aq1W+W7PGkan0tHT/33NHygGUataq5V/RFUANxSAQMgJweIQMbXgNJ80bTvTnHttG0+vcQSlXVrTVsSvMtXi0WH/2lbXKNTUopXR163KXJbx1Ju7LIN9WJiZRSq0WLlsMrD5nlvftOnfzG2kNp8/73+7PmB6401Gs0b9vX6pZ83pXbzvcDudv8QH/pRdfoB7vvOO2alD6fH3bnXfcTq+Lfa/8NjrcgVcM1BF76Hm7RDgDj/vee+6hZ595hsLl6FDHd0SchdKzxzvU0sEZMWq9cKd5whGKD9HqOHiJf7icHrz//05x4j6PyesbUHUMbtL8s86OvgY330xLxequ7BgKiYN7dYTjx47pMBPQRglxptIjjz5KfHXtELG96ZvFi6ndQ+0D1osGBV6Vd9edt4f07zef1XPH7S2JVwGGI/DvBzvEI/G3WY5vyuTJ1LhRIxo8aKAURWW8csVK4m0N08W5JqEKfCB1h/btiFf6OQlvvvU28XY+HeFdsSrOSXjllZecqDnS6ZFDDtl3BANKESEAh0dEsOttNP7QTopbMC6g0dSbgj/PIGHfVoob+4ltG+lVb7Itd1PIK1YSRrpbepfJvljdkVq8ZCaR18y4r7/2asJf/5mnn/HHt9zifTXMIPHGLFYDrwTo1u21sHW/l7iWre6NN4a0Pd5OcPttLWnxImdvbkLVmZ/FgYHly15DvMokHIFXPvE2hnnz5oajOds2lok3yNWrXWerE6nCMqVKhm3CwU6PUDv5+FyaO/jnfXFkf97l8/zhh3XUTpwdoePQOWkzWuLCRYpq6cpJcSMUb2kIR+CzCuYvXEht2jwYjua0tNGmzf3+VXlajAUwws7C++9tHfKVHq3vvjtqVkDxRJ+3dTz6SKcAdCJTzAemNxNbA8MRjgnnI6/0mz1rpqPm3nzrLUd6gZT4f6STLaDDP/88kClH5XxOT+0Qf/Zy1BEo5WgCcHhkg8efMHc4pR+zf5Psu/waT1fRJo4Re+8CrCBJqdZAG82kka9T+u7NQdtLvb5J0HWtKg4T14N5Deyh5zdfHB4T+3i9hpUrVng1EZH608VWE14JEO6wceNP1LJ5s5A0yxM/3k7AK0qiJfAqkyHitptQhkEDB9KLL7xA/OEtWsJW8aH1yitCf1aBm/HeLw7vO3jwoJsqnnUHDhwQshUP7Ozgc2kisYrJDgz/HPLhytnN6VG0sL4riMeIbUcIWQn0+/RTmiUOdQxn2L59u3AA6NmuYNZvPicoGre/jhe3UjV0cXim2dhCIePzOsId3n3nXTrtYBsgr5CqW1fPi8U337bf+spnI509e9YzigsuuIC6d+/u2Q4MgIBXAnB4eCUY4frxf2yl+PnjA/YirVr9gDpWCv5zNFbab+Xw5S1MqdfUtDLhSp57Qi/yLZ/hqo6q7CtyGaXUvk0VeU7zFZp84JjXwLcLyNCsmZ6J9wBxAFwshbXfraGnxUnlkQrLli2jp598Umvz7OzgA22jMbz04ovE+3ZDEaZMmkyvvKxv2avOPh4Vh5oWd3kFoM72VVt8w8acObNVUVjS/Db/7Tff0N6WdHZoN6zRIDs91q9fr9FiZE1VqFBeWwd4W0NNcVUqv+lFOEeAt+R1794tIjgmi60ew4Z4f6Fi7Hwt8Yx1fG4x2tWV5wNTeUWNl5CucRbDW+L4MOxwh19/3UQvvPC8o2ZfF1uTdAS+Oe3//m+HpanPPN58JA1369adilx4ocwiBoGIEdD4pyJiY8jRDSfOHSGuaz0SkEFKvf8m2gGVFYWk7+c6Okcj/apylB6foNQMLpn43SzyjekVXOXztdJrNKC0PPk92TBW5kPGdAS5nUXaanm7d8fM2DGjpbmoj3mFRcNbb434KogvvxxJY8aM0cIrmp0dcoAPtWsrk9pi3nveocND2uyFwhBP+GuLM2IiGXzi4Le3NH1IDWYcfBuAzvM8+OBDXtkRC4EPhswuTo9yFSr4D7zWxf23zZvpPrGd4s3XX9dlMqbtPKFhxaUXAB993IsOiO0eugKvntgsnnG0B15Ro/PvU7Dj5ZcgvCUuUmHUV1/RpAkTAjZ/ww03UCdxNo6O8LrFyot+fT/VsmKzUqXK9PSzz+roKmyAgGcCcHh4Rhg5Awm7f6W4hYHP7vCVrEwpZWq47mic2MKS8NFjjuqll6rkSM9Oic8iSRwpts54+aYxYQAAQABJREFUDKm19aycULvxpVi+7TXwdYByO4u01blzF5kMOuZrVw+LFSgI7gh8LM708HrVYyw4O5gK75u+S1wVqSvw7QINb9G3hU1Xv8zs/CpuAeLnFKnAKw3OnDkTqeb97U6fOpV4lZrXwIeDvvlG7EyQT5w4Ia6F7uD599wrN131K1SoqMuU3w47BPv06U031KpJ48aOpdSUFK32w2EsTsM1l0MGDxbXl/8cju5atnHgwAH6StOLFb4xKVTXzVoOwEMBnzf04QfBXb3qS/PQ8PmqP/30E/FLkEiHSeKadSfh9e5vUIECBZyo2urwVeZmNwX179fPtp7TQl7dgQAC0UIADo9oeRJB9CNh7khKP3UiYM3Um+8MqGOmkPu99pR+5l+zoiyy1Iq1ssjcCpKGv0HpYouOl+ATt9Ccra73/I6NP20US//+z0u3/HVbtsy6mqN+/fqUK1cez7Y/+vgjzzZymgHeO+3lFPJYcXbI57po0TfUv19fmQ06Tk5OpofaPajlDVDQnXBZkbcbdXmss8ta2Uedzw4ZouGA4+fEuTs7dlgvg45GYl5/z6NpTBUr6nV4yLHx4ZmdOz9K5cRBx23Foa9fjhxJR4+Ef2m/7I+bOI3S3ahHte6M6TM892+QOLcn1LdAee6kiQE+IHPP7t0mJTlHtHTpEuJDUwOFIkWL0MuvvBJIzVF5926vZtIb+cUILWdNtW59LzUXB5kjgEC0EIDDI1qehMt+xO/4SazuGOuoVkqleo70VKXcHz9M6Ts2qiLbdFqJCrblgQpz86Goa+YEUgtYnlazYUAdtwpfjfrSbRVT/aeeftpUftddwTmkVGMzZ3j/oKTayynpyeKNCi/5dxtizdkhxzdp4kSZDDrmSS9fqRhrYazYwsR75XNqmDhxgqc3+HwDUTQefujkefINW7q2sDlpL1Q6bds9RImJiaEy75/o8Fvfp596kqpUvpZaif9NfP7M7l27QtYmDP9HgLd8ejlsd+GCBeJMpZf/MxhDKV7hEouOGp2I//33Xxo72tkW5aefeZaqV3e/ctvY33Hi8Fhe6SVDn969ZdJT/PKrmR0pnoyhMghoIACHhwaIkTCRxKs7kk87ajrt4isd6Uml3GN6uD40NPXSMrK66zhp5VTyTejjup5ZhZRa+rezTBD/ELyGUqVKZdnOIm22aev9fIU9e/bQ92u/lyYROyTAqxWGDxvmUPs/tekzZ9ELXbv+J4iR1AZxMN9Usb0h2DB37hzSdZ5NsH3wUu8jsY0pFpftexmzrLtz505x3WZwDq8tm38jvno4lkOfTz6O5e77+165SmW6JUw3W/BtU9+IK2VfFW+Sr69RnZo2aezfdvDzz85fhMQ88AgMYMbM4F9efNTL2/lnERhupiZHjx5F361Zk0mW0zJurnZ/UZNz67Xzq0X4EHIdq5lffPEluuaaa3Lao8N4o5wAHB5R/oDMupewTbyRXjjGrCiLjG9PSc9XOIvcSpD7k0eE8+FTq2JTua94KVO5E2H8zo2UMOAFJ6oBdXyV6gZ1Vomd4YXiJGsd14w2atTYshne1lKwYEHLcqcF/fq5e25O7Uo9naehS5vREM+aNTOof/JvvvU2TRIrBooWLep5GPnz56fLLruMeI9+iRIlKG/evJ5tWhn42sMhtx/H+AfqX8XS/Zdfic03oFbP042cD5oNJrzb4x06fPhwMFUt6+TJk8f/M1+tWjXi7X6du3QhPsS5Ro3r6UpxdTf/TugMvFQ81p02zOPe+7zdahEM01PiysxVK1dSzx49qI44NLHODbX9B03yTQ8Iegnw9qJgwkcffUhr1qwOpqptnSJFilD58uXpFnHYeIcOHenue+6hG2+8kUqXLk2FCjv/bGnbiFI4fPjnSi7nJfkGJadnizVv3pxai+vOvYYvxDYWDr3Ez5DXULp0GdJ1k4zXvqA+CKgE4PBQacRIOnHeV0TpDk9qKna541Hl6dWefMumOdaXiulFLpJJV7HvzClK6tmB0v897qqelXJqrUZWRUHLvxInZ+sIVttZpO17WreWyaDjb5cuDbquk4o6Dgdz0k64ddihNXmys8PCjH1r3KQpLVu+nOrUrWssCpgvXrw48c/Fpl830779B2jzlt9pzdq19IvI7xeHgv708y80ZcpUsWy1ekBbbhQWiGXPwWzj6ftpn6i+4tApg9kzZ9KJ44HPPnJqL5b0tm4NvD/cOJ4J48cTb3PQGRo3bkzLVqz0/8wvXbacxopVdB9//AmNHTuOFou/Yz9v+tX/O9GmzYM6m6Wvx4zVai8SxniC0+ruuyPRdEabP//8M/FBk/fc3YoqlCtLHdo/RF+JQx//+uuvDB0kgiPw22+b6czpM64q8+0unw3WuwLrqquupt69+9DO3Xvou+/X0TRxvki/AQPoi5Ff0rwFC2n9jz/R7j17qbu45Yedl7rC7FmzHJ1joau9aLPDq07Xuljl8sqrr4lz4HJ5HkaBfHmJXwh4DV1jcOWr1zGjfmwQgMMjNp5TRi/57A7fksBXV8kK6XnzyaRtzM4OWjnbVkd3YZ6XmhMd2q3FrC8pL6XUaqnFlmpk+nT3DiC1PqfLl69guZ1F6t5x510yGXTME/dJYp9+qEK4VnhcddVVdPPNN/vfXHR8+GFq3rwFVa9RQ8s/dSs2y79dZlUUUH5FiStp7rz59NRTTwfUZQXeg9+164v+Sd17739AV4gVHWbh6quvpoZiYrhE9I056AppaWn+yYlbe1+LcxBCGUqWLElNhAOpzYMPEh/OGKqzCvimkREjoustYr58+ahs2bJaVgvZPaOtv7s/FHrUV3rOMOJ+8Uq2UaNG0yThyOPxBgpDhg6lL8REWtdqj/XrfyBeth3r4Z133qFLL700Koaxd+9emiJWuj0lrvWsVrUKtW3TRvwfCs6BHMyAdNzS4rRdXnl0+eVXOFUPSo9X06x2uVKDb3c5dOhQUO2ZVerQsSN9u/xbeqRzZ7PiTLKXXn6Ffli/3r/iI1NBkBm+WWno0M+CrB3aahdffLF/q0ao/jfJ3q9Z63xbT5kyZeiZKLn6tUmTJqRji7bkgBgEdBJI0GkMtkJPIHHBV5SekqytocS1sylhykCizWu12XRiKM/LzSh9589OVB3ppNe8hVIvcndWSSDDo77U80G/YcOGgZoi3tZykfhnekjcpuAl8On694jTsUMRQr3Co0uXx0Xf76GatWqbdv/M6VP+gwcH9O9P27ZtM9UJVvj992vpnxP/UL78zhyEZu2898EHxB8+3nzzDcttUOXKlad33n6HmrYQzj4XoW+//sRf/BZGR1gplqe7CV+MGKHl7Y+xzZo1a9GtDW+l2++40+/kUMv5logF8+fRkCGDg1qRotoypqdMnkLPPvc/ozhseV4K3rHjw/4xV65chcqVL5fR9mZxje5qcSjs3LlztR8Sunu3u8Mn582bR99++21G37wkCosx7xJvhN2Gu+9uTfxVuuTVWiZ1C79ZQK3uiewKCbcMjPolrryKXuvWjZ7/3//o7NmzxuKI5dnpPmPGdP9Xj3ffEQ7bRnSvWL1o9TddR0dDeUsLT+AaiDNTqlS5Tqy0q0a5z69k4JUs361eTet+WEcjho+go0eP6BhKho0Vy5b5PxNkCAIkdNzuIpvo0aMnPfPcczLrKL78ihL+FR+dH+lEfAim18BbiUms+Ip0qFChgv9vTyVxdk6166qJz2jnVjPzKow14m/02nXf00SxAo6vPtcZ3J5j8vobb9LsWbNFP7yv0PAyjq7i7A4EEIhWAnHR2jH0KyuBhN2/Utwil29ONq0mPoQ07sgfmQzGH9pFeQY+Rwk9xcoOj84O327ny6TjTp2kC54Sy/9/03vAZur1TTKNT0dmtMPTsgO19ZjYm+4ktLqrlRM1W53lYntFrIXi4k3lILE8utfHH9t+MM6VOw893OkR/wer62vW1DrMf/75h+bO8b7CqWOnTvT1uAniHIKsp6c3aNCAFi5a5NrZoQ70k4/1nKD+159/qmYDpseIw+R0hosuuojeevNt+mbxYnr1tW5ZnB3cVuEihem+Bx7wr3B5XziTeOWPrpCcfJb45o5IBHZw8Iqgt8Vb+nvvuy+Ts4P7U158yH74kUdoonhr/sILeg/G5dP4Dx064HjYX57f2+24go3i5KlTbEoDF03QtDKDnUnZITzUvgN9NmyottUvupns2LHdv+2loTj7gQ885QNQYynwW/OJwjH6xJNPiS2LdTKcHTyGCy+8kFrcdhvxOU5TxXYv3dsODxx0/jvKt7rw7S46Am8hc+vsUNsd+vlwLX+n+eBML7fVqH0KNs3nCa0RB8G/+PJL1LRp0wxnB9vjFR43iVWo/PeZt+bd1cr7Zze1n3/9dVjNOko//ewzjvRCpdS582NUq7b5y6pQtQm7IOCGABwebmhFWDdhvljdcfak617wIaS5OlamPP2foTx9H6c8LzSiXE/dTLRgtGtbZhXSTxympCWB90Yn7NpEuV9sQul7fjMzE7ys2BWUUvv24Oub1PxD7Ildvdr7B+OqVasG3M4im2/e0vuWHN6u8MknkX8zIscUKOYlwl+PG09t27YLpJqpfNHiJcQrQnSGBQv0HMDHH44nT5lG94jD3WRgZwff7OL1cNpHuzxGvCrCazhy5Ijj/fbr1q2lteJsEV2BD3llp9DzLzqfzD8ptguNnzCBKl57bdDd4OXIDz/cSThQvqVVa76j+4UzJdzh1ddeoxViws1bdpyEN99+m2bPmUvsINIVdu9ytsqCJx2zZ3t3AnK/n332OeEE9Oak5MNNeam917Bjxw7arnmFmNc+BVufV74M/3xEyLdCBds/WY8PPOUrbp968gk6eMDbKkZpM1Qx36i2Z98f1KPne46a4J9L3nao8/8RrzZ0GiZP0bNFi502vIXMaxg0aLBXE/764yeO12InGCOThaOLzxNyEpKSkujLr0bRx+K8E13h1Kl/XZt68MG21EQ4ZiIRLr/8curW/fVINI02QcAxATg8HKOKrGL8H1spbvFEb534Rjgl2Ma2DZR+xvk/VCeNJnzdmxI3LrVUTZo1iBLfbavf2SFaTK9xC6XlvsCy7WAKxo52dgtOINuNxBkMTgNva2EHgNcwNcgDOL2267Y+j/VLsZ+fPzAGE3hFSNNmzYKpalpn6dKlpvJghLw6YYQ43O0lcW2cdHYEY8esTqPGelYz7dq108x8FtmSJUuyyIIV8IfDTz/tS9fXvN61ifLiBpvZs+f6bwhwWjkhIcH/IXC42JKzdfsO+rRfP/E2tobT6lr1nn/+Bf9qFrdGb6pXT+sZLvv27nHUBV2HIF8hlru/27OnozYDKT0v3qhecIH3v/WLNf5MB+pzqMt5e9wXX34VNWd62I33K7FNtEH9etS/b187tYiWbfhpY1CO6W7i8E4+d0lH4JVYToOOFzPc1ptiq6WOUFf8vdLh/Nmwfr2O7ri2wYcoNxJbmdyGzuK8k2bN3G1VtWrj9OnTVkW2cr4ONhLhSbEKij/zIIBANBOAwyOan47St8T5X4rbTI4pkuhKph/cSYnvdaRcU/v4HR9xp04Qr+jItWAEXfDGXRQ/7A2iP5190HY7stQ6eld3cPtjv9bj8Ggvlh27CTr+YW7cuJH2BbFX3k0/dei+IrYyBOvskO3zWzh+c68jHBTnp/C+bJ2h++tv+Fd26LRZpVIlLeZ27drlyM7qVfqY/O9/z9Mdd93lqF0zpSJFi9DQYZ8HfKNdpUoV8capu/92gYliK0Tre+8zMxc22TXXXENviS0swQZ+e1apcuVgq2eqt3efsxUeazT9LvCNLLoCb2vSsdplvTh7ITsFdpaPGj02Ys48Nyz5kNNu3V6jO27zvqLRTbtOdPlvS7CBV+853b4aqI2TJ529kFolVovt3r07kLmA5eXKlXN1Zkggg6VKlQ6kErCc/x+HO/DV2F4+k7DDQceV8nxwbTChZq1a1Pmxx4KpGnQdvqL4SXHbHAIIRDsBODyi/QmJ/sUf2un+7I4IjCtdODniRvakhNfvoVz3X02Jz9xMcQNfovSfQneuhK/STZRcSWzP0Rj4ys5t4i50r6GWOHyzhMsVGzq2tXC/e/f5xGv3Q1qftxM8KG7j8Bp4IvmcOLhPV5gYA6tjbhBbZnSEHTv+z5GZjT/95EgvkFJdcXUvvwX1Gvh3qrXJwbx8a0Xbdu1ovLghYvnKVfTyK6/6D5H12p6O+j3e9b7C4WlNHyr3/7Hf0ZB+/HGDI71ASg+IWzt0Bh23ZPy8Ud+B2TrH5sUWr5ri7VqvdeuuxSnkpS9O6vLKsWhyevABpV63ufF5H9cFuWJRZXbyX2dbGubMnqVWCzpdTzjMdIbaN3g/y4FXufB1u+EKvOK022vdPTVXQ/wOtmv3kCcbXDlYhwfX5ZcsVwrHcLjCs+IlBgIIxAIBODxi4CklLhCrO078FQM9DX8XU2/S/5ZogoZTxpkEX7HpNvCburLibYvXsHDBAq8mQlaftzU8/3xXbfb5fAenZyIEavSwOH0/2gO/SeQ9s17DgQOBJ778gVPXdYd8OKmu8JSY/PNZIHnErQn8O/P+Bx/St8tW0KDBQ8SyYn3bnHT0l89ccXsrj1m7fGOAjnD67BlHZnTcPHD99deLg4hrOWrPqRI7Ob2G7du3eTURtfVfefVVWiAOCDVzCkZbp6PJ6fGYpjOhdKw4TE1JdfSodG3DbNnyNkftOVWqIs4u0xF++32LDjOObPDBozq2ZRS/7DJH7dkppaSk2BXblhUqVEhsKepiq6Or8D5x6Ha0/b/VNTbYyX4EErLfkLLXiOL+2kdx30yk9Ow1LD2jKVaCkuvdq8eWYmXCBO+HZeXKlUvcwBBc3xrUb0BbfvN2sOvOnTtpxfIVVPemusrIoiN5ww03ZrmZwmvPGotzLTZt2uTVDB05fNizjXAYKFKkKPHS8FCHHzf8qKWJ2uL0dj6LQleQqzz4Otto/BlXx3nhRcXUbNDp0mW8T/SdNr5e0/751vfea3rbQrqHVy1NhSN5xIjhTodiqufmjARTA1EuLCm2FAz/4gu64847xbWpw2mlWPF05kxwy+RDPVTp9OBDnSMZrnV4kHCgPhYvXjyQirZyt7dtmTXM21lOn/xX++/pxRdfQgdd3DZj1rdDBw+ZiUMiK126jBa7Os5h89oRfgk0c8YM4i1PoQp8U9Err74WKvOwCwLaCcDhoR2pXoNJi8dQ+tEDeo1mE2vpdZpRWp78WkfDd5kf1jDp5eu53G5nkQPhbS1DhgyW2aDj4Z8PjcrJYIsW+lfl3H1Pa+rTp3fQrGTFw4ePyGTY4iOizcNHDtNRcXPK30eP0lH++vso/f3333Ts2DFK9vC2x+sgNv6y0asJf32eeOkOfGhtLIRLLrpYSzf5sE7+kPlXGFYh6drG9NKLL2oZO4wER+D2O+4g/tqyZQuNFysX582dS7/8En3beSLt9OBzYS4RW+J0hCtKXKnDjCMb/L/Ca/hNvFy5977WXs2EpD7/HwxXuFbT2VilS5UMV5dt23nu+edD6vDo1OkRKlXa+1kttoNAIQhoJACHh0aYuk35UlMobtl0rO6wAJtyk967z7mZSZMmWLTmTuxlmR8v0ee3LvxBxEvQtdzVSx/M6jYO4gR0MzuqrHKVyv5bCvg6YS/h2LG/vVR3VPcHcWDi7FmzaKnYw75u3TpHdSKltHnzZi1N1617kxY7sWjk0sv0TKR47MWKFQuLw+OXTb/EImr02YJA2bJl6Y033/R/LRTXb08R125+++3SsKwSs+hSFjE7PT76sBe9+HL4b5rg8390hZIlwzPh5e2GXs560DXeUNr5+0h4HB68ItfLYaUqg3CuxFPbNaabNm1G991/v9/RaSzzmq8knEM6zuPy2g/UBwE3BODwcEMrzLpJS8aKa1zDt4cxzMPz1lzNJpRSuro3G4baZ8+epcmTJhmk7rP58+cXt0J4e2NSX2xr8erw4JUqY8aMFoeDtnU/iBDVKFWqFJUM0RsQPszQs8Pj+HHtI+c38nPnzKYli5fQ2rXfaTlVX3snLQxu1XB4b758+UjXnm6Lbka1uITGN76JiUlhGetWsSIAIXsS4Gut5dXWC+bPp2/EeR8rV66gn3+O/MqPQYMGUktxe0t5TefVOH2COt9UX5Art9NmPentENtWs3v4OwwvIJjhJZdcog2ljmuzdXXm1Ve70eJFi+jPP//UZdJv58mnn9FqD8ZAIBwE4PAIB+Ug24hfOhWrOyzYpda93aIkePHoUV8FX1mpefXVJanVnfpXnyhNOE5OGDc+qhweNWpc77jvbhWvKXuN36Hgtp6qz1tKdIW01DTq0eMd+nLkSO0fOHT1MZCdfx3eFmBnR+fbU7t2orWsUIGC0do1y35F4kpIy86EoIAPu0Ug4tV2csXdzz9vpHlz5tGyZd/Shg3r6XgInL+BmB8+/Bd9+OEHNPJLPf+LA7Uny4uKrWKxFrL77yg/j4SE8ExRChYsFGuP31F/+eXSw5060YcffOBI34kSr15uo/nmLSftQgcEvBIIz18Tr73MgfWT1i+g9J9Dd51rLCP1XVGWzt4U3IGgduPWsbqD7W/cqOcaT7u+Oi3jN3fpaenki/M5rRJSvYKFQ/fBovgleg6L46XCXvdzf/75MPps8GD/3vmQAg2x8VMaHB6xOJkIMdaoN6/D0RXNg+SbohAyE6hUqTLxF28p4cMip0yeTPPmzaXvvvuOTp78J7NyCHO84mT3rp3iDKyrQthK7Js+Ls53yu7hggvyZvchhnx83bq/TnNmzxEruLyfx5U3b17q+uLLIe8zGgCBUBCIC4VR2PROIGGp960V3nsRnRbS6rYg0jyB51tNli/Pfg4m3qbTq5c+7350/kSc61WRokW0dO+PA8EfEswThOZNm9Lzzz0X884Ohqljj3jhQoW1PBcYCR+B7O7w4D37CNYELrr4IuryxOM0Tdz08P3331OPnj39tyyFY2UMrywZKVbFIdgTOBGBFTj2PdJfmk9MsBG8E3j6mae9GxEWHmzXjq6vGbpVulo6CSMgYEEADg8LMJEUx+/cSOnLpkWyC9HbdkIipdS5W3v/vh47RrvNaDHI3v2cEC4sqmdZ8qH9wTk8Xurale695x5asSL7OM5Onz7t+UenUAhX9XjuHAyYEtDx3E0NR4kwKQkOD6eP4vISJeiZZ5+j2XPm0qrVa+iNN94ivlrc5wvdqsE5s2c77V6O1YvElqNww+YVBQjeCRQsFLqVtd57BwsgEB4CcHiEh7OrVhKXiJtC0tNc1ckpyul1WlKK2NKiO0ydMkW3yaixx/uxd2zbFhX9iaPQfUjOI67t1BEuvsT9NaLs7NBxlbCO/uu0wSuEvIY8uXFegleG4a6f3Vd45MmTO9xIs0V7fLhn15depPli28maNd9Rp0ceIT6UWHfgw5L5Sm4EawInTpywLswmJXnzweGh41H6MJ3QgRE2YpwAHB5R9gB9xw+Lq2hnRlmvoqc7qXXu0N6Z1atXe74RRXunNBv87LPPNFuMPnOHNJ1EfpHLE9uzq7ODn7COE+f5tiCE2CKQ3c+4yJ0bDg+vP5HlK1akPp/2pblz51GrVnpXXSYnJ9PqFSu9djFb188J27Ly5tXvTMvWPxQYHAiAgCUBODws0USmIGnJ15R+ZF9kGo/2VktfR8m1Wmrv5YQJ47XbjDaDCxbMj7Yuae/PX5ocHm4OP83Ozg5+QDr27B/VePON9h8aGDQloOO5mxqOEuE1ZfWvEoySoYW9G1Wuu45GfvUVdenyuNa2136/Vqu97GYsf8HYu/3J7TOoUqWK2yrQBwEQAAFTAnB4mGKJnDBu2YzINR7lLafV1e/s4CHPnD49ykfuvXvbt2+nRd8s8m4oii38Ja409BoKig+RcfHO/ixmd2cHs9RxSj4cHl5/KsNfP7s7PGrVrB1+qNm8xV4ff6zV6bH/wP5sTszb8AoWLODNQJTX5uvMrxDnxyB4J5Du7CON94ZgAQSimAB+DaLo4SRuEBPSbeujqEfR0xVf3sKUfJPeZbM8uulTp9KhQ4eiZ6Ah7Ek0HMy6cmXolin/9uuvnunlz5/fkY3du3bRxInirJ1sHvLm9X4uyr59e7M5pew3PB1bmaKZSoWKFaK5e1r6tnDBAhr39VgttpwaefW1bnTllVc6VbfVO/Y3zvCwA1SoQPZe4VGpUiW74aMMBEAABFwRgMPDFa7QKieswcnkVoTTb2xOaRdeblUctHzy5ElB1421ikuWLI54l7dt30YnjofmsLU9e/Z4Hl8hh6eZ9+vfj3LC2RQlSnifvDAnvvYZIXYIFClSNHY667KnhQoXpkqVKrusFTvqo0ePpttua0l3t7qLPh82LKwdL1ykMN1+h55zto4d+zusfY+1xooW03MrWbSOu8w110Rr19CvbExgy+bfsvHocvbQEnL28KNn9HEnj5Nv7SJKj54uRVVPUurdqb0/J0/8Q7Nz0PV3f4ozLr4cOZLad+ignaVTg6f+/Zfmz59P97S+x2kVR3oHDxykgwcPOtK1UypcuIhdsb+MV3dMnjgxoF52UChXrhzNmePdEbvu+3V01VVXZQckOWIM5cqXE7dwrPY01ksvu4x0XRXtuCNOLoES/2R5Yp6dAt+mNGDAAJoyaRJt3PhTxtDWrl1Lw4XTo9Ojj2bIQp3grQg6wrFjx3WYybY2SpUspWVslStH4JwMB7+n/L8HAQScEDhyRN/B6D+IWw0RsicBODyi5Lkmrp6Ow0otnoWv2i2UXLmBRWnwYn4TxqfB56Qwffq0iDo8mPUM0QfdDo8J48eRjqs0ixQJ7PAY0L9/yFZ3lCpViooULUoX5LlAnJ+Rh/iq3bwX5KU8hq0la8TNQht/+m9iE6qf4WuvvVaL6VA88+8Eg1o33KClfzCSmUBlDSsg/ti3jz54/wO6s1WrzMaR00Zgz+7dNGTwYJoxcwbtslhFNXzE8LA6PEpdrWcint3PqPD6Q1BCbB1KTEz0/Bkmb968/muGvfYH9UEgUgSOHDmirelNv/yizRYMRRcBODyi5HnEfZf9b9EIFnVKw/uDrWpbb8aMabbl2bFw5YoVdPrUKcqdJ0/Ehrd8+TI6euSo1resszWsQmAgF15ov0z45MmTWs/uKFmyJNWpU5fq3HQTNby1IV108UWOnkvdOjc60vOqVLlqVa8m/PVD8czbtn2Q+Hk8+mhneumVV4g/uCPoIVC1mp7nvkCcIwGHh55nolr5QayYGjrsM5o3dy4FOhT4l59/pn59P6Vnnn1ONRGy9Ko1q7TYLliwkBY72dkI/7/av9/b4a4//riBtm7dSmXKlMnOqDC2bEyAX3Zt37aNSpUu7XmUO8S2a4TsSQBneETBc03YvZlo7bwo6En0dcF37Y10to7+N4Rbt/5Oy5cvj74Bh7hHp4SzY9CAgSFuxd48n+mgc2/53LlzaJWmw1Dr169v2/lNYvKg6+yOli1vowULF9FA8Ya2TZs2jp0dth3UXHiN2EddoEABz1aZ2aCBAzzbkQZ6ffiBfwvTP//8Q3369KbiwlF0c72b/IcQSx3EwROoUaNm8JWVmqtWhe6Q4nAfyKkMK2JJ/lt37z130623NqCvx44N6OyQHf1syBBasXyFzIY0Xv/DD1rsFyyUvQ/l1AGpWDFnDnK7tvgzwZzZs+xUgi47efIf2rRpU9D1UREEnBLYsWOHU1VLPX4ZuGXLFstyFMQ2ATg8ouD5JawJzT+bKBia5y6k3hqa1R3jxn7tuW+xamDW7JkR7/oXXwynv/7yfo0sD6Rnjx5axpMrVy667Xb7A/d+3SyckxrCJx/3prHjxgXt5Dik4bwSp8OoXr26U1VbvUGDBtJ3a9bY6jgpPPDHHzRs6NAsqhvWr6d27dpSgXx56dlnnqYfN2zIogOBcwLVNDx3/hC6aOFC54061OS3cO/17El1b7yBPnjvPTrg8S23w2YjpvbVlyOp0a230H2tW9O8efMoLS3NVV/4QOcH7r+XJoXhZqlff9XzN/KySy9zNcacqHz7HbdrGfbiRaG5sr7Hu+9SsyaNqcND7WjWzMh/7tACC0a0ErhA/L/WEUZ8PtyzmR493qVtYqUIQvYkAIdHFDxX33f6PxBGwbC8d6FMdTpzSxvvdkws6DiI0cRsTIjWrVtHmyP81mXv3r30wQfve+b1Uteu2s6yqF27NsXF2/9J/P13795/vvr2IQ8Hx/7+++904MABz+ycGrjxxjpOVW31Tpw4QW+/9aatjpPCxx7rHPCA2i9GjKB6N9Wl6tdVpT4ff0LHjuGKSydsVZ26YquVjjB3vv7Viz179PTf/LNx40Z6772edFPdOvTk44/TqlV6tlPoGLcOGxPHj6frq1ejp558kr777jtPJvl34OGOHal/v76e7FhV5kOxGzdsKBzZf1qpuJLfoOnvjqtGY0y5hVglqCP8IFbl/Kb5dorVq1fRGHFO2t9//01TpkyhNg/cT40a3koD+vWjtFR3DjsdY4SN6CSgYwUpj2z2nFk0e1bwTrXNv/4qtv6F5m9jdJLPeb1KyHlDjq4RJ24QnvVtOBXY7KmkNWxtJvYsW77sW23LLENywrnNCeb7hKNAx5aKUaNG0XsffOCZpRcDQ8Uyaw4fiwlpMIGdHUOGDA6mqmmdho0am8pV4WYNKzzKli1HuXLnUs26Si9dusSVvlflG27Ud17ICnGGzB3iyszpM4Nb1cZ1lyxxPn7em/7mW2/4vxo3bkL3P9BG+4G5XvlGa312APbTMDnm3/Ma1WsI9g9oGeqM6dOznKPDNzSNGvUVjRkzmurVv5keuO8BeuDBB7W0F0kjre+7j8aOHaN1mXW3117zO0zfeOMtT3+HVC48Wej0cEf6RdOBf0lJSVSzpp5tVWo/s1u6YsWKVLlyZXEzz0ZPQzt+/Di99OILNGOW9xu5ZEd6ic8X7OxQA6/w46+hQz+jpk2b0aOPPYazQ1RAOTBdoIC+rWsd2renPw8Hd4Dp7eKzBUL2JgCHR4Sfb/xaHFZq9gh8V1ags40eNivyLJs4Qc+VonxP/Iowv1F8+cUXafDgQZ4ZzBdvXSPt8OBB8GToX3Hw5KDB55wfTgf2xONdaLRw2ugMDRs1DGiOD8byGspXKO/JxNwwX6Vc7+abqaS4PWbH9u2e+i0rs8OClzm//OprFOjMFFnn+7XfU49333bl7JB1ZbxgwXzir1deeYlaNG9B7dq3I11nVcg2slNct1494luLdJyA/+47b1Oz5s2pYEFvH27Xi21L3V571RIzb/VYuniJ/6tPnz50V6u76MknnqQChWL3AMwXXuhKizRvOegv3rJPmzqV7rzrLurU6VHx+13Skqldwd49e8XkdQhNFbasbomxq29VVlocPpi/QH6rYsgVArwCz6vDg80tXbqUXu/end7VsEX0maefsv2Z3blzp/9lxejRo+jmBg2oY4eO1LhJE2VUSOYUAoU0/m0+c+YMlS55Nc0UjrvyFSo4Qjh58kR65qmniVegImRvAvbrt7P32KNidHE/Z68luLqgpt76/+2dCZxVxbH/684MigKDqOwiiijggiwCIsiqUREFQXEHFCQuuO+aqEHzf1nUGJeXxDx9JqJxAXFj8cmuCGrigiIugCKKIBFlwAiz3X/XZWro6emzn7vN/PrzuXR1VXV19/cOc6frntNnDCU9bi8IOxZv9uMoY8eOjSNMoBiXX3FlIH8nZ/7m+/9eyY1kGycuBg8cQIsXLXKabrWefdg37mTHoYceRocd5v0IVv5DLWpZu3Zt6BAXqlth4t78+JnMmDFj/Lj59lmiDpk9Y/Qouu66a12TGMz7cnU5/ynDh7n6+R5YOfL5J/Pnz6NOh0RLPAUZMx99+Q/RESNGxjJ1PkNi0sSJkWJxsmOcOqPF7/+fjz9eSf+lzvc48siuqdtduH8+Fk48na0ONY678HvCiY8Bx/ajiyZMoLnqiTp+f79x0nLUyBHUvVtXuk8lluJMdvA6j1dXY6H4I3BWjD8bf7zvD/Saj89ht5mNV38XPfa//+vmUm3jQ6dnqrM9TlefBfy5zld+oNQvAnE/fvrbb7+lPr17qbPd7vQEefGkSXTBuPFIdniSqhsOuMIji+9jgxVLKLnu4/TO4GfnUelJF1BFhyOpaOVSKnpnLhX8axElV7+X3nEjRE+0PojKfjYuQgTnrs8+83Tkx7hJ9CuvulrEjNX7tduPWrRoQfxLPWqZPn1aznyrwvcQDz95WOry1sFDh9L++7Wjdu33Tz12dMP6DbTh2w20QH3LyYmadJQ+ffr4Csv3m/Llv1HKm8veojkzZ9GJar1+C58efsvNN9O0afFcneR3XPG79LLJ9LfHHovt/w7H5W9j+Aoffu2n3u+D1LfMLVq2pIYNG6YeMff111+nfs75KQJxlxNOOgnfIPuAOkk98vfpp58ifuxf1MJPGBl20ol06SWX0vBTgx22OO3Zaer8l9t8Jzv0ufItgHy7C78GDxlC48aOp1HqSSf5VK5Vt+/5eQRtmDXx7zN+j/nFha/Cad68ObVp04YOPLAD8f+/TZu+pU3qkOnNiiWfBcKPg05XadCgAZ151lnpCl/n4vbo0YMGq6skgtzq5wZh/PhxNF6d9fLL2253c6tl40Oi+YymsAl5/huAX/fdey+NHn06/fziS4j/3kGp2wQKi4rUZ/9BtDqmK0iF1m/VLVV8hkznzp2pW7fu1LtXb1r+4XLi25I/+/Qz+nLdl/TD99+LO+p6QAAJjyy+yYXv+b8XPcw0k2Ouou3n/qK6a3mXvsQvOveX1ODD16nw7Veo4F2V/Fj7UbVPLgiVQ0+nyj3ScznrjOdmxLLEQ31eLhfLYEaQM888ix544H5DG7yZrpPZg89kVw9OaKQrqbFrlNoSX1brpzRq1ChywmPHjp/oiiuvoLu2ltAYjz/s+Z74v6tEw0svvUicAMhW4W/7R40aTQ/F+GhZfS1ffbWO+JWJwofGTrxwQiaGyvsxDut6BA1Tt6JMmzYtlrW8rh4Fzq8TVcJpsrqMmG+Xcivz5s6jBx+8n+bNnevm5tu2YP589QSfq3z754rjIYd0ossmq98Z6raudBdOaPCLn1awePHidA9XK37//sfS4Yd7X21Xq2M9VpymfjfHlfDgw2d//7vfqQMgX6aLVXKSkx9uhZOhd06ZQo///W+RPxt5HD7QfNVnq5DscINex2y91Hk9cSc85GeJf57mxvT5Ucew17vlIOGRxbe84F8LKZmm8RNHHks/ackOc5iyw/sTv0h9ljV4b55KfrxKBe+o5Mf69HyDbo7v2N5nP3V2xzhHcxTD95u/V98+xPOH8/lj0zNHP+u74sqrYkl48EF/T6oM+Dnnnedn2Drrw39cjxo1ytf6Gjdu7MvPy2nDhm9o4sQJ9OijjxAfCtqmVRtq2aolfbf5u9S32F9++SXxAbXvvfde6htWr3iZsF99zbWpxAvPLZ/LcccfT52zmLDMN3YX/fximj17dqzf6vPVCvxq27YttWvXjg7s0EFtco+g1q3bqKdFfERrPl+T+vlfunRprLiGqqeIDFFPisjHcsONN9D7772j/g+GfxJBPqz7wgkX5sM0c2qOnJR49JFH1OfFu7HN6yN1EC2fxTHlV3ekrvbZf//2dIg6t4w/L//97++In1jGnwWr16xOXZEX28Aq0Dh1+CRK/SHQq3cfeuof/6g/C8ZKs0IACY+sYCcqWrsirbeVVAw4zffKyroNJX5xafDmy1T06hNEKgGSjZIcOpoq92qRlqGfeOLx2DaPl02enJY5+gnKG+PWrVvHcnvB88/PqPcJj9PU/cN+S5s2bWO9AoUfo5kvj9Js0bKF+pZ5Mt14ww1+ceWcH1+qf/PNt+bcvHJ5Qn379k19y/vQgw/GPk2+aolfy9STGzJRxo8fn4lh0jbGH+67P3VJNl99URfLyJGn0Qj1QglO4PY7fqUe/XpmbH/jyAz+rW5l4lccB6NKTLd6gDqzJsjtnm6xYMsPAvxEMBQQSDcBHFqabsIO8QvVWRrpKol2nah0cLhDzsr6DKcd1/4P0SE90zU9x7iJJvtQ2fHnO9qjGl56MZ5vxo444oioU4nc/6yzzo4cgwO8pi4vNx8dF0vgPAnC56FMDHCY4rAA527kCYJA07xEPfFi8OAhgfrkkvNll06mzl0659KU8mIuU+68i7p08Xfqfa4uqH///nm/meak4x2/mpKriCPNi2+bu+GmmyLFqM+dh6orly659NK8RzAWV3fk/XsYdAH8N3XXI48M2g3+IBCIABIegXDF51ywbE58wYxIlQNGqCechL94p3KPRlQxcIQRNf1NPrujosUBaRloxYoVtHRpPE/EGT/O/Z7WtCzACHrVNfHch86Hz/3N54nqxhTqRPOCCy6kZs328b2WIYPz83J43wv04XirenRhs2Z7+/DMLZeB6ryIa66/LrcmlSez4YMkr7w684c0x4WHz23hb8DrQjl1xAi6Q52ZUNfKpSqZirM7or2rnAzjxF6+lkkXX0xj1BllKPWPwKkBD7Kuf4Sw4qgEkPCISjBE/4LN64k+fjtET+8uiUbNqGzQmd6OHh7Jvdt4eMRrTuy+J5Ufd168QbVoTz8V3/2BF138cy1ydkTepO+3336xDP6yOpysPhb+w/DWX/4y0NI7qasD8v2b7kALtjj3Vk+0ue222yyW3FXxlTy3q3vR874ksreCc9TjLy9WT07Ix8Kb6T516LLpa9R5Ovn6Xth+fvhcnZtuucVmgi4ggXvv/QNxgi/fyrHHDqC7774n36aN+cZEYOz5Y2mvZs1iioYwIFCbABIetZmkXVP0xotpGyN57CnqKon2keMXfv5h5BhBAlQOOZ3K23UJ0iWQ7+xZswP5Ozl369bNyZRx/dlnh7ttyZzom28uow8++MBU1+l2lG98J1w0sU6wKaDwu+cJF11EN910c95wePCBh+ioo3rnzXxzdaK/u/tuGjhwUK5OzzqvgYMGBU5sWgPlmJLfC/5GPN9Lz6OOoudmPJ/vy8iZ+fOBzL/9/e9zZj5+JsKHF99zD5IdfljVVZ9W6jHYQ4dm/wrarl1xa01d/RlDwiML72zBJ/9K26hlg86IHLtg+zYqWJy+pIxtguXHpe/sDn604SeffGwbNrCOb4HIlcJPzYirPPP0U3GFco3D92nee98fXX0yYbzyqqtCf+M7adLPacCAgZmYpnUM3uTEcb9rZcRnRN2ibm257rrrrXPMJeUzTz+LQ/BifENemjmTeJOaD6VHj5700ssz82GqoebI34jfdscdofrmQqcLLryQFixclAtTqVNzOO+88/MmGca3y/3h3vvw5Kw69RMYbjG//OXtqScChesdvddx6iler6uD5FHqJgEkPLLwvhZ8vjI9o/Y+gcq79I0cu2j+Pyi5YU3kOH4DJIeNp/KO3f26B/abNu2ZwH2cOlwwYYKTKeP6xk0aU/v2B8Qy7pzZ6TtTxpwgHxKazcuxhw8/hW648SZzWoHafEl5Nkrnzp1z6rJf3mzd/8CD2UDha8wZz7+IZIcvUsGceJPKm9VcLvwIzYWLF+fyFGOZGycdX1+ylNrGdItjLJPyEYQTt3+8/wEfnnAJQ4CTYVOnqifu5Xh5YuqT+B2d4+9RpqbX4aAO6m+zGzM1XI1x+Bbx555/oYYOjbpFAAmPDL+fifIySq6L52oDc+oVA/0/XtPsq7cLF8/Qm2mVE032pbJT0ntZ7txX58ayhp49c+9bzXPOjee2Fr4CZr66EiZThS/Hzsbli92796Ann4p+NcsQdSL+zVm453zKr+7M1Fvke5zxF1yQSnrk0n3jjRo1Upvd14ifXICSHgK8Wc3VWyp+9rOf0T/feTc9C8/BqF2P7ErvL19OI0aMzMHZ1ZxScXFx6tBVnNdQk0s6WqeOHEkvqiuc2rVrl47wkWPOmj0byY7IFOtWgAsnTKQxY6KfQxiUyoKFdT85HpRJXfNHwiPD72jh6jT9EaaukCjtPzryahosUxnOlW9FjuM3QOXwsVTRpqNf98B+TzzxBG3cuCFwP1uHC3PwG81rrrnONtVQuunTp4XqF7bTjBdepO7d03dljzmvG264kRapx/DGVW6+5daMbvjOV4d6nZijj8XlpMczz06n3r37xIU3dJz27dvTTHXFUo8ePULHQEd/BHjTyockHnDAgf46ZMCLL4ue9lzmkvYZWJKvIXbbbXd6XH3e8VOUWrZs6atPpp169OxJTz8zjbJ1hVym15sL4w0aNIhefOllGjUq+t+Hca1nyJAhtP6bjdRfHVSKAgImgf959FEaNuxkU522Np8h1LJVbv7OTNui62FgJDwy/KYXfr48LSPyo2jjKEULnosjjK8YiTYH047h6T31//kZ8a3n/Bx8PvzuDXenDgcd5Iu3l9O8efFcCeM1jm5f9NrraX/E4l577UW/+/099Is0PFmEN3x33fVrfUlpkfmA2of+9Ke0xI4raL/+/Wju/Pl02eTJcYUMHOecc85NfaOJZEdgdKE7TJw0SSUSFxEnvbJZ9tlnH7rn7nvp+htvyOY0sj72jeow4XnzFxA/VSdXysEHH5z6Pb9w0WLi3xMomSVwUMeO9Njf/06PqI1kth/9y+egPf/iS8S35KKAgBOBp555hs5O8++w9gccQJ9+tor4KVEodZ8AEh4Zfo8LVq+IfcTE3m2pdPDZkeMWfaKu7FiWuQPeyk8eR8nGzSLP2ynAxg0b6fWYvtHv0+dop2Gyrj/3vHNjmcP69espzsf3+p0Uf9vHl93yH8Vxl5EjT6NZc16hiy9J321TV6gDUBerxE23NFytwge63XnnXfSXv/41bjQU5SktbpP5r9/8lmbP+b+MXl4/ePBgeuGFl+jPDz9MBx6YO1cbuHGqS7ZmzfZJ3daU6fedGXKig2+tWaRuYcqFR4bnwvu6v7rK6c8P/5WmT3+OjumXvQRD585dUomOf737Hq7qyIEfjDPUrQJvLHsz9Z6k4/PWbYl8uxX/fvjjAzi3xY1TLtvS9TeD05r/on6H8Xlve+yxh5NLaP1pp42iDz5cQa1atw4dAx3ziwASHpl+v75YGfuIlQNOoWTxPpHjFi14OnIM3wE696LS4enbhPI8nnjyCfrxxx99T8nNccLECW7mrNquveb62MZ//rnsPB6QL7vlP4ZGjRpFjRtH/+aHH0X5+NSp9Hf1ysQ3WpzsmPPK/6U+nHkDFkfp1KkT8YFuV159dRzhMhqDv8Xly+tlAxwXE30RezVrRqNPP534KSwvqEu2Bw8dopshZ4GA+b43bdo0bbPgA3wl0cFXWvEmH6UmgeNPOCH1e2ne/IV06WWXpSWprI9YUFCgHv98FF1z7XU0V50J9dY//4lEhw4oR2T+koGTUHdMmUL8OZOu0kY9apTPY+DPAf48wNU96SKdmbhRn+wWZpZ83hsnbgcMjOfJeHyeDX9u/O3xx8NMB33ymEBRHs89L6eeUAmPZJwzTxCVDR4TOWLht2tTj6KNdW4us6oYlv7Ln9ev/9rzjAW/Geuz1C0FuVoKCguq1ynrkQ8mvS2y1zo2f7eZ9t5nby+3UHb14+pYWrRsoS67fZw2qCtNHnzoQXpu+nT66quvHP1NA5/dMEh903/euedRn77Rn1Zkxvdq77nnnsQfzpMvv1x9230/vTJnDq394guvbjXs++67b2oNY04f43pexzF9jyF+RSnyMxIlhldf/gNX/shdsGA+LVq4kN5ctow+/fRT2rRpk1f3WnY+GPVI9Whjfp/HqjNNWqk/qNNZsvk0Idu68u1931qylfgpWbNnzaalS9+gLVu22JblS8cH0fL/8f4DBhA/aYmTpCj+CPTq3Yv49Zvf/o5eeuEFmq0Oi1yxYgWtWbM60nvCo3NS6+ij+9IJJ51Io0edTs32Tt9Vm06r5Q2MU/HzuRf370K3+fA8/czJaT1x6jnxwa8FCxbQDPV5O3fuXPWZuy7SEB06dFBJr1500skn0ejRZ0SK5bdzrvHOtfkwxzjmFPf/E7/vL//Of1m9Hrj/fvVZMpPef/992rp1q9/uKb9jjjlG3SJzLo0bP96zXxysPAeBQ8YJ8P5DXjK47En02pSlj64v0GLpdtFLzTaRudblRMm2Hz+VidS1umjdSmow+dhYl5UceBptvyb65e4Nn/kNJZ64O9a5OQZTj8/96dbcf1ya4/zrqWHOzFk05sxof8DwZvW1Jf6fc85jfvn1OvpaJT74lpuNGzakPuiKi5tSM/UNP/9x3bVrV7WpPpb4MZS5Vr5cu5aWLV2qvul8m7b88IN6baGSki20Y0cpNW/RnFq2aJk6LKtV6za0n3rl6qGk6eDKt5y99dYyeuedd+jbb7+lrSUltHXbNvpRvUpLS9U93k2ouEkxNSluol7FdNzgofWKTzqYZzvmV+u+os9WfUafr15Nn3/xOW3evLnW+95IXeHVpLF6z9U9/o3V+36IutWtm3q6El85wLd4ocRLgP///eutt+lj9aSuH3/cRtvUVZH/+c9/Uq+f/vOTuuKuEe2jErEtmrdQv7NaUqtWLah1q9bqUvA21KZtG+IkLUrdIfD999/Rav7/ueZz+mLtF+pz9xvaxr+bt25Tv5+3pn4/8wG5fAYH/34ublpM7fZvR92O7E5H9eqpPpfjucKx7hDFStJBgP82nLtg3s7PD5VYL9laQttUEoSvEG7eokXq4Gb+PdW6TWsaMvQ4/J5Kx5vgEbO4cSP+o5y/R6/Ual1mm2kXnV5LH+We8tdtLHMRnch6nZL1xAQruOhJDGnrOr2PrpfEhWkXvdRsF5lrXa7TCY8Gb82kol+PY6axlYrbnqDSnidEipcoL6U9rhxEya/Sn2tK7FlMpXc+S+Ude0aaMzpnnkA2Eh6ZXyVGBAEQAAEQAAEQAAEQAAEQCEsg1xIenGxAyRCBgh82xjvS4cdETnbwhHab/2RGkh08VsUZlyPZwSBQQAAEQAAEQAAEQAAEQAAEQAAE0koACY+04q0ZPPHDv2sqIrYqB46MGGFn98JF8T261W1Cie6Daceo/DuA0W1NsIEACIAACIAACIAACIAACIAACOQmgVxIeOj33+Qmpbhm9X18CY9E247qUbTnRJ5Zg7dnUfJD/2cqhB0w0aAhlZ51Tdju6AcCIAACIAACIAACIAACIAACIJAfBHJmj5/JhIcsOj/eojTMMlES/KkETtOoHHAqJVUSIWopXDQ9aghf/Sv5VpbOmX9yhq/JwQkEQAAEQAAEQAAEQAAEQAAEQCBTBDKWG8hkwiNT8HJ3nJiu8Ejs0YTKBp4VeZ1Fq96lxGsvRI7jFSBxeD/afuaNXm6wgwAIgAAIgAAIgAAIgAAIgAAIgEBsBOJOeNgyNTZdbAvIp0CJLd/FMt1k/1OponWHyLGKFjwdOYafAGW4lcUPJviAAAiAAAiAAAiAAAiAAAiAQH0iYMsV2HShmcSZ8JCJcS1y6InVyY4/xJPwKB90RmQ8BZvXU8FrL0aO4xWgcuzNVHbEQC832EEABEAABEAABEAABEAABEAABOovAT2PEFs+IUrCQ59Q/X1bAqw8ub0kgLeDa6/jqezw/g5G/+oGC5+i5JZv/XcI49l/OO0YfW2YnugDAiAAAiAAAiAAAiAAAiAAAiAAApHyDmETHrFlXOrT+5fYY6/Iy6049rTIMThA4cLnY4njFCTRqgOVnn+7kxl6EAABEAABEAABEAABEAABEAABEPBLIFQOIkzCI9RAfldRp/0aNYm0vESHrlQ6cEykGNx59/lTKbn2o8hx3AKUj72JKlod6OYCGwiAAAiAAAiAAAiAAAiAAAiAAAj4JRA4F+E34RE4sN8Z1yu/RsWRllsxYESk/tK5cMFzIqalrhw9mR1tT7IAAB8jSURBVEr7jUpLbATNdwKJfF8A5g8CIAACIAACIAACIAACIJB9Ar5yFH4THnEvx9fk4h406/Eah7/CI7FXSyobFP1RtA3enUvJ5YvThiLRfRDtGHtH2uIjMAiAAAiAAAiAAAiAAAiAAAiAQN4RyEoOINMJj6wsMld+FJJNwp/hUTngVKps1jLyUgoXPRs5hmOA5u1ox/jbHM0wgAAIgAAIgAAIgAAIgAAIgAAI1GsCGc0JSMIjo4PW27d3z6ahl14Ww6NoC7/4gBILZ4Seg1fH8ovupIoDunq5wQ4CIAACIAACIAACIAACIAACIAAC6SSQynFIwiOdA7nFlkSL1G6++W9r0izUGpLHnkoVB/UI1Vfv1GDB00TJSl0Vm1xx0RQq6zM8tngIVDcJJKl+/Fevm+8eVgUCIAACIAACIAACIAACvgnIH/5S++4Yp2O2Ex5xriXnY5V3GxhqjhUDRofqp3dKlHxHBYtf0lWxycmRl1Dp8Etji4dAIAACIAACIAACIAACIAACIAACIBCVQDoTHnomR5fd5uzXzy1GztrKug6iRNMWweZ3aB8q631ysD4W790WPknJzV9bLBFVQ86g7RfcGTEIuoMACIAACIAACIAACIAACIAACNQBAn739LqfLseKIJ0Jj6ATTdsig04knf7JngMDha8cODKQv5NzYRrO7kh0H0w/XfknpyGhBwEQAAEQAAEQAAEQAAEQAAEQqH8EcmZvn42Ehyxe6nr19lf0PM73ehOtDlSPoj3bt7+T426LnqHk6uVO5nB6dWXHf+5I4xNfws0KvUAABEAABEAABEAABEAABEAABHKLgOz9pc7Y7PwkPPxMysmH9U42WaSXXfzqRF3afzQlDjjC11pSj6Jt2NiXr5tT4WvT3cyBbZUTp+DKjsDU0AEEQAAEQAAEQAAEQAAEQAAE6hUBr72+W77Aqy+D9PTxk/CI6x3RJ6PLccXPmzgVA7zP5EjstgeVDzoz8poafLCI6O15keNIgIrr/0I7TsEBpcIDNQiAAAiAAAiAAAiAAAiAAAiAgCcBPQegy54dozjEmfCQSUttm5dpk7bUtj51Tlc25HyiFu1d15UcMILK2x7i6uPHWLRwmh83T59Ek32p/I6niK9QQQEBEAABEAABEAABEAABEAABEAABFwKyx5daXM226LkWm9S6LZRc5NKLB0kYdpvOcInUjG1hkWaR5s6VzVpS5bCxVPCY89NNygdGTywUff0pJRY/X/1TE3ZZiQMOo9LJ91D5wUeFDYF+dYRA165HRltJvfgfHg0ReoMACIAACIAACIAACIBAHhNI91/8tvg2XQohJzQkqSE1G0TWa1O2tVknL756RGSupS216KSdqku2/bhK+db5kigvoz2uP5GSa96vtdZE90HqQNDoV2Y0nDqFEs/eXyt+IMXQM2nH2Nupcq+Aj9MNNAicQQAEQAAEQAAEQAAEQAAEQAAE8p1AceNGHdUaOAFRqdUim3puy0v3EZ3Uyq3aj3VcTJvoUsYqeyoJIQqvWgKLn9kWvdROdlMvbamlf52uk0UNqPSq+ynRrnOtdZYPHFVLF1RR8GOJurrjxaDdqv0TexZTxaQ76acrHkKyo5oKBBAAARAAARAAARAAARAAARAAAQ8CsreXWtzNtpfeye4UR/yra76qIkzxO4Dup8tOY/rxceqbd/ry9upWEXUIaI2kR7+TqXTwOZHXUrTwH0QbvwgX57C+VHr7k1R68iXh+qMXCIAACIAACIAACIAACIAACIBAfSTgZ0+v++iyGy+/fjVi6Gd4cAC+zSQTRcYy60yMnVNjcNIj+Yup1GDe1NS8tp/7i1jmV7hwRuA4CXXVSeWw8bRj/J2ULNR/NAKHQgcQAAEQAAEQAAEQAAEQAAEQAIH6S0ASFGadCSIyJmViVyuDcTKFZUmqiGzWmQCQU2NUtDqAKmJKdPDCdluikh2f/tP3GhNNW1Dl4NOobMg5xAkYFBAAARAAARAAARAAARAAARAAARAISUByAGbN4XSdyCGH8e4WZ8KDJ2smM2wz0P1sdugiEij44HVfERJtDlaJjlG0QyU6Kvdt66sPnEAABEAABEAABEAABEAABEAABEAgBAG3BIdu0+UQw+zq4jfhoScpdHlXpJ2STEwSH7pd7ydyrTqZTJYlEokGekfIwQgkknzArb0k9mxKycOPporuA6ls6PmU3H0PuyO0IAACIAACIAACIAACIAACIAACIOCTAO/llavkBJxqjiY2MzLrnWxmPze/6rhOCQ/ubEtaVHfUBBnI9Lfp3eKmbJUVlT8WFhXupcWHGJBA2bCJtNuKtym57uNUz0S7TlTJSY5uA9TreKpsuGfAiHAHARAAARAAARAAARAAARAAARAAAWcCvJevskouwOZs2rht6rifk94WU/xr2ZwSHuLIg5iJDN3GspNd97P5SGxZHPskKysrthUSEh4CL0zN53BU3PMqFXzzGSUbNaPK5u3ChEEfEAABEAABEAABEAABEAABEAABEPBFgPfyylH291zrsi2G2G020elxRKfXrjG8Eh56IJY5mC15YfqZbZlEKqlRZRS5RryyioptuJ/FxBe8zbeqVBzQNXhH9AABEAABEAABEAABEAABEAABEACBgAR4L2/pIrkArm2ypYurSmK4OomxQIQM1bbJiS5V79ixfV2G5oJhQAAEQAAEQAAEQAAEQAAEQAAEQAAEYiCg7eVr7PGN0GIz1OlpmgkPt8HdbDI79tFfrHfqp+tFTpZs3bpGgqEGARAAARAAARAAARAAARAAARAAARDIfQJVe/nqvb02Y9FpqpQoeq71l+lntqWfqed2DZuZ8LB1sOlqBKkKauq4n+ik1nUiiy1Vf7dpExIeTAYFBEAABEAABEAABEAABEAABEAABPKEgLaX1/f4IvMqbLKuk5WyztSbbfF1rcMmPCSobSJiM2vdV5fZTyaf/HD58o/MjmiDAAiAAAiAAAiAAAiAAAiAAAiAAAjkLoGqvXz13l6bqb7/12XNxSoG8bUG4ANDaxwaarTFZqt1Hcvy4oE4kSJtW63ba8hNmzYtXPvlV+8VFBYUcyAUEAABEAABEAABEAABEAABEAABEACB3CWgHklb0n7//bpt2bKlQs2yUr0kWeEki12v2ZeLrmOZi+hEttW6juVUYiIlxPyPTEav9SFk0qwTn5SsAFWWbC15U3eGDAIgAAIgAAIgAAIgAAIgAAIgAAIgkJsEeA/Pe3k1O9nr6/t8nrToZQFi12uxxVZHuaVFn7CfSZo+0pbFSLzkN1+vf0OUqEEABEAABEAABEAABEAABEAABEAABHKXgNrDL1Gzq97TazPV9/0ii5/mVi3afNz8qzvahKAJD9tANp1tLF2n9zHl5MMP/3mWcpbLWfR+kEEABEAABEAABEAABEAABEAABEAABHKHQKXaw89W0+G9vbm/l1nqetF51bY+Np1jHDlfw3RgPRepdVl0el+RpRZ/aet1jTM7qsYQe7Xt6/XfTG1SXHwsB0IBARAAARAAARAAARAAARAAARAAARDIPQJbS0pea9um9XlqZpyM4Jfc2mJrmzbx4ZqL3jZ1YtdrXRZ/1qWK1xUetTpIR5faqw/bxUfkWu2Vn3w83WUMmEAABEAABEAABEAABEAABEAABEAABLJMoGrv7ri3r5qe2N1mK3kBNx/T5tpHrqwwO7FeishSs17vJ3rRBa2rr+qoiptqd+nSpeEbS5ctKSwqai4TQQ0CIAACIAACIAACIAACIAACIAACIJAbBCrKyzcd0/fofitXrtyuZsTJB/MKDrMtiQ8/NS9SEhrizzouun6nZpdO2pGe0iIDVAczBJmQW81ddHt1m4GtWr3mr0ZMNEEABEAABEAABEAABEAABEAABEAABHKAAO/ZtWSH5Aise3w1XV1vym6rkbhuPlab0y0ttoA2nS2oTNxmM3Wmb4325ZddMrWiouJ7sxPaIAACIAACIAACIAACIAACIAACIAAC2SPAe3Xes2szqLGfV3qzrbnWEoP6mgG4f63ilPDQHa0dNQexe01Q7FJrIapB1Ii1bNmybas/W/WQ7ggZBEAABEAABEAABEAABEAABEAABEAguwR4r857djULfY8vsuztZZK63rSJD9fiJ7JuM2W3OClfOW/D7MhtOZtDl510opd4UktfabvV5lke7FvQsmXLog9XfDR794YNO3EwFBAAARAAARAAARAAARAAARAAARAAgewR2LF9+yeHH3boSRs3bixXs7Cd02HTSTLDrHkhbjqxc81FEh1S67qUg/zDSQbdSfROtR9f9pGXGUf0UrOdZS6iq1EzwDmzZ91aZU854h8QAAEQAAEQAAEQAAEQAAEQAAEQAIGsEEjyHr0q2VFj/65mI22eGMtcRCf1Tu2uf0Uv/rsstSU/PtIryVdRcJF6Z2vXv7peZKmln7T1mmV56X6i86prXe3xyapVU1q3aj2eg6GAAAiAAAiAAAiAAAiAAAiAAAiAAAhknsA3G755rFPHjrepkfVEBctBruqQvrwAkaUWndSslyKy1KzXZfFL6f2c4aF3sMmOwZWzzcY6p5fEN+103ODBd/20/acPxAE1CIAACIAACIAACIAACIAACIAACIBA5gjwnpz35lUj1tq3O+h1P3OyYjP13GZbpFJY1ZuvuLAVXW+TRWfWHIt18tJji85W6366nCgpKaksTDRY0r9/vzMSBYnddSNkEAABEAABEAABEAABEAABEAABEACB9BGorKjc+vvf3n3OrFkvb1ajSKLCVrtNQvfX/UTPOpZtxUlv803pvBIe7MSJCSkiS816kbm2yeIjdvFhvVeRPim/JUte29KtZ4/3O3bsOCKRSMjcvWLADgIgAAIgAAIgAAIgAAIgAAIgAAIgEJJAMpksm/PKnAuvvvJyvutCT05wRGl71ebo4m/qJaZe6z7cT4oui666luSD1NUGTdBtIkvNbiLbatbJS3ylLbXo5fYa1tc6w0OLk3j11VeH9+l7zINVftwfBQRAAARAAARAAARAAARAAARAAARAIH4ClW8ufWPy8ccf/7IKLUkKWy1nePAMdNnmyz6mXnS22kvHdrNUH1rKBk402Iqud5PFptembGuzLvBryZKl5xxxZNf/p/pKosQ2d+hAAARAAARAAARAAARAAARAAARAAATCEaj84P3lt/Tr1/dJ1d1MUIRp8yz0fnpbZKnZT4ofWXy5Tvn7SRY4BdaDVQeUwFW13lf3YZkL20O9GDhnmfjSmlQk/AMCIAACIAACIAACIAACIAACIAACIBALAd5r8547hmSHPh9bjkB0Zq33E1l8uK3LYq9R+0l41OigNfTguqy5pES2yYsVIpt9dL0vmS+pmT1n9lg+PCU1Ev4BARAAARAAARAAARAAARAAARAAARCIRID32LzX9nEbi9PeXR9f92G92dZ9RWYfKbosOl+1efCn3HJidjb10paa/UW21azT9SLr44hOat3mKE979tl1yWTBzF59jurVoKhBS0dHGEAABEAABEAABEAABEAABEAABEAABFwJ8KNn+WksxgGlepLCSea4kpwwfWRMsZtt0Ustdr12s1n9zOSC2dY76TYvme3io9em3qntpRd7dd2uXbvd5i5Y8IvWrVqP08bW5w8ZBEAABEAABEAABEAABEAABEAABEDATiD5zYZv/nbc4MF3rVu3rlS5cILBz4uj2fxMvVNb14vMNReOK8VJFrvU1X5hb2mpDiARLbX4SM0uLEtbZFtbbHof0VlrfkM6dex42wsznjtjx/btn3BHFBAAARAAARAAARAAARAAARAAARAAAXcCvIfmvTTvqTOQ7JDJ6LkA0TnV4utkt+r5Cgm9mG3dxrJu95LFrtdusmnjtrxkbGmbdQ17y5Yti2bOnH3hQQd3vKywsLAZG1FAAARAAARAAARAAARAAARAAARAAAR2EaioqPh+9WerHjr55JMe3bhxY7my6BcYsKPeNmUnu6nX2zZZdHrtV2Y/s1QnRzhxYBabTnxMm7SlZj+R3WrdZsq2tpOO9U42Ovrooxs/8NCfzut4UIeLCouKmssiUIMACIAACIAACIAACIAACIAACIBAfSVQUV6+adXqNX+9/LJLpi5btmxbFQe/CQ1JKHj5c1jxscmis9VOOl3Psllkbim9JAt0J5vOya772mTR2WrW+dGLn+7rpuO51rB36dKl4QP//d/DunTqPLpJcXE/ZQ97Kw/HRgEBEAABEAABEAABEAABEAABEACBfCNQubWkZMnKTz6efvmll85auXLl9qoFSFJCkgVubZuPTceh/ehNv6opVffV7aYsvnotY6Z0kkTQHWw6N7vub5NFp9dhZO5j9gvS5jUkJkyY0GrSpIuHtW7bpl9xk+LeBYUFxfriIIMACIAACIAACIAACIAACIAACIBAXSCgHi9bUrK15K1vvl6/5OGH/zzrkUce2aDWJUkBvWY5TNvsw9hssWx60em1m2zauG0WmU9KLwkD08lJL3663UsWu9Qcg2Vph5XN/l5tGVfqRNOmTQt+/etfH3Z4166H7tO8eYfiJk067L57w3YNCgsbFxSoV2FBo0Qi0YA7oIAACIAACIAACIAACIAACIAACIBALhFIJpNlKqnxY2VlxbayioptO3ZsX1eydeua7zZtWvPh8uUf3XrrrSu2bNlSqeZsJiF4GaYuTNspjptebLZa17nJbDNLjWQHGyVJYDo66cXPtOttmyw6t1q36bLMk3W63pTNtt7PJovOVjvpdD3LXGTcna1d/zrpd3lAAgEQAAEQAAEQAAEQAAEQAAEQAIFdV1eYLMxNvFNb14vsVus2N9mvjefNvk7+YnerdZsp29qs04uMXa1z25S72TiAadfbNll0brXNputMWW/LnFjnpBefIDX7cpGYppwyav/ofpraUwzbzzMwHEAABEAABEAABEAABEAABEAABDJKoNbm2+fobv10my5zaGkHqW2+rPOj1310WeZi04nNVus6U7a1WacXGU/X1djE1zCohtcG3LTrbV3muNL2U9t8dJ0uS2xd5ySbvtK21V46tkuR8aSt12423Q8yCIAACIAACIAACIAACIAACIBA/SRg3axXobDZdJ3IUnM3kc1abKae27rOSbb1131tdtG51WzjIrFM2dZmnV70vtV6rw15ULvu7yWL3Vb71fFC2NfL32aXvlxzcfLZad1ld2rrMcQHNQiAAAiAAAiAAAiAAAiAAAiAAAgEIWDbvJs6p7bopeZxRbbVuk6XpZ9N52Zz85d+XHMRXzfZtHHbLHqcGjbZ5NdQag0vO7uaPnrbSxa7rRadjCFtvdZlNz+x+al1HzeZbVJkHtI2ay+76Y82CIAACIAACIAACIAACIAACIBA3SbguFGvWraTXdd7yWIPUtt83XQ8XbbbfMSm135l04/btiLj1rL52Yh7+Zh2t7ZuEzlM7aeP+PCiWZa2WYtdr03ZT9vmwzoUEAABEAABEAABEAABEAABEAABEPBLwLaBN3VubbFJzeOKrNcii13abrWbTeK41brNlP202UcvMh9dVy3L5r9aYRHC+Oh9dJnD622R01lLbH1s0Zm1LN9LL35Si7+0zdrLbvqjDQIgAAIgAAIgAAIgAAIgAAIgULcJuG7W1dKd7KZe2lILNWk71ezHNid73HoZj2spMga3ddnWlj56bfbRbTWSDzUMRsPPht300du6zKH1tshS63bRcS2yaXfSm356W5elv9S6jWUuus3WTjlZ/ESPGgRAAARAAARAAARAAARAAARAAAT8EHDaxJt6t7bYzJrHN3VObfE17U568RO7Xpuy2db7mjZu24rZp5aPuZGv5VClCOun99NlDqu3RZZat4vOb+2nr+7jJMt4bOditndqnfV+7eKHGgRAAARAAARAAARAAARAAARAoH4R8Nq0O9lNvbSlZopestjNWu9r2rzatr66jmUuEseUbW3W2Yoew2Z33MTbnJ02/LqvzUfX6TL309siS63bRSe1m83Nx9ZP17HMxRZjp6WmzU0nNtQgAAIgAAIgAAIgAAIgAAIgAAIgEJSAbUNv6vS2LvNYeltkqXW7m05sUtv6udl0f5a52Px3Wnb+q9t1vS778amxsdc722Q9CWCzi87mp+t0mfvobS9Z7Gatx3Gz6X5+ZfbjInF3tmq3RS+16S961CAAAiAAAiAAAiAAAiAAAiAAAiCgE/DawJt2s82xdF1YWfpJrccVnVnrPm6yl820c9upyByc7Cl90E25X3+bn67TZZmg6KRmvZcsdqn1Pjadbjdls633N23c1ovpq9uc5DB9nGJBDwIgAAIgAAIgAAIgAAIgAAIgkLsEfG3Qjem79TFteluXOaTe9pJtdtFJ7Sem7ivL0nW6bLOLzlbb+tr8aiQUrA4Wpd+Nus3P1Lm1dZtN9qvjJdh83fSybL2fm86MJb6oQQAEQAAEQAAEQAAEQAAEQAAEQCAoAadNvU3vpdPtQWSbr03Ha3PSmzZb20nHerPo45i2Wm3bhr6Wk0Xht5/Nz9S5tXWbLvOUpC21k07Xu8mmzdZmnRR9XNHptZdd94UMAiAAAiAAAiAAAiAAAiAAAiBQfwl4beTd7KbNra3bdJnJS1tqJ52ud5NNm63tpGO9WfR5mTZrO+ymPEg/m6+pM9s8WV3nJOt+Tj66Xvc3ZVs7iI59/RRzPn76wAcEQAAEQAAEQAAEQAAEQAAEQCD/CQTetGtLtvX1o9N9dJlD622brOv8+GvTrRHb7Ct+ZnzR2+ogvqn+hbYoPnVBNu42Xz8600dv67LPKddIovjp4zQGgw4MW/VxiudnLvABARAAARAAARAAARAAARAAARDIfwJB95Je+08zXpC27uskM3G/NtNX3i29v5tObGZt62/61GpH3YAH6e/ka+rNNk9a1+myaTPbbr6mzezLbS42Pzd9qhP+AQEQAAEQAAEQAAEQAAEQAAEQAIGYCDht+G16L51p19u6zFN3a5s2L38dha2vbtflIL56P8fNfA0nj4ZTQsCpm80/jM7sE3dbn78Z269N93OS3WI79YEeBEAABEAABEAABEAABEAABEAg9wmE3qxXLc2tfxCb6RulbfblqUbRub2Ltrhu/jVscW22g8Zx8jf1Zlsmb+r1ti778XfyYb0tlvjrtV8/vQ9kEAABEAABEAABEAABEAABEAABEHAi4Hezb/Pzo/PyMe1mW+Zt6s22k5/onWqnOE7+tfRRzvAwgwXd9Dv52/Q2HY9v6r3a5pylbfYTvVsdpo9bPNhAAARAAARAAARAAARAAARAAARAwEbAbfPvZDP1ZlvGMfVebad+rDf7uvmKzVY7xbH5OuriTHjwIGGSAE59bHqbzmlc09dsO0LJgiGX55YFHBgSBEAABEAABEAABEAABEAABPKeQCyb9ioKbrGcbE56DmnazLbNp2oqtfoG9ZU4TrVtLk6+rvq4Ex48WJjNu1sfm82mk4XabH51EiPsOvT+QeTY3tAgg8IXBEAABEAABEAABEAABEAABEAgLQTi3uN5xQtjt/Wx6QSQzWbTufmLzal2i+fUx1FvSwQ4OgcwhI3r1s9ms+n0adrsNh33cdLr8UQO4it9bHVccWyxoQMBEAABEAABEAABEAABEAABEMg+gbg28UHiOPna9DadTs1mt+mkj5tNfGx12H62WCldujfcYeO79XOyOell8U52J71XP7EHqb3GChILviAAAiAAAiAAAiAAAiAAAiAAAvlHIM6NvVcsJ7uTXmg62Z303M/NJnFtddh+tlg1dJnYgEcZw61vWJsAiNrfTxzxQQ0CIAACIAACIAACIAACIAACIAACQQkESQa4+brZZE5uPmFtEtupdovr1Me33m3T7zuID8eo43j1d7O72cyp+/X162fGRxsEQAAEQAAEQAAEQAAEQAAEQAAEwhDwmxzw68dzcPN1s3n19bM+r/h+Yrj6ZHrjHnU8P/29fLzsNmBh+tji6Lp0xNTjQwYBEAABEAABEAABEAABEAABEMgNAunY3IeJ6dXHy840/fi4UY/a3y12DVu2Nt1xjOsnhh8fBuLXrwY8SyOuOJbQUIEACIAACIAACIAACIAACIAACNQDAnElBPzG8ePnx8frrYkjhtcYNezZ3KDHObbfWH79BFJQf+mHGgRAAARAAARAAARAAARAAARAAAQyQSBoIsGvv18/P2uMM5af8VI+ubKhj3MeQWMF9TfhRu1vxkMbBEAABEAABEAABEAABEAABEAABJhA1ERB0P5B/d3epThjuY3jaMu1zXo65hMlZpS+jtBhAAEQAAEQAAEQAAEQAAEQAAEQAIGYCERJLETp6zT9dMR0GstVn6sb+nTPK+74ccdzfdNgBAEQAAEQAAEQAAEQAAEQAAEQqPME4k4cxB3PfAPSHd8cz7OdDxv1TM4xk2N5vjlwAAEQAAEQAAEQAAEQAAEQAAEQAIGABDKZeMjkWAExxPd0ksADh+yQCwmJXJhDSHzoBgIgAAIgAAIgAAIgAAIgAAIgkMcEciHBkAtz8PUW5vvmPd/n7+tNghMIgAAIgAAIgAAIgAAIgAAIgAAIZIlA3iQ4TD51MWFQF9dkvm9ogwAIgAAIgAAIgAAIgAAIgAAIgEDcBPI2uWED8f8BNWPKAq8U6DAAAAAASUVORK5CYII=;" vertex="1" parent="1">
          <mxGeometry x="-733" y="-836" width="239.33" height="68" as="geometry" />
        </mxCell>
        <mxCell id="y8ol8J6fjDSW4kQSu5Xz-8" value="" style="rounded=0;whiteSpace=wrap;html=1;fontSize=16;" vertex="1" parent="1">
          <mxGeometry x="-784" y="-719" width="385" height="336" as="geometry" />
        </mxCell>
        <mxCell id="y8ol8J6fjDSW4kQSu5Xz-9" value="log" style="text;html=1;strokeColor=none;fillColor=none;align=center;verticalAlign=middle;whiteSpace=wrap;rounded=0;fontSize=16;" vertex="1" parent="1">
          <mxGeometry x="-852" y="-612" width="60" height="30" as="geometry" />
        </mxCell>
        <mxCell id="y8ol8J6fjDSW4kQSu5Xz-10" value="plugins" style="text;html=1;strokeColor=none;fillColor=none;align=center;verticalAlign=middle;whiteSpace=wrap;rounded=0;fontSize=16;" vertex="1" parent="1">
          <mxGeometry x="-636" y="-753" width="60" height="30" as="geometry" />
        </mxCell>
        <mxCell id="y8ol8J6fjDSW4kQSu5Xz-11" value="" style="verticalLabelPosition=bottom;sketch=0;html=1;fillColor=#6ABD46;strokeColor=#ffffff;verticalAlign=top;align=center;points=[[0.085,0.085,0],[0.915,0.085,0],[0.915,0.915,0],[0.085,0.915,0],[0.25,0,0],[0.5,0,0],[0.75,0,0],[1,0.25,0],[1,0.5,0],[1,0.75,0],[0.75,1,0],[0.5,1,0],[0.25,1,0],[0,0.75,0],[0,0.5,0],[0,0.25,0]];pointerEvents=1;shape=mxgraph.cisco_safe.compositeIcon;bgIcon=mxgraph.cisco_safe.architecture.generic_appliance;resIcon=mxgraph.cisco_safe.architecture.log_collector;fontSize=16;" vertex="1" parent="1">
          <mxGeometry x="-738" y="-582" width="50" height="51" as="geometry" />
        </mxCell>
        <mxCell id="y8ol8J6fjDSW4kQSu5Xz-12" value="log collector" style="text;html=1;strokeColor=none;fillColor=none;align=center;verticalAlign=middle;whiteSpace=wrap;rounded=0;fontSize=16;" vertex="1" parent="1">
          <mxGeometry x="-761" y="-518.19" width="91" height="30" as="geometry" />
        </mxCell>
        <mxCell id="y8ol8J6fjDSW4kQSu5Xz-13" value="" style="endArrow=classic;html=1;rounded=0;fontSize=12;startSize=8;endSize=8;curved=1;entryX=0;entryY=0.5;entryDx=0;entryDy=0;entryPerimeter=0;" edge="1" parent="1" target="y8ol8J6fjDSW4kQSu5Xz-11">
          <mxGeometry width="50" height="50" relative="1" as="geometry">
            <mxPoint x="-940" y="-583" as="sourcePoint" />
            <mxPoint x="-890" y="-633" as="targetPoint" />
          </mxGeometry>
        </mxCell>
        <mxCell id="y8ol8J6fjDSW4kQSu5Xz-14" value="" style="shape=image;verticalLabelPosition=bottom;labelBackgroundColor=default;verticalAlign=top;aspect=fixed;imageAspect=0;image=data:image/png,iVBORw0KGgoAAAANSUhEUgAAASQAAAEeCAYAAAAjGGgnAAAEDmlDQ1BrQ0dDb2xvclNwYWNlR2VuZXJpY1JHQgAAOI2NVV1oHFUUPpu5syskzoPUpqaSDv41lLRsUtGE2uj+ZbNt3CyTbLRBkMns3Z1pJjPj/KRpKT4UQRDBqOCT4P9bwSchaqvtiy2itFCiBIMo+ND6R6HSFwnruTOzu5O4a73L3PnmnO9+595z7t4LkLgsW5beJQIsGq4t5dPis8fmxMQ6dMF90A190C0rjpUqlSYBG+PCv9rt7yDG3tf2t/f/Z+uuUEcBiN2F2Kw4yiLiZQD+FcWyXYAEQfvICddi+AnEO2ycIOISw7UAVxieD/Cyz5mRMohfRSwoqoz+xNuIB+cj9loEB3Pw2448NaitKSLLRck2q5pOI9O9g/t/tkXda8Tbg0+PszB9FN8DuPaXKnKW4YcQn1Xk3HSIry5ps8UQ/2W5aQnxIwBdu7yFcgrxPsRjVXu8HOh0qao30cArp9SZZxDfg3h1wTzKxu5E/LUxX5wKdX5SnAzmDx4A4OIqLbB69yMesE1pKojLjVdoNsfyiPi45hZmAn3uLWdpOtfQOaVmikEs7ovj8hFWpz7EV6mel0L9Xy23FMYlPYZenAx0yDB1/PX6dledmQjikjkXCxqMJS9WtfFCyH9XtSekEF+2dH+P4tzITduTygGfv58a5VCTH5PtXD7EFZiNyUDBhHnsFTBgE0SQIA9pfFtgo6cKGuhooeilaKH41eDs38Ip+f4At1Rq/sjr6NEwQqb/I/DQqsLvaFUjvAx+eWirddAJZnAj1DFJL0mSg/gcIpPkMBkhoyCSJ8lTZIxk0TpKDjXHliJzZPO50dR5ASNSnzeLvIvod0HG/mdkmOC0z8VKnzcQ2M/Yz2vKldduXjp9bleLu0ZWn7vWc+l0JGcaai10yNrUnXLP/8Jf59ewX+c3Wgz+B34Df+vbVrc16zTMVgp9um9bxEfzPU5kPqUtVWxhs6OiWTVW+gIfywB9uXi7CGcGW/zk98k/kmvJ95IfJn/j3uQ+4c5zn3Kfcd+AyF3gLnJfcl9xH3OfR2rUee80a+6vo7EK5mmXUdyfQlrYLTwoZIU9wsPCZEtP6BWGhAlhL3p2N6sTjRdduwbHsG9kq32sgBepc+xurLPW4T9URpYGJ3ym4+8zA05u44QjST8ZIoVtu3qE7fWmdn5LPdqvgcZz8Ww8BWJ8X3w0PhQ/wnCDGd+LvlHs8dRy6bLLDuKMaZ20tZrqisPJ5ONiCq8yKhYM5cCgKOu66Lsc0aYOtZdo5QCwezI4wm9J/v0X23mlZXOfBjj8Jzv3WrY5D+CsA9D7aMs2gGfjve8ArD6mePZSeCfEYt8CONWDw8FXTxrPqx/r9Vt4biXeANh8vV7/+/16ffMD1N8AuKD/A/8leAvFY9bLAAAAbGVYSWZNTQAqAAAACAAEARoABQAAAAEAAAA+ARsABQAAAAEAAABGASgAAwAAAAEAAgAAh2kABAAAAAEAAABOAAAAAAAAAJAAAAABAAAAkAAAAAEAAqACAAQAAAABAAABJKADAAQAAAABAAABHgAAAACPu8+ZAAAACXBIWXMAABYlAAAWJQFJUiTwAABAAElEQVR4Aey9S4xtS1auN9cjM/frnFMFZepe4ArzkBAXWSAaNlJJCImGdZERstxAsizZGNkCueEWHdsNGrY71XLDAtnCyJJlmYaFEDa3hYSQSsJuIJCFUdlwMfdCQd16cc7ZZ++dmevh//tHjLlizZzrmZk7V+4zY++ZETFixIjHjPGvETFjxhw1754bvXtNGlo09MDGHlhuTHmECY9deR97/R/hkBmq/Ah64NGC1GNT6FOo7ynU4RHoxFDF0gOnAA6nUIe9BsRjUK63Wce3WdZeN2hg+lT0wNsEjLdZ1sE371QV8L7rddfy71rewTdyyHASPXDXyn7X8rqddN/yu+XtjJ+aIt1HfW4j8zZ5d3b+wPCp7YHbAMFt8m7q8PuQuamsrfRTUbi7rMehsg7l73bobfN35Q3xx90Dt1XuQ/Mfyr+td+9S1rZyNqY9pDLdZdn7ytqXLzvsUP7MN/hDD2zrgUMVf1/+ffm21S3T7lJWytzpP5TC3UW5+8jYh4dO2pdvV4felZxd5Qzpp9UDd6W8+8rZh28fnl29eBcydpWxlv62Fei25e2TfxfPrvS1DiqRY/L0yalp9yGzlj+Eb9cD96GMx8jclWdXOr2wD8+23rpt/m2y19LellLctpxd+belb0tb6wxF9uXdl68rf4h/unpgX0Xel4/e28a7LW1X3n3uzC75+8jYyvM2FOs2ZWzLe2xadsht8+8jJ3kG/9PTA4co7TbebWnZm9t4jk1L2Zv8bXI35dmbvk0p9xayhfFY+dvybUrbRM/qbUrfRN+VL9MP8XeVdYisgfft9cBdKuEuWZvSN9GzFzalb6KTb1tayu3zj83XJ2uNdl8Kcqzcbfn60vpodQP70vto5NlEr+Vl+BDezNPn35WcPtkD7fgeuCuFO0TOJt4+eh+tbm1feh8t82xLS54+/9h8fbJMuw+FOEbmtjx9aX20bGRf2r60lIHfl+eQ9Jp3n/Cu8vaRMfAc3wN3rVy75B2T3penj5a90JfWR9vGn2mb/G3yNuXZSL9rJThG3qY8ffQ+Go3ro3dp3XjdKZvSNtE3lVnLPCS8rZxD5Ay8t+uBu1SubbI2pW2i06puWjfex5O9cVvelLPJ75O/iXcr/S4V4VBZm/j76H00Gtal74pnZxzLl/n7yq7ThvDQA9uUdFNal96NZ6926bvim/JB7+bdxptpff4mOX28G2ldxdzIuCPhUDmb+Lv0bjyr0aXX8Tq8D/8mHuh9spK/9vflq/MM4XevB/ZVyj6+fWi7eLrp3Xj2eJfejW/iS/omf5OcTfw36HehSIfK6OM/htbNc9fxurO6svdNq/k2hbfJ3pRnoN9fD9xWqbblPySty3ubeDcvvXcb2rbe75O7jX8t7bbKcEj+TbxdejdOhWtaHe6mdePbeLtp3bzEcX182+jONPz51PfAJsXso++iddPreB2m07fFu2m7+Oub2Je3Tq/Dh/DW+TYq2xrThsgmRe1j7+Pdh9blqeN1mDLr+D7hbp594vDUri6npm8KH8q/Sc5Af7s9cKiC7eLvph8Sr3k3hemdfdO6vNmzdf5ttEzr+n35uzw34scqyCH5+ni7tG6cita0TeGabxNPTa/5u+G++CE0ePdx3frsk2fgebgeOEqxSnX78u5Dq3nqMGLreF+4pu3DX6pqb1ve5OvyJL3PP4TX+Y9Vjn3z9fF1advidVodpvIZT38TraZvC3fT+uLQ0tXlJq32d6XXvEP48fXALmXblt5N2xav0+owPZbx9DfRavq2cDetL76JBr3r6np103rjxyjNvnn6+Lq0bfE6rS+8L42G9/Fuo2dn1fm20bqyknfwPz09sEn5+ui7aHX6IeE+3j4ad2UTvZvWF99Eg951dTndtBvxPoW7wVQR9uXv46tpdTjFJy196LvCmZ5+naePVqd3w914nb+bRrx2Xd46bVP4mDybZA30u++BgxSpFL8tTzetjtdhRNXxXeG+9KSlv4/Mmrc0Z2M9+tKT1uf3ye7jW1P4XoaKuK8C9fHVtDqM+Dq+K5zpXb+Wsy2t5ts3DB8u5UbsZjzp6Xf5kz7470YP7FKybno3Ti/UtGPDmS/9Wm7Sun7Nsy28K62bTnyTyzpsSjf9EKXZh7ePp6bVYSpQxzOcfp2etPS3pW3j6ctX0wjj+mREynraNlqmDf6npwf6lK5Lq+N1mF6q4xlOv07fRsu09PvybUur+Qnj+vgjJf7W6TW9Du/Ds6Z4deZuuFbQblod7/LV8TpMnjqe4fTr9KTt6++Tt+bZFM7ySMd140HdTN83PfkG/3H0wC7F2pTepWc8fVq/K5zpXb/O203bFe/LW9MI41JON9wXh9bnahl96RuVrMu8SRlrvi5PHa/D5KnjGU6/Tk8afoa76ZvoXb46Xoczf/p1GmFcndYXN1MPX9IH/93ugU2K1qVvi2da16fnurRN8eTtpm+iJ1+m13433I3XebtpxPtcN88Nnq6i3WAQ4RieOk8dRn4dz/B9+im7LjtpXR8e3C56cK3+Jv+Ksh7alb7OPcROtQd2KdSm9C494+lnezO+yYePtE3pd03P8vDTZRnE63BfPPPUfjdPndYq3hqxE9mlTN30bfE6LcPH+PvkSR6aQzjjXT/Ta78b3ifexwNtcO9+D/QpWZe2LZ5p6dNjGa79DGd6xrf529JSzja/TuuG94nDU7usT01rw6mcLaET2JUOe5enju8KZ3qfn7QsI+O1X4e38WXaPn7Nsy1MWrqsR8a7/q70Lv8QP80e2KpMqvKm9Jq+K5zph/h9vNto9C7pfTyZVvv7hrt8xPtclnsjbZeiHJpe8+8KZ3qfvy+NBsG7i78vPfPi4zbxROoqfVO8lpE8g//p6IE+BevSNsWTnj49luE+v6bV4czXR9uWto0/8+HjkndbuJtGvOtqOWtpqYRrxBLZlgZLN72O1+GaN+nb/L60mlaHU3ZN2xTu8ma8z99FIz1dlpfx2t+WVvMN4cfVAxsVSs3oS6tpGU6flme462dal068pm0K9+WvefvSk7bNJw2Xsrrhvji02tV5W/o2hdmWhoBueh3vCydtm9+XVtO64TqedYK2iZ48h/jw4lJmN+zE6k/NV5F3Bo/Nt1PwwLBXD/QqyB45t+Wr0+owYjN+iN/HC20fes1Th7MufbRM6/NrWjfcF4dWuyyvpq0pWZ2wSzm66XW8L5y0bX6dVoepF/G86ngdrvPsE868ff4mWk0njMuyIrb6u4m+4hhCj7kHehVKDerSN8Vreoa3+XXatvC+afQ9vJv4M32bX6d1w31xaLXLslvatA0dH6gVry+ctPSzpIzjHxPu5tkVp9w1ng8++GD8xS9+8Yd/5Ed+5B9/7nOf+z7Fv+/Zs2f/aDwev+CaTCbPR6PRWVZ48IceuG0PLJfL6/l8/slisXjJ9erVq3/x4Ycf/rOvf/3r/+xP/uRP/u9f/uVf/lPFFyqnq6yM3aTV4V1VIk+O+5q3pveFsyzyZHldv07rhokf7Poq2kerBXfT63hfOGm1f0yYPN18h8Rpw+gXf/EX/8Ev/dIv/ZPv/u7v/sL777//bwh03q8bN4SHHnjIHhBYfST3f/z1X//1l371V3/1n/7ar/3a36k+CQ61T/iYeDcPze2T1UdPWu1vC3fTiHdd1sf0VOiaqY+2Kb3m7Qsnrc+Htg89+WrebTTqupb+Qz/0Q09+/dd//ad/+Id/+N958eLFF2T1jOsGDeGhB06xB2RNLV6+fPmlP/3TP/1ff+EXfuF3/+zP/uxNqWcCSCrztngfTx8N0fvQu3ylSm3eOr0bTt7azzJNSyWvGfpomd5Ny3j68GV4m1+ndcN98U006JvSmh//8R9/8Ru/8Rv/3vd///f/R9Pp9F/JRgz+0AOPrQdms9nX/uIv/uK///mf//n/6Q//8A9flvqjzPUFuY7X4b60Lq2O94WT1udvotV0wl1HHVuXypyEbjzp6dfpu8KZXvvbwt004nlRfob7/LX0z3/+89Pf+73f+w9/8Ad/8D/RlOyzJA5u6IF3oQc0pfvWl7/85f/2p37qp/6Hr371qzO1aRfo7JNO12ziq9My3OfXtG1h0rquBSWUu3bd+La05E0f3gz3+TWtG+6LQ9tGz/Tab37zN3/zX/+Zn/mZ/+rJkyc/WFd+CA898C71wJs3b778O7/zO//5z/3cz/2fpV01oGwLw96X3qXX8b5w0mq/DrcgA1GuGw9q/G3TUuEzsRtPOn6dtitMevLUfpe+Kb6Lnumt/wM/8APnv//7v/9ffOd3fue/X5VNvQc39MC72gPLr3zlK//jT/7kT/6Xf/7nf36lRqLY+1z0Rx9fl74pXtMzjI9DbrpN4UxPv+Xbd3EXxe9zNT3D6df80Gp6HYavTq/Tkr7V/5Vf+ZXv0SPT3xIY/QedcpA9uKEH3tUeGDHmGfvogBq5VU+q9OyP1LXMl3T8TMtwHU++pKWfvJle+zVPTV8L10x1eI1JkTptWzjT+nxoNT3j6VNmhvf2f/u3f/sLP/3TP/3faa3oPQQMbuiBT2MPaG3p49/93d/9j3/2Z3/2S2o/FsehF93Wl6dLz3jXJ2+6fcLJm77zoPjp6nDS0q/TMpw+PBnu86Hllbyb4knfy/+DP/iDf+sLX/jCfzNsXqRbB/dp7wE2XX7pS1/6T3/iJ37if1Nf9IHLvjS6subtxg0ehSfTar8OJ29NI9x15kPx09XhpOHX9G3hTKv9brgvDu3g64/+6I/+Xe2w/q+HPUX1rRrCn/YeYO+SpnD/2Y/92I/9z+qLGlSODdOldd46nuH0DSpE5PYJB2f8NX+uISVQ1AzbwjV/He7Lk2CTaRlPv6bX4Uy/4WMZDWCUXTX4Qw+seoAfaHQDHRH1hu50aJkRvnTdPF16xvv8rpw+nk00501A2sR0KD0rlI2q8ycteTIt6cTrcB1P+og1ozJNu+u6Z30Gf+iBR90DgBI6gq6oIa3uVOFsX6YRr8PddNJqV/N202q+g8OTkmOT0JreF05anw8tL4rJ8DE+4DPiSYK20P8vevH1KQIHN/TA0AP9PSBQmmgrzL+phz3/u7bDfFi46mlUf8btVHR3k8u09Gu+mlaHax6HMzH9LkNNz3D68GYYf1s407s8NZ2wgafIqtPG7DP64z/+49/S2/j/mtIHN/TA0AN79IBOE/i/fvRHf/TfLvuU8hQBgKm+NtETwGreDFP6tnDWrpbRpWU8/eVdTHsSZFJo+gkoGU8/6X3+Jp6GTY8DGGX3DP7QA/v1ADqD7hTurs6lkC69jidP+pmW8don7VZuGyDVwutwFljTMpx+8uBDy6umZ1r6yVPLMI3XQcoO7G7+E4zzYzNcD9cHJzgkHrhK6A46pGqkjmWNMp4+dMJdl+mb0uCv0+pwyqppdTjT7ZOwKbGmZzh9MmcYvxveRsu0rt83XRvzouxf/uVf/tPH8W4aQERvpJUa0eHvW+qBZQ7Dbb+zb6kuJ1YM77597/d+7z8pL+T2TdH6aDkl6/q0bhst07MXUiHS76Ynn9ds2sgBgbzz6W/KWoNOl6dOq+XU9Ia39h8HGJXmAUbL4XqQPhh+CLo61sbRIXQpR6n81LPkyXj6SU8/6fjbXKanv433Rto+PyW7BGc6foZvFFTSkqfL16U7znlGHCHSJ+zkaXWLhvBq+N9XX5z8gHj4CqJL6JRqkneBSmUYv3Y1vZvWxwdtG98+6RstpD7BfbS6YhmG71jetbwcrvbozjOyUapm4A/X2+sDhpz7Pofh4Hd7AF1Cpyr6mr6J3o1XrDeCh/J2BZD/htsktGbOcPoIqfMlPWmH+t21I8c5dlZb4L/0uE56rNaQBuW4MdjulcCoG9aQdnYxJ09qJ/cXynG4jNLu2lE3fsjPKuXnyM98Waea3qVlfKOF1DL0BBKASMpwDUI9WXpJmScT1+Kcgf24wCibIZ+uz9YM/tvpixzu1W0Ygjd7AJ1Ct6qUHKFJ6saTvslPfnxc+t2wE3f92fUZpFr4LlmZvisP6cmT4RtxDuRPgY/Hx7jjB0bNGRTkgW7bPsuiD1S1Eym26NZvVdXJn9Ak1fFtIxm93Zae8mp/a56+u5fg0BWyLV6nEUbGpit563KS12l8qoivgyTj4/Lp0uF6uD54XKPlIWqLbqFjVdlr+id6n24mT+1XIm4EaxkkduO9tD5AuiG5IuwltOLfFKzldMMjfTftp4djRTZ13UAfeuB2PYBuoWOSgu519S+F1/Sk7fL78vTRNso5FJBqQXVBhPOqeepwpme+jCdPS+cjjkl8fH42a/BXQ+Jt9sXjGzEPUeOiY63OVXXImwUpw8lXsbXBPp5t/G3GvsBtAKlPXtLqSmY40/DrCtfpIz5vrS/Kss39Ebq6WY+w+u9ElYd7sM9tRMfQNfFmh9V6iIikp7hMr/1MuzN/GyBlhdLPQrvxpKd/SHrN6/AXv/jFH9Z+ieHz1tmbgz/0wD30ADqGrhXRN/Swh95XizrfPunJn/6NPNsA6QZzDwHBG4V3+GveOgxbyhhpj8Q/7uQbokMPDD1wDz1QdK3VvaqIWj/rcMXSGzyEt1fAsYCUjUihmyqSfOnD3w1n3P7nPve570uhgz/0wNAD99cDla7VOphhCu4L17SsHLQuvRtP3q1+F5C2CdmWloXAU1/QN+Wr6RlmDWkApOzNwR964B57oOhaq3tVUUmrSA4mHb++unzdeObr0omvpXUBqS/DXdLWCi+Ck2ZfB0r9o7sscJA19MDQA/09UOnamg52uDOtQ76f6K6d2t1Sj60c+TJvN7xWhs7L5m3kR+2yoYc24tAtr4fKf1v8n/b2v61+vm05G3SN29fdqZ239JghmvL2qu4uQMqK9AkjbVt65tnEk/RazmhDJ6Wsk/fdqGzZgbX1UUoH5jk19k97+0/tfmyrT9E1blkfAPWBT/JuE5ujvy8/+bbK2ARIKXRbwZkGbx9/H72Pr5bT6HHk8yQM/nE9sK2Tt0ncNIK25Tm9tHejFW+jXytdY8hs6rhuWg6vLv8m+qamdOWabxMgdYVkYdDrcB/fpvSanuEbvra1n3WFPp647tEom3RErcnq29y91/vKGt2++FuWv3V07GrGrdu/q4Ahve6BomvZ65t8smRanT3p+JsGbJ2vDnfltPG7XNSmwHR1OGnpb0tLnkfsb7o3+zSJvEP+fXpq4HkrPbBNV+u0Onyriu1rId2mECqbFU4feRnu+rcp60TyHgsq5YC3W7SCkrNDDxVzbK1vlnPs79zt2x+nDNys0UDZ2gMMmRw6tU+mOo343Q0TpHVcDUjHjuOOyL2iWVbX3yvz6TLdgULddmVbHxi43YjJW3JELzsrf27RD8e2n2J9YiRlHwuIR7T53cniHlRzuv7baGGW2dSAdEjBCNjH1Xx1eFPefXg25T0hOpBwrFKqC47theXi6FKz86zKo9so9LHtzhrcov30W3uMbcob/B094F47gGcffsTty7dW9CGARAG168brNMKb0rv0jKfflfNI4lLE9jM8KOWxdgr5js2bXXVs/rwF8xR0sB8lp5xDsx9bb8qhTAEpnoB5sJLUBfs795rY08+c3fgu+qb0TXKSv/X7AInM+zp4a/4Mp59yunHofbTkf8R+gtGxykX+I5169Da2ze2B8Mh630k2Wq6+W07uRNqnXAi62R3AXVrG06fLCOO6eYN682+d16l9gJTZUnjG8ftodfptw/ct/7b1256f22AricCxwLLvvdxUFT3635S0gx4l37b8HYXcWzL9DRhR/2N74N4qd8qC6az7vOl98vto7qNtgHRoJ+YoSL8vfzct4+n35Xk8NIFRLCmjHMfc42Py1N0DGB0vg5sQuY+XUdfm7YdV71Uj3n7xj7vE7Ln0szXdeNLxMy39Ou2o8F0C0q4KUOl0dThpj9/3ojLKPNN1hFJrU2VMuY6deB1R5p32eliFx9qGq1avQndavUHYIT1Qg0wdPkTGwbz7ANI+4LGJB/qmtKzsrvTkO3nfdtGSBWFCR6iln27RHUfkLb3z0JB0FBCXuod3bPsBMfqN/AOgRV8e/JfO2zaESMf18ezKS76dPPsAEoLu0mWj0r9D2V1FzoG5qajs126+rFI3P/yLgrCEAR/5I/LPtILxRv7rZrnEx0oSnaR8+uZqZF1Y75iKdyoW+bpGc92OiXzvxsiyN919yr7SRTnXuognGOLjsn0RC0XlzRxkR/mug8ILXWO3jGlfX9k0ZKm0uhzKzvJJD55JWy5tXW9v05yLxrCjfCaYSl+qPFmH9Oy4KlsMclCzr7Ms/GwradnO0q4RskN+lA+dMnWpv7N8l60Y/UHNa7fqgaw/qZQTbQxe0uCseUjJ+hB+lI4G0Yj031ojuDun4rp39cB6xUCJwUs4htQSvzvalLoQORRQA9uAkkyRb1HG1JiBraRV5ZQwIo+UYgQQXOnOCYAWL4UL32zml19T8ofNZHwpsEGIMi9QHoXHvGsmSRPU+qJZLN9vFpPPNCNd48kHzXT8TLyUP9aT60kzEr+dldXZI46spcpdfKSyvtEs599UdT42zXUaCahoU5Y/px6CiQVg8ERyn0kv329GZx80zZn80Xsq8UK4mYqsYeEOyj5RNrV31FwqcKkWvRYefCiSruu/F6/abjBWO8cqi/6hSAHDcsQQU08vn4j2Qtjzgcr/bLM8e0/JqksDQAJhACLAQJg+AIjmiuHoP5W9UFmzb8r/lvxP5Ef/O7191K+89DHgsyhAP1G71c5m8m1R/ugDlfFUPOJT/RbqK5eJjNLlC+pQ9jSN6QaqxL10PwCIcgI3fkh0EyPOX/MhhA54NO5kKsxouS9Xbq3F1+Ft5e3L1ytjBUYMYK5z6aWoOTaKdOuKxpZ139YLA5shCcOSYRfDqShVXaklyiarYGQweqXwy2Y2+6iZvf5qc/XJP28uP/qrZnz91eapAOlMdZjOZs1YgMSQX0zGzVzX9XTUXC2fSl++oxlffFdz9vx7m/eea1CPpZyLCwGMgEvKlAox11RujJIx2KU8CzVovFAtL7/VzD/5Z83s5V82b17+bTMTMEynKm961UyW181UfH5TeT5vlrNxc7l8Lvh83ozOP9tcvPiHzfT9724mL75HyvpULb+QcBRLSjYHuFSeO0I1l0a6b932N818/q3mzUd/3cw//iuV/dfN9M2/bKajVwIYtXeqThvPVRc2aZ6pSZKr96WvZwKA8Xc05+ff1Tx5/j3N+MV3Nc1TytOltmEVAko0ElDipo2xAH1LVP+Fwpf/srl8+RfN1av/r7l+/fVmdPWqOXM7L50rbSlD2XiiOlwIxqbN5OJF8+L972qevfhXm9HT79HOAOTTn+pjlQ2oeEspZRWXuJLGrftCYDuyRQgwi4N6G5QU9ViRT585s/zH4dzDe1S15qvDe2Tdn+U+AWn/WtwZJ6NBgIH1wjRAo4Rx0jpFHK8GXlAiHwPZFpEyxLgqjIgSwXkBAuR7ugQgfaSEb8gI+kqzePMXzfVH/08zuVR4gtU0F+tMygTgafCCMVNNj6YCpdFzgdN3NpNnV7KOZD08lbXSyHJZPpOBoQINSCLJYVXxI0xtxrJiRphvWqsaCQib119pli//vJl9+FfNXPHxucqaXopHvpR6qV/9ERbaNYU/t1XWPPlcMx+9ac4vJPQZ5X5Gl6wzlbC0/LqDBKLqldEEuKAHsPw+VllfbWYChvmHf96MXv2NAEkWy1RlnUX/LAAkDm44U9vkz+fPdUv+YTN5Sl+IdvGZZnmBhcQQlFymWeogVJ5SfC9ssdFWWNQmAeHyzb9o5i//XwHxV2SUfdJMFupngRJAoW4KR/epttfLi+ZqcdZMaeP5y2b0RAwLAfJY7QX44QacDEhRTIogiduOgw961Ix7TxtwcAhwLUjBZCRpcEf1wEMDUt7/9I9qxFom/6QxMkAQXXs5+HJUYQFpoFGjIgYRmRqDDv4cmNfNePxGg1wWAuDEtEJTt/H8ja2Y5VyKMke9JHc+keUiQNGv80h5llLM+fVnDSSLmfKfyQpYIleeCvRM0lpB6cpDsY6Xyo0upXavlSKAUNnXuiayJMaL17KO5s0ZQCRry1NG+ecCqZn6ZTmTks5V19lLhVXuOeVihVCOC5Df5+gbtUdgPFK500aAoLLPRh81T5eSo7qPBERYkUuVrRqob1438/F5M55pijl+3kyumWYKyAUkozmgKcCmYRPbKNHvpWhPmxymXpSNvfOJwO9jlfWxrMaXzRP1wdTTOTqMiwzL5srrSOeSfaEZsmBv/KHoAs2Rppu+d3QmF3/54XJG+SECP7s7UuDEkcI9gkr4nXHZoPQfpGE5+tb7/EGq8g4UikUihWS6MpdCLnQBRoroIm0pS0GKirJyKbxYzIIGELVP6KQe3JG8O71dE8q0UsJQoKVkLFyOFNyWlNRNZaPzM/nUaS6eucpbqPyRyl9SD8r3lKzIvVFmTS+KyHpR5ZhK+nL7oixbSrRZZc5U1rX8pfqDfjLqYsHpMg0U7nWUrTQjMjy62rKzXgAWMLFJhpOHP6fbA8agrUP+Hur+7gOflUY9p5aO/Iu9arLjWzu1KJt/m2vFQpjUsL1bmZb8K5+FdOm8dB1wkKKj5CRb/wFBgEKACShgQSrdgABAcNkS2VTJUg6rvAYEldWCBHkRh1xNMVUHwGnuelAnXQV45pQLg4DKlVVdACysqpBSykd29ucNoCmNKqzbwTuZBv+IHlgN4CMyH5qlHeKHZrwl/1tt5C3run92t0qrUFJWFqFHWoxe5jSCPUZKHykNYBqzUA1JT9ImWp8hmfRwRfFvKGHhQWaiTFHheCAU0578i6wQKcUGBHB+ZERAwISMAigBLGtwANPKtWVm2fj9DiDEAUwlEP1gcp1fYQEWNaE+cUWWzNfSqbf7El4LqhhLvO2/KmkIHtsDD9Kb+64hPUjlju3Jh8oHpughmtZntThuQFK3YdZI6ey0fjoBgNTr8AJIE3ih6QKcbLWgcAYKuGBc737AI6YmWChitYKGUgJ2lM/TRfNYiSVHiAfF2w6Ux/Ur4pcAKOW4mpIJ+5rOkwAhrzpe8mIxUTb1oe2yeOyLNqa+TB8llzaPXSdXnFINxtSHeiA5HflcKWSTP0GL/K5L0jKHLK7BVMrOODVfN3zt9vbWz+OwN2UzEcGD29gDRUGtMDBpKiIF4nLHWZlEbnsepQqlbJUMBfS9k0KmUooSWUoadMtSPGWqAHhQeBtk/EEWl6ywAAOxl3T4/CBL+WyhOTPyw3mKaNnQ6qsARdaxbavYxO/yAUBf1CXCQS9lqT6urMo2AFJH159yakdZXLgsN2LD35PvAd3Rw1yM8cPywH1wQYcX8fhyWHVYN9GvOQvKSy3i6tm3rQMsBKwf1k9inUdARbysn7DAvFI4lDKVj3AqadJJS/70ATzRdUe9VlWAAaRxHCm6a4SxyDx15Im3ZBugSlrcWNW1HRkq09O8rEflG6xCLvU1nkkisjHqxviUJb6YqiqN6Wkpi1G0BJhKPKw+2oaQLCei1LO+YiqsvixAtn3tK2UM/lvsAd3Vw1077A7PalA6qtAjynokWaTI+sdiLs5rKF5PATR0+cmSYIPNmqKwhmPrSfztuo8tIiklCllZR+vxdeW0orZrQ7VCUwvKFkcBj/VwlkEehS2jhGGUy2WgAEjSdAEwWTcAoXWkh1uVlzT89Xqz4TJoBVQtswiwV/Ort9wGgI98K7neUgGokWcYke65B/zDHTj6LtwGkLptzkrcqkJdoY8nngqSNe7GRWfO1LqSLiVEubX8rZTOVRQwQAD+kp5gQNwiZYlYLuniAhCFJF5cli+bTRhCfp5iCQR5oqU4T9u82K0wtNU6jcUgSVeW20fLNPzgNMW744HYeGoG3PqpH2VjKQKSKpM9S64XdSk8UeaaNEsOCFeQhmJ5waI8N10A8E36QLnjHqj1PHX/1kXEfb21mFZAX8X6aG2Gdy3g6YoUZplTJU9J1M2Aiy0LpjExbfFiLx2g5JgiSUENAhUQKE9YBtCCbvAyKCUgIIQ0VDSU1EpvCsoftwBQGNl6gxfFjfxhnxFPWip6p8y2bgiO8gjhVpZUyhFRwATIhcUIKAVIKUCiMlFOXFkvADNky28BOWnwEsalH7Hh71vpgT5d7qMdXZm7BqSjK/IuZBQGeX0EwJlo53Gsl/DoX+qjncNeS+EJmNdwWFuJtRyReN82XPpWuFRAlBwFzDjAAntNI0Y6Lv2I1X8TsIK2yr8aCNDyQk6UiV2T4BHpSKhp4lO7t7uS7sornL5rTjwBMWWnv8673r5Ic7dFp2yvwpB60j2wGof3X81W1e6/qIcqoQICKUdMw1QXFKVPWUxTWqvYhGUjtOtBSsESMl8AQwsKWGG+e8rTrv102p3lZtm6Aywor9amKE9RA0nWI+Xhkxo8UW4Jr9U7+SQHWUrzQjNZkaurfroGaNuV0RDtI1/2HdBHOK/C73pQfuGjDsjKtiXb4N9HD5S7dR+i12Xm8Finvt1YNjb9t1v6HZaGuvgJmqYk7EyOCZh+9W0ihR+vTAh0/BSOaYx4tX7j3cut0qFsKB4S0xGuaS4tE+3n06t2/w/UYplRBcAipotYZyqCR2Hu9eJbwWuRpXwrfdYl6wFwIr/mJ6xjRDxdVespT5encyqLvUYuEnnKu3qSR11CFCJX7V6VtQ480DPNGcqfAlY1aQjv0wN5F9PfJ8+98MT9vxfR74DQMr4Z+ivXP+i5k3E3+YUPx5oJ2uhNgvKJ+7UKJcfUKRQrJEa4ZN3hZQkrNiv9KurQ6kkXb9KzbkW+9VueFotqWXKrNgLL1hLByqHeIbGlE2dROhKyBfhMu8LxEvHC7VfcMpFFzpBmkAGIXKWsF2VVPMlrkUGHo65iW9coNmDbr6qI3+2mrgob/JGhegYilxyDdyo9kKPgVOpzUvWQCoc6hB5srBuK5wFujlTsDnuLGPnEq5NuQNiQt8vaxgGArJzVVDqn5WwrXsgyKHnqxK3mUh6lk7OryGqEqS1gwAXouAwgNMJ+OgcoOEXwUbYxQDDgGnj1cF55/UIx5QkQvOeKfVfI9HtsSAhHT9eDEVCiReEoQxaX5RLW5TaEX5jkSQJClDYTz0KgJJtMt8Y7tERX37tc5WMdD1ASr/6sRAyhB+2Begw8aEVOtvB9xmrbixFItV5rk62ToKzUcMXBVGZfJ3USa48UkVFUaaxFtRjYCl7l4akW+6E2KyPKrFT9yVyrJ4AkUAeu4kqZbVQBc0hAPF0L8PAUNVKSdYWDppArS0w/ywpgi2IFV1XxtrbIX+aBBiwY1O++KwoCnM6bYgEkuYw6Mvx50B5oVelBazEUPvTAjR4YYOJGl3wKCAMgva2bfNNcObrkWO/ZdOs20SmuLy2shI6ZIt4yXa1qGTbTJv6KsS9YWzMOpxyYCXfrVsdr3j7hot1h/24oYSC/hR6o7/pbKG4oInvA604ZOdrn9qGsXYUut9VTsiK8Dt8oLxW+64tRU6BqttnmvJ39UpdTD0HomdYWVQKiG3Qyvco3gFG3sx5tvLqrj7YNj7jiqVyHNuFmvj7QOExqDoX0yR3hpddaanqWn/4hJWWefqBbl1SVOYDOete8o7Hqjr+jLTyFZm1Tpt40Ka0/iVJXHkXmdqVC42c4+arb2SsXvuQpebuWUzu16vC5iG75Irb8Ztjwx8cKKC3rm35hdx06tFYS9DqtG28Zh8A70AM56t6BppxKE2rlUfd2Fb6tZs2nsAEklK3dtGxFzDQyks4tC7nBJ1r5lhscXdc/Nczbjjwc8ZSNn/TwR/UORvGu4srXAl/KVO5umz2/g5f/KVvFWG4Vz7a19anTFK7rYSCUzC1tVwmDe2Q9sBpFj6zip11dujWtgm5NV3Q2DQa4cKAGeUq8Cofy13TkacEZUsvvCAQpaHh9fxOcwqghDwvXdbkhJ/nWZQR/0AgrX1pHNVBkJtJasEpiyCe2BkyuA/VIV5cFvU7L+IrmojLr4D/qHljd1UfdjNOqfOrpjVp1LQcDSnIVZW2nL9wa0VqlTmVmkx/0VMwVPRR3xy2Nr2NKdp0/ZVAXwuUyuGV8lRaYl3T8/VyAUJZLnm7ersw6PdP2K2vgepw9sGP0Ps5GPVytKwUClW4AkGgGmJWV1Cq/Kx0nA9xUVG5TKmTeslJWAY3aMLph4fTVw+XVf1J+TcuyoNXhbGdNg4d21W2rw5kHvsqt1Q2eIvMG4GaeqKdBfyPyJ+/gP7Ye6I6ox1b/E6yvunSXoqwpYd2EWmkVNnj1PI26YTUVGb3l1qCQyt4tsx4GhEPpzXVjOpa8WdeUmXFyVWWu1Yk2kY5f8xOu41kGvLhMK75lwNPlM/Pw5xH3wHBH7+zmHdOVmadWyFS+umJJS7704cm0mn9XmHJrGfATz/oQxxXZgFIBx6B3QbKbL7iSF7krq62uL/k25U2+TA+/d3sDdUvgWwO6uh5D+DH0QN7tx1DXR1VHr/PsVeNUvJqZ24KS1benDte8hMV7Y5uAyHspZymrI3L1pK+TkCDVJWd8rzJh7raHfujUpZVV9xE8dd46jNzBPeYe2Pe7bI+5jSde9/xp71YTOitD+yiceKtD3VKSPkWZwS0+ZazXwTiQGFB8aBFc5+1kdTlr61mi8CIvlo3z6w8Synut5s82hnxIq1BhWOPj4DsdyLniqs0mwm0V86xyskNctdWAyykIcvTS+iya5Xfy6pRPpbW18YmW9amWhPkEuaaobZkII0959ca3oE5U+lan0uq2Ja/qui6FtuD0wnGp4LgF8H3ue+Q+tb8DIN3ZHckBEn57WuRW+ZmHoVZfhe6BRpgAfuGxNtX8qdIrP0bp6mwiZbazZOWPoz2QkY6wUl1mVQ5v8VvhS7q42KQQGwZQEjYOWKoFcdwJO7vzsf5Yx4ag2DoJxCeZwDlT+rnK8cmSopeX8l02xbMClTVPyT5MTnqG5Ik0kDzUKFXPR4kozmmY1In4pJmqZtS1gEj3RAIE6JgSzjYf+wufCICIA0R1oe2Q3AcCHwHQormWT82maqtqOxZwLabRdaLCn1JgMzgV8HN73MfBl/U3lxKdr86PPNxcmfxfifrxoY3UKe4k7dNdMMrrgDy3cyXZ+csfnwahcNtfdeIJhAdAutOb4OHkgbManT0FjBnY5yWBPCWfhpfHveMMOJKkfAYgR0TwkF7l8bjL/CLLwYnidl386q+UneNlgw+Z8HMpjEwFSWOoAzJxolBJN58S0heZ41PQXcqmEeQZi0AcXZwIkeZFR+YgTvkemxkQyyVmbJKIhrCsmb9sC8joggNrgI8HBKghWDWV5xM5xcEJlFOJuHaHcg6S+pwvq9hRKxVnlJyLl1L1T3UKoKMGNEOle9osfuVdYA01V+K89F1YKCx4FKOuyUUzXQBMWi+j0nLOWtrlxtEyRJV7yIc0hYeqdtTHpcJS8ocUBOkiH+1TontI1hpfdQGY8HFjASTnP2F+8q/rfIppAeUJJ4m2B7l3OR8uPgDSPfR9OxTKr+JaEVaQoMSnojPVwzG0F0XxoGVwkc6fki7f1pdHbaorPNCJd0ZzZoNFLg9Za39lXcdkkq/6xSeTJEfFo6GRWvFYEnEuFCSdlETItJAMUqADHEyvwCCajlIBTMwu+EEHAHDmL5nAqmhJSAYOUTmfzS0fC8myJATQi4LIg4IqPp6LZyqjIqdsEihFHOlwOBfodkWhHPYGMI34faBQ2s8BcsnjminiHxEsIyykmaiUNXF5lAJgL0cX8iWIxpGiuhlEFLNsZBZHUUTpA4MSBFXTt5V+IGKfME5tFg8Hy4UwErmbURc4ECH7SH81QujYLIREOZ8RxUF3ErHka8L6d2puAKR7uSOMhPw1rgqw8lu1RMzRJl6Z4DHFi0FW5Sh8Fa8TM06Esuq4xGkwtmM/x1xhwXLoqZmkUIfi0HbnIxMXZeCKEPk0BUUKl+ndmKwP/gEcLW9IQVGzaiFWMQjJZ8RatQ4yyVyUht/W17UXoXYGEIY37QI0s58kiYojAGdhEXGvuVGS7CZlKfIBPjqvLTVKjzsXfFF1wnIRCRABjS0S2ybtI3Nt+KPMJX/LAMCAJDjqBspHJeUjkylqOE/odDImALR6uikuxeeiezqbzCXPqXgDIJ3KnRjqcUc9YCS5IUuqeYO2TiCdC00NNGD6lW45PpdyXwiXrkR6UnieCmeeCgyeKX4mfLipTgDvJhc/ArJUKBa+9pdCBJuAVU541hwZuKgrtk4KkS8S4MOVLteM+IFImzfTTsm/2YOnVLuhLkMPHNoDmGKeMpFR4GRAEI2FYKZjzHvSXLO+FsUmj+MoNlflRI/pl0BH0zKtTBWlfiofcHoaec1X8oEylRhgkiLwuXCumvywmmRFKt2Wo4GJ/BLoOpl97U+I5i9WV5o7QV1jhEN1Gdu6W0+pAWs95eFiAyA9XN8PJd9XD1iRUzlT/buaXeI2MpI3KuR1nKyb2TQlAmBkITVLrSGNWEvCPREcPJMlEthBsYc6amdgqqtA2LIUaEGpZqAU4gIa/WOKlvGEuQSbBKO0kCYTgVfpkuRB2qm4AZBO5U4M9bibHmDBG0kd/Q2wQBMr1AAJWkQoeUoyS0Z2oA00+EybCgIuTFrKx+zx9qQUm37k9l9mfiliRY51H+AkqiAmP6oUr4KrxW0VmnVpEU8EBOY3rFqhNGjdAViAUQISqTyZ5Iswrbj1LA8au9mCB63OUPjQA3fTA+gwgzt0GZWvnLS9XtvppMam9wSBNpsQQP9HS03b9Hjda0aEmV6JPmYxfLXK74JdRsopvriMJfiEVmUDTKx0JYeSyZP5YS8uZqSGGlHwaSl1IrcuqiLA8eeqlLQCo1hXyrT4OGkReiLeYCGdyI0YqnG7HkAlw9IIyyOeinVksnYEox1rSihriaG4CgIHCRJrWKAExzF3RqH8bI5nh4bBiIyZIf0Q3fsXdhwQkuVNMLVaK0lWTTJRUde7EFxxcucCfDzsh8L379hvxHQsgApquPg23qyZzcoTuGx8MpyAPwDSCdyEoQp30wPoLCrrdW1EEinaHptLk4iPI5G9RAVLJIAtSFgYOMuKYMSVxh7I0fJcaQIJMQBG5i95EpRqC4zMlCTO4lsc2U1N/CIOD3H2G7GH0aBkMNLTsZZRAQSKvrJ+FLcLqbaf2NBVHACFZWQwwpKTiJt5k/vh/AGQHq7vh5LvuQdSf6MYa7WDLVhIL1FZwIo1o+QnfW1hu9Qz05mnxVZI1pMCG0hbpVcZxMDTvZULaCp4YjKpbZyCKZ+66clYgBKS4cBRYpYmn8ylYKcIjW11FesH0AGM6gv+6VR173nyRgkP6QZAesjeH8q+2x4AVdKMsKKionmhtXmVYpW0zO0A1mapPTSS5RuUPIUKq8U0gGH02gyT5rktmTE7vSWa11soApnsFicaeKGAnOXKT2iBEumkBpW/+RA/aUstXgemhRy4S40IuoUpE6Bk2scrNrgEJEdK3KtOAiM/ccuEE/EHQDqRGzFU4656AHVmpVlTMQDKyywoZ/eK8rBe4rE5ay7isWkihTfCyJemh5Kj3IKBscBo9CYyG6yeBxAVuPG7dWPed+O9N1AN1oJ2Cnk3OCQ5QISUdAFGBbayKi6D9a6as+RIAcrSlkA+kgsgRdAUAxBtAbN5l+0U3QBIp3hXhjrdrgfSSkJNPT+T713XrdpKXwkX5ykbIOY30uQBClLdZVFasXpdanKpAGCUgKR0L3KzMVJajmWkF29HeunWewGs9IABZWV5aRNlHJDqOEyzZGvnlwFXLWdJN2sRBYn3h70OVWj1OhHhkV4kpiqEZzNA87TcAEindT+G2txJD0jjUqENBICCrhaUiraKippDXr1LCDBBFU2A4pMA9Bb/Uq+MjMafiPpS18cky81E065tXicRDy/gjkZSctHCcYpAnCTAESyLEo40yljVI8JRblt1cbAeZExyEik9LkXJv9aC9Zg1LoUNuqqWgSgtJi900x/ivc569sh8INIASA/U8UOx99EDKHgqLUBAPICIl0+t9Gi3Lk/QTEKbycNxHoR4Vy24pclFmUXyO2wfKcAFIAFceodtrN3ayyfKx9EfkmOMQRIO9WLhW+cm6ZrqfbdrlyKU8FwSvlJHhQjHczhoKcMJ5Q80Kk3+jlMST/tsMTENFRv23gQwxbwrLi0mFrlni8FCyn4Z/KEH7qUHACEWfP3Y26YF8QQAFF1ABSBJYZf4ehTuhW3nmgtmAKQZr8pKCv8IAARM0z7U9ffFR5l5j00X77exN4npkGCHnBxrQngkwGq0o5vNBTEphCcWswNYKCP3EcFBHeVTcIsjKp8nYqCMsQrkcc3MZpLYTdGa08iWneJqpNfIdOyKl8bEkAvZ3qs0awtQ7tNwg4V0GvdhqMUd9UCqmD+w6adTqKuU1OtKgAFqmwBV7BBrMqDD4/w47wjrwhaPYQTwYbr2DV3f1PUtXTqHaKETABaCroXOQZpLlSY6C8kv36rMa4BQQHVxrb1LAA3vvVF61pB6ceFi7QqbLlAInzTVSWBoMCHMAjf5vcalYOUsScm0goVr4xXsYBt7kOClaAUAqbkWmy6vtCZ2Ym4ApBO7IUN17qAHmKagfK1W8sZYDUap8OGHElMutlScKwQwcXFCpK2j2bd0ltDXmsXsa4oDTFq8ngFGZ3rCrymZNkvGKW9PhAHnzdVcaZMnzXT+QXN2MRNWMUn08zotkLPKI6ABbCQJR3VXdRa88HhP/EE0nMC2n0uhLTcEtibIB7kEUixov/oEkD0tNwDSad2PoTZ31QNFKVdgY5XEdlAJAievZGPFYL3YvihwIVwRWAAZgE7TvBYIfdzMXn+zubr+ajPTtVx8TYaL0nQW7xg5nIMkawmLaDHiSJKLZja/aMZnL5qLBRaSgO5MZWpaZ+tFU7l20dlWj4rRdCy2KVCXAkAGJepdO6UBLIFebUILWaXdbYICGIfR7qDy1hy7tj959apmO4nwAEgncRuGStxpD7CI22poBtFUlB1fF2synsYFLfcHxVRNmxptHb1pFvOPm6vXf9+8efW15vL13zVXl38rmqyk5WtZRrE1YMwh4bKUFj6sTQe2AUrjZ7KKXvtVk7Mzqdm5pm9T1pL04YFSBeoxYR1LNVrwUhz18joR1pycSTSkAqmSQD0BVueFlixFjNmqP+zKZtpqo7HQPxkspKqHhuDQA/fQA+g6KyYLLeyuJkSs3ATwhOZK4QUEEVbQ+40ip/fwGIx4JH4pq+WTZj77qJm9+VZz+eYbzdWbr8ti+rqA440AKR7q+0nWUmd4L3U2ktaK5qMXwrrnzZmskMWTc0319DRu/p4AiT1KT7RgrtrIMloIILCYvP4NkODwZZzFQrwiSc9Eqq2WeeOmrKR6xzYpUDjTPNaj4Axk9hqa89LOcJeXwxpS9sXgDz1wPz3gFWCUTorI2/Mr/bNqAgCtZSRzIU4SxyJB82HG52LKxsK1gGl+KVB53SyvXzWL65cCpJeybKTMsHlvE+xnskCuBUr6Eon2Ii0mWn9ib9JCO7nnmhqNUH7WpLC+eP6GZVRZQsiSo/pcuCVfQzHo0JagGb0MLNE2r40J2Axq4sm8NHbtHTrlyUf+SAIQr65YHzstN0zZTut+DLW5gx7gFY9AC+wFXvdAoXW1jhUVaa8sI1sOuSPbAIG2Y1+AANpBJA8YOdN6juBG+3r0JE6nRo4V45x9gIWJE2tRfBSJ5XN5yq0l7KXO3F6+UjrvvrFtILYUGCzNI5Kcd4ETgEY1KRqP6ZtAk3+0yPkkN9rGX6iyiAxQKpF1JYdFLciEx8yUfUe4FShpUjoAkvtk+DP0wP30QFFGLchIPsqsc3+s4aG4USjaDiPWSQl7+hbh2BNEOr/V8sfT5okWpGdCpoW+Yzaa8uYbdokuJU/1+HwijWfz4VRrSpfKowfqAgltg9RrJlNZRhO929bIcjIgCcw4BtcAQZFgSGCYIriCIARJT4QhiBNzZJOF5aMqTSSh8CsU2BP4JXlgEYvY9dv9xK+GV0fovMENPXD3PYBhEU/GkC2V1WscC3+MkxQgpHaoNNM1plTSVnnWfQXSMrKCK7YU6mBVnLPmI3DD8gDkprKb+M4isDVhrYjpGRgncLrW/qelnqhNBUgTvYg70QJ4s3yj6V8A00iAOfJLZyqbggGQtQomXYmkeQG+TD9VX+MnUz9ZditQgpHaR33TImrXmoRKCUqkzQVGV8MakvpscEMP3GcPMEfBwGGegpbLorCVZLMBpU0HEzxSYkwI67PsHs1/Rn4UT7oQplhPE/EAIkzZlvjKAA0MmvB4XruhyTHlaZZAbD46k3V0pXTWjlgc17twABJrUryygaUkUMECS0DyU7A0bxBGAo/FJB5QNKw6HSsNQFVSC0q0RZnwACX98ysjMMkBQglS7EG60ntsw6J29M3wd+iBe+gBLIgCOLzg6pc/0GQ0ErqU2EpO0Qr42TvhcJFVMCNA4mqmhhplV5jsiAdH+PqtjoBFLutF8RFMQYUe24+Ze7EQroJ44ZZ1Jha6l5qujZiyFTBaAkZlFRq8MeAYQBWmrEKjmm1cwdoJXhSlfWLm5AJFKZ1a145p2lIfh7yWFYfjnCSAiRdrAaVTc8Oi9qndkaE+t+8BplUsRctKsZoaKIoCt9JtSoTCJzixFqRH+X6UzueCUG/FvRZ9rWnZtfZXXxYwAehUDp9DRzwLyhPWhgRgYyHXUlbRSNckMkuW8vkSmBmMVJ9SJWUNNJHH6yHUPoHKoAT9hlMmW3Ils0EJ0CntKkEvYvvdNpVLqsJ8Vw4ria/YnpoDgwc39MDj74GihzZjaI1NHkCD6Y2U1nGFzJfMKHNxwSp2vRDrL4vIWmI6BFgZqMQ7E5PAZCSfdSOesjF1w00lf2qrSVaHrSE9iZNFhJWk/QIqH2sEAFAmX/KyGiXYRimvqlowtqnizkT80j7LpKWy1jSFzKdsYrBBGH+k7sXqYj2pU4hZH/rPYCE99B0Yyr+THvDSSqWz6J2jUu4gSwEBJawXTnRk3YfpWOWY0o1YA7LWlnwhRLQAAXJgmEzEx6yOw/hjnqS4yrqyngsWhCgsght8ogJRIZk+lGFk9HRLLOBUXRXV0xaSyKXyAaRFDlLX+InLGZ4ENBTLVFL//XZ/7NCOzIQBLZzr4dDp/BkA6XTuxVCTPXrAymi+UCqCgELsPSKyUryJNJ0nYWCPscjTOK3lcAwtZxrp5ddGL8ViBPmRvmWJV8wTZxBSaIPjcnKl19bwNW0DgIRcC6ZIPHZnKwC+qrPUbm2sjrnSODeAfyx/4/tcbICoTA+9wCxeZlBcHAdiF9VvtINAchUBqEAYX3AITqiDnJ8Sqr0+iI12u+1kKEH8IteySFAy60oc8n9+rheCT8wNgHRiN2SozqYe4HddCiwltjJLR1mKAXBWDmCAwHSJtRw2Cyqqi3WekeCBdZ3GJz++svGx9AmKvBRLumRyOL+nP8pgANPaz0QL0wASwqTQPInjI4szVeBM6zDQATH9bZZSdACCp18AhkHDJhSqVsACK2YueaySjwQKIntpRxWgVKoM8NlKokwqZkclvfVyFUe2yjIL7VVKvrdGP+UhbNA4RxuZnIn07Nmz5tlTHb17Ym4ApBO7IUN1tvQAmrrRSTEFOEILKyisY6EMmxdZaCYVe6UZ8xiet9z1CgjqKw1Y6Dwj9J49PbaClKqYLvELiEa6FlOFpwIdAwXTHuyvmdaNADBgQHIEbgtZT1hHbF/0pgAByIjD2+SzNykWlcWMdcReJCoWaGIfPLXFhkiFVxs7FV9zlKrMgAxzTeogma2DRBSESweN2gqcnjy5aJ49f54pJ+MPgHQyt2KoyK17wNYRloqcwtZzBR1Caa2wpOYTL3xpviATSQAAQABJREFULNMzczO5YoqVKCEJmBTlYvf1kn1D2lKgfc4CHvxYzEYG0zNAbi6QWGhhfMFTvrEsoInyyB+RX2EWzr21oJTqsgEfqkiN5JeZnWJQ8lIwWmMf0GPFy2Akn1MqsYjAHaZkTNMAn3S2LBWJUyPPmxcvXmTSyfgDIJ3MrRgqcvseAEhWJoGVW9odFgSKm0CDkjLNQfNRaaUpiD+SyTTyHibWV3T5iZvOOuLcbJ15NF9wfjZ0np5pV7ZNGqZfPEw/E0ydC+7ODFYA1pxTI5e6xrrIB0hhMXHcraZaRg+l4GrYMYEqm+pYzx9VmoJV48zMfii/xgJVgAT4AEQ8VeMinvTng4XU06cDaeiBe+oBT8n8ckcAENq/1CseBiL/BYxkFWEkFWwAjLBzPJdT2MfU6rA1ToScC5RmAqilpnhsblwaDDSxY/1IRVyqrCtZP5dYQso71hlJcw5vA4gU5xoVQMJa6qKRDTiDkJLsgCjcCmQjzl+sufABI6acTB4NTCyukUUMgA+A5N3opBcHnXWkU3ODhXRqd2Sozy17ACsIbWSHEJdAiMvzINLqS3BU5kZeO5a+xpQtwANQGulYkaWBRZYRVpLOPFosP5Gv9SZJY58S74uxdoR1dCXQmQNgAp45T/A42pbLwCR1Y28Tx4pQHwBCefFyigawOSxatKMPjJwY+SuQAV799M85NaETYAI8+FqtkktgMkNzcYHVdlpuAKTTuh9Dbe6oBwwW0m4WocdMjQxEUuSc4liRpf3iARoAJJ6mh6qjFoCHgGTOAWtYRE8ELgIjnQbJAWze5wN68GqIrR+tTOmJGedpL3QI29KnR3K+tqwqTfUmkuMpGhYaL+ImMFIliaFcoId633RQw+SJ+sFBxoh5IzoURVk78mK8/vqRP0W1TpYcTwWVl7Wv4bF/2zFDYOiBe+gBL06jgShcLDDHtI04yksa8JMuJm+esknfUehwBDTt4qB+AVEjcBkJhCbT93VOtg5qY24lgBmJ7i0BHC8CmgmMxgKnidaNlqNnWiZ6X2DzQmU/N81fJ/FeJeogfhUIGOEMRFl++qYmRJU8bgcgSlxXJluKqqN6YK0xpQR6plhmYvOGSPEa9LRlgddGzs6wBE/LAaeDG3rgHekBpmhawFVrmKLEdC2mboCRv8dWFNoNBoQ0P2IrkqdsZNSFjntxm4P7tYg9Hr2nQ/o/oyOxL5sLlJn33GQt8cns6VQHtbFHSeDiD0FylG2xkqbTzzZT5RtNXwh7tF6jqV98EED5WbQyqLgwgYiSAKIWjKIFomxwwUi90yVkEZ/pBWBAa3nB+3YCXj1tY1GbtSRetOVp3Nl0AKTsu8EfeuDOewArCECKtaO0kFLLKx/gkYJi6KDQrAPZ3hAGAAxOYPGZp2Oaoo0n72l6o/1LyjDRYjRP2hqdBDmWZTTWRsope5VkmfBUbabp4VwXa0dYSGdPv00njHyggp4LtGRpCazCUgOUMF0kiiK5AMMaVcKeUUq4AkGqa2YKCqnVzgWhcSxk89nLqT5AsGSvkkCJjZHQvBVADwnHbNI6MTdYSCd2Q4bq3K4HWFaJh0yxfiS1k8AAHyTzBgbKzyQOp5SIE0W/QanW6QOQAMmZHugDPDo5csF60oL9O5q6CYim+ggkp0jGlE1fFNE7H7yDO9O32saa5p2ff0ZbkD6jHdzvFSuJV1WkdgWMKIqiecMDC0m4IUcdoHadE0UM1LJ1JFbAKFMih9pU2sGO8hFfR+EVF2HghEV1pdX7k7qlPGR8AKSH7P2h7HvoASmcFoXQR77qgWqvNFaKKi2OZ04ovCwbWQxw2eoQBVXHUvFyk/cLCZQmAiAMGn3OaOynZlo70nlHvKjrI231jtvIn9GWFD09O5eldTZDkiyis/eVFzBiV7SmgH5VZAVIWEQAKOs91DmghukalaD268BEOi59wutgFJR83O/9R+oPvowS793hafNntWGSHKfiBkA6lTsx1ONOegArIyyklTiDkqK8huHXNWTt5CpT+CteQlZwMgmQAkAECtJnWzUAEovZfidOcmSehLUFRAiQUHQWuI0YmtrJwmLax6e0PQXUtE5LzeYtD8lURlhIgA8WWwBR+orKuU4ZclJAUvx1gnngc/Gekq4sIR9HonwAFXWL3dqR75T+DoB0SndjqMutegA9DQd6rOyLUNpIRTFHWtTVt4nEEZZIvK6qPCsBzm/NlUXjaRR/mPP4ET+P8LGQ0oohI1Bg1Iow/CxiJxh57QiA07ROfJZJxWBT9qXMsoUsrrGmcqx+rWq/ArwEn7TmWuwSN87TUaqpf2daeEdKOiwlW0UQ4XEFMvV0/AGQTudeDDW5RQ+woI0DGvLyVI04iyxecCkg1IIR77JBwxeYIILM6SwSkOEChOSZRxCmdZk5CKALC4cnWVo2lvEhXonk2GztEdBUiYVx5WWRXGDmerJ+hEjlS9Dg2aDPaBK5roSrEOaWU9r6qdAEqEgof0sdRwIkiqAAQV376ohBqbQx15nW8j9wZACkB74BQ/H30AOcT4S6emFXYcfls+FIXyMJAOLJWIRHAFRovnzQRRqbcXFjo/AvUASrR/Ch6ILd2mJl03XAUWwxACi8Y5o9RwKyia0qXicRkGkqZcNKKbUzUKjsGmSiCvzNNa7cf7TOZ6wtwgoerSygyF4X5fBgId3okoEw9MDd94DPGPKzc2wPAAgfgAGkACDiK1AyQGHO2NJJsAgoEKOc+PUfkQFKTLuUzlv7wWA/NipCYVGdR+wlrCkapwB4l7Y4Wd9hfRngSAftbAoUIZMU6ogDeFqIUVg1QK7bp1SKwBVhrmPSIkXtB18TyESsES95TsgfLKQTuhlDVW7ZA0zNUjnRW0ek3AYjlJwnaglGnHFdrjE+VpLgQOjQWjDIa11AQyw7s+rE9Isygo7kPLaEp1jxPTS0vzzpK3KwrFytCjgIBoBVxMJPflyNI3WYtIJPybrOrHSDmOdvcJ+2GwDptO/PULs9ewBYmJd1FYAolDbhAmABmBKcsJYAIMWxoLTgy+FsbG5ccnYsILOm9RFZ2CTxak8FRvlaCvZLyatQhY1tC1owaim7AmF3hcWU8gGoCrgI1ri5S+SJpw+AdOI3aKje/j1QqammKbw6Ea+RYM+spkJob14AUVxjL8SILoBizcjrRgaw9fKhrwAhwwARYUqMWvRiBMRIVqDr6hwAkYCydZ6sORbrRSEIUXWuYGgzPcrAAEiP8rYNld7UA34LX8rM6yO2XdipbGZUV1euKVmViQNaghGBDxeP5G0dkVQsoiwrwAY5YTHFmhLgQQl5RTGZp/bJtQ4zmYrMOgV6lpE8UKIlUFahVQQakvKvg4/szwBIj+yGDdXd3QO5agM4xcIvUILCo66p/BnHQtIHIDXHwr6J75mxJwhAgDdVv8BJCDRc5EkCwVMWaZQFyca9wBTFipOoLinrE6VQHi7LjJjzOCkgMLAreAulMGb+iD7GvwMgPca7NtS5twcMKEoBiLhwHLthcHDs5p94fB9qzcJ0TO6AAML48TdyKs57JRVeRE5DBsaWkyJ2s6x1Sk7uEhgzdSU8pmdJz2Ir6b0Nq9JXWR9NaACkR3Orhoru0wPoKDufASeOFfEatTLG8rCU3SvLKC0Wjbng1LM3ONjdLPsqrSCDGqs5gEZwW5JfdjNJf9iTpFya5wFONRysoKXwYsC0T+5qmZmeOWopJS29yKZqEEAgV7iAOOhb8ifzifoDIJ3ojRmqdUQPCECYrqGOnHeNettqAVh8kZKXUxUXCHGkrHyACaVOFQe7gJmlwSaRIC2bVHuV5wxK5zTIxIL0XWIrkYqJkq4OUx8cGTOsoMSuYoV/DYxgKHTaqDY4k+Uo+MjcAEiP7IYN1d3RAwV8AAkvNyvORyPDyEHZ8woLKfYVEQ7riA0BCRMJBF7cFihhKWFTof+RxnI48koOLCWflS0SjiT42WJgl5IT3CCaKZL5q6TkSmLGA2IzVpi1/hXPElUjv2undANT5n5c/gBIj+t+DbXd1gMoM/oq08ZGA6hh5GAqBego4kdogECAEFYRMIOFhHP2ovP+DLdowEfm8EI5jMX5RV2nOqeKkF+O9ri5kF4EtxIRkuCk8g1GrnBUJAtJvyRFVLLcyFKuiTBwdUAuMjyKvwMgPYrbNFTyoB6wrgqEdBgZ74jx6oQV1YfrM+QBn4CYOHtbfFgV+u837wlKBqq+cih65RJHTMqIZFpMbRGRVoNGSoUHmcpjq64qL1kse/UH8notsND4F+UHANKuDQJWok42NADSyd6aoWJH9UBaR1JylLf93JDACSBiisXp1/6qiHzOJuKySkuPwQbCvF+GXrOOxOK4nYFNQOJpWQCNjZRM1pQt+PSX/AiwtFYARDmXEMHyl3JD7hp5QyTkAkXecR61X/GWuq8Ijyc0ANLjuVdDTbf1gK2MoolGFY4CEfgwfQKMWHAWoDBFy+maN0EqvuAExSI7YCYgA2lwt05yV+s4sZbktHahWgBhBIOakhKMClgZREjHQpJ056WklUtcW1HElhUU0RLLdG0FSjAgs2KsBTyS8LsHSP6p4QbrxtR3sdwQD1nu6NoYyGHHwmW5oZbT5ctBxo3PgRaLpmMNeD46yAIqF0eajjkILB0DVYevc676mX5+r1XOQhF+wb3oaj7x6JHzkp9kP3rmiU/+qlNHdsqobCWvnjxHnZ2iRzzoH6enunlZRT9qQkWSQGFSKFcPzlxj0XDQkRlLnRsdEigTZRUjCuAzfcK6KMu7lhhdTrrYVT+dFBSP24uiLth4SFJxlEu7lwYKVdbWi3x/skdluji1hUVatSmsGqX73uCXJ2EuL6VCLgpJXXWkCIvQbHik7gs9mYpNjxW/gnmbaypiKaV2LgpZtJjd3zm22oaJJiY41h05a2rG8bnWU03o/MmiTG4rFvkByFhYT3ktQ0fK44i+Y4DUdzMYDHHj85ZkzD53u5ziF3x+jiJW/fYIVHg3HH32Bxr0rSveEB/N+WQDJwYWBZAST/R1h4kOdj+TP5JiTRnpDFy+tT6TAL1bxSDmkPUL8Sz4xrreGB+dixcA8/PiqP9IhS2tiHzhQtMJyfLRPbxFTmUkc+TFDvjFw5cwlHYtNJoK7LxUovpz9vxUoOB2IoDvjElJveVP+RHlF951eD2HifHJn9G1Pu9Ds4oSUUtkj5f6OOLkjfg+kRwAi6kO1oWkqQAun8YotMEqGc0DAGaiA5LzMu+ZiPFMfTCaaej544kcCauLz1PrSA/wFkfdlkqHxBrJmLOFdM2Vn7LYX6RPiwVYKj0ySj1Vjs/UVh/NdALjXI0Z6SD+BZ3B2deirY4fCfAEQDk8DbwBgrl1DssnHpAYEExtVk4M7t24b0ZS0vm1AExbXuqXPJmfvNBUZ40L3yVIZE9WRWtXkkXKvJRhCfZjGqq0PpQtHKfu6S6/Sy5vlNrk+06cwRA3bq2lpDNupC1LBjusHnoOlLjEaGCHfmrw8pXSxaX8S53xfiX9QPnEr6NKp1Kw2WziD/NxoPoUpZSpsuQTFNcadLKOMEmWEx2JOh01FwIR730hrwAxBnDU81IVm0vuSPVioPq77KoE4yzGKm3CiSDl5rPN15J3betKoCfFQ1sFmV7/kARzL2U1cFTqWNpmmVgwAsNG9ebs6NFcX1wVggQgRXkoJk2Ef6kPHvr7Yvo8EN+6d23UzoUeR2GJjKzFVi2FsU8AUFlLKsOH2NMaadu5+mq5FAD4O2WAGycqCqTU17TJrVN5lMtpi2OBCJ+zHgnIuZdztRMrMEqQGoJQtBEUw/ySnEt11qV+BGYCo0kgs7JyJxOQCHNSUdigWI+6Y6KFw9qhNKBiAqhRd8U51ZFasnlyZMvO1MgEklA+mc0VZBEy0PHhVxrVLimbsKQrMXJQQ1K4JAvfdVLwkbp3CJAYOvz6l5uDAhHEkvAg5A5x09Jx8zTMPJh1YzNJZCuE2Mg/R8k0cEcelBrMra8TB5HN1yYADin1RFoyRlNQapsFCFCdFlJHCxUv41WWykSfPObLoUvxk08F8SMtEBnpAzuwAVeyjJTkH3XVk6pgObliAIBNISmowGiGovpTN1JoFYO6yXPLz9UXjPtoF3/5tVcJfL8LxmuVNNYXMbDuZPzZEBSZPqH11i8AUhbUcqEPHvK9MgEEn/NBVSeqi98FE/9YCilPmVS6AIJmMV3Cx2EhTVBcWZNc+qBzyFNalEO7RKJrnYc/AiNZZLHoi8XGJTIFUUG3Vg1RxqU6bCafD1xfq3ELfarI0zesJAH1pDoxknzAH9NgW0mSy+RVgsrfTGeCTf34K0fF1A6DEpV2HSLJlSLNmxcrWgb7fIstsi2Mxq07fg5WTrweUKUTbI0ptUWzlLXK8VhC7xAg0eWAksel/jKqIemPQUlhD9y82dy0MpjkoQRWVe51YSEOyFmQaD43earfVH6FsGrkNPQ0NkIWyn3FVEW/0OcSyFfemSaw05c5VwAIwilE4CW+mSyo2VxfQJ1pOqQvWeg33Re//h73qj7AsnKAomwfowbKpvwqS3gI9glY+KVnChjwHGsoyk2x9Ad/sJRoMOijcvIoVyOeGeHb7BCzUDm2FVSOp0gC6nqNhh6h53D0Jzy2fcQHGKrlrofBWi0e0Z9kkqM7ASRXhXpz3wTq1N1lAXS6wAJe24h2wReO7qbdCyktdQAwwyEsL3opCsQyyrqWKohCP3KRorIQYBAIO2odIEhcueBOSSv6/qGs77Yclfx92LeJOqG0dwyQomcZkCyaMsy23ytSPdTaW4IiMAT960yYCIMeD179AmO7hPYongUo46WU7jUAMdWbUWeL5pkkXQh0/CFBWwOlPAa2BC/0q73UWpQmFxLOBAtQeuP42L5+qUda11F7xq6Y1q/Gr1SmbKixrpF4ta6znFzJOpJNACKVCvFSKc77a1xH/SmgwdvtSwEk+cZTyTv7RLk+UTNlsWmtqO2RMub1g2+gW6qs0US8C5U9oQ6XkhOg5sLKn8zvNSVbJFJtl60yxb8o9bYMjoL1lJkvu3Jete6aqmrjU/1H+/hK7Eh5GtoqEEUWbYk7VZVc2sztGjPF00Dg8jSGBXMuLDN/0571tDMBDtYX0099c62IivrzlwsqPv2HRx+LpvscICl50OUoKrK4w00b/hzWA+rNT7krg2lzL3QHFxnqS6NQLEtpkFStuTzn17tpXmm860fcesMiNu9WYebDHPgmsPTahiyGqQCCzzFLwljgBBgJ2uQLApVlPNLHClFOwMgKChjpy6lSUkBl4QtFR1nQFeVT2fiunKkKKWq7humLgHAx0VqYQQaF/9gKi4ilP2pYMsnDthmdCRynANcr5VP9WNQHjJhPkskF0lcMKdFqZzACXFRHlbmYvtEXXwE1LZCj3F5DA2DOZAtd6GIqN6M3FSpAPXqltgYA+txsygQUAGqKLc5v95e+9qRX81csUxbFuZYLpogCIT8x1LqZwQhgkpMc+hvnuH94KuFtQWED8YDBdqh+/AxGkXX4e4seeGcBiQGSeuLBorG7zdU8tvDLwLyZhwGqC0UoA5TXB2aKX+sJz0zj/UqL1nrcJjCSFaQnbFgKT2zhMMwFTphdmAAssmJBSKlHKLhXkAQSAqSxFJMqeK1HU6wRC9V8vlmgNJKFtJSFBN9M4DCbhoUUj+LEJseTvpiiOuo/1AMFojzWVgCH6UQgJ2VvmpcqTJbfuYADPFlqrUhm4lz19LQPAGkEWrKkGoBR1tFCgBSWD1MuWYUCgrBLxVZcTuNyWreQhQOYLSXPAGvVZxVHIClwkJ0pn7oz3ZLlaHDDGpOF5HwAIbwCBW6ULZYsTb5vC+Cj6ZZu6oKHBwIg1vlY9/KDAvmNHi4AgI0W57krwKFvOfnX7j1tSg6l4YzaESSJLHZCM7K28UIevP174BQAKYdA+vvXfhcn4yiBqA1nMSSsr850xTFtG3vuxqhDBZQXMFE4vqGFDOJMM6S44uVzy2y041H5lZ7KoRRTrX8whs8U9oHrtlzKwKU6yAWwJEs5NcZRRg7EwGriYi8QKCGLBKVk/Qggk8+0b4GCGmyQpSStcfGFVu+HQtWwGCo1ca1ZR8LCYNHXio/yo/SyInjWrizkYj0HC2ksQFgaMJmiMfVSPiwfZOAogwxYeUyX3S7ilYOochtZSlhLADAXcmO1hnYDNlhIlCorTmWNabcuHixwD7z+hflZnIulfFbzRadKfgKmfvC7Z+pv7/Vi7U9APfL0Wb7aOgasxM/wiD+lGcTdJFIogYsyS7mk+Z5lH9BmEXO8iPMRuezM9B+s6m8TkGgsd/UtuBw8WVQ3vrkquUTQ5mQQM8ix5ZWNBesxC6xmRKHFKTqLshM9op5OL6ROWDdMBzRYNWhZ2oEdFfPn+/Rr7XUTpnJMKfxkTgP/gnrma6AxLagXVl0QFRO6seiqP3bGG0dAD/2ea87IvigsN/+685RPTP799pMipApElR/AMdCqdoAhYDMySAEGAY34ACPPrngaFStz9KFqW5TZaisQjA2PCGZRXj6V038c+6k4idH5jVjKbHks5CMXn17DUSsACJ4oy2T/oZ0CGckDfNnKQDlun9mjQGMl/cE9NBjhM+R1MX2z1QQoFQuJvDiJp+qBechSPtc3aqbCzRbtKuUCTliYdqTTI++M696Ae2vY2wSke2vEumBWWxgO8ZyEmPfQMMJuDGz6OQYvMmy4iET+HFoTXvm2NHkol9J5mmaEwSIivwbiVFbF2QQweqKJwBOBgqYkmp6MZMWggkhhU2Q8neNXWV0vMOKx/1z7lKbXFCywQxlcIqUaNhRLAEJdbSNYQbBODCpUR5frCdgBmkJBT1sEIl6/ct1VvuQHr3sm2iwKlklMj7BaVG/DEzyk0RsztY2eySvqaVnItmMKpHTFwzJhbYUyUc6Vgnp67FogC9BJMIoW00rKCehalRciwhLh/mL12PLxHgD1jPuOuiov2ZADEfDCenJYPmCtu+S9UGoAwONepYoaJ+R1HWmcq40c6sQlosGJTDBAo2DCOMqHNrhjeuCuASnvUF2XPlqdfofhACMEMh49lvjjwQm1DCiC21zJbG790RAVN2sWoTAhOWgyJzR4NcBl/k8m2l/kNQlZSJoKTLQYPdHo5huATELYAGhFYEFVwDHW1GGh5/VMIawknnJ4KdbwQPkAED6N8FMr4ta2UAD+Ws9Ux4kUlKkhi7eTAkhWFD6EiEK10wnVWfzkQxGZKAUgAUo0nid/wIF354gDOtMqrKTkUd1UOLWjjgAsGy592qItSPpHLqrpegFMJaq6UE5cudWBLYpMWJEJEBIDqqity7DA6JWovBugMtSHap9BBTzIMqHrH9Nm0lnc9hYMQNu0wix+S6U6VFsR+hFn34Aa8agzBYjB1iZhrqwXfmm7Qu+Yo6Fd10fr8uwdv0tAyruSFeTOPLBTFZiTaPDYSopgqZOqmb90HkxB5kcPRc0xZhZ+NZ2sQQ34+H2G7DpGrsrR4J9ow+PFFWD0tJnOnzXnsnqeCBieoAjOzw5nPcbnNYmZLCnCZ0+V76nyaxG5ka/pnladxC8F1+XpBW1AuaT0bPzz4iyLtVhZUi6DgdLhQc8NRipzYlOO26B6k2Ye8ojXFho2TynDZaKgtDT8sOvoPdsjokYa00Ce4C1URig7PpagWsnrKepALDR6bcQubiwYlUkdmKoiL8rI8qIOQE9ckqFQOACQ3qPdXPRDWEbe2mGZ4gVwffNob7TCFpaszqCIGDfB6ZYFQItGn3mYkM7DBtGpIUY1eUeYoQYl6kJK1i19aDjlJQNy3n1HK7Ol6d+61YyEY11WgltwEi6HR10ZwCV/7Wp6hrvjx4MQYmmVrfIcaBAFBAECKJNKFMNIwLN8Lf9DkT4UlGjWw6P+p7Oz5uxaUwOPY3UXT3ekkEzT2B09O5cNoMdykyfa+Tx7LmV+Ib2SPwGYuMSvx9QjWV0jrBwWkrE+ZKkY2PSqx1jve431bln417KSZFlIOSdaw6GGWAhWVkIoMsBj0FCZyj8SGC6nlJWA+EytfSrueMqnzMqTgMwTKZ5OqTy/PqL6seucy5+jVrt4Z83lqw4q2qAlZcYaXBpE9YgdAJ7pcrl6HUWvpDRMc5lG+UkboMXwYkGfKR0Wm3aJq8x8py0ANqxCo4mmijwwCGtOWe1EYxFdMlgQV2MVZpQgmzB+OK8XlXueNPuwQG9BifwQEoQUtIvMMV6S9qn06bFVxx7YBccCUt6mA4t7O+xZOYaOhw1/FPEUI8cRiekKzT+Y0mIvGymNwbVgYyMTB/UUFoKnbbylj2UhJeRdtdHlrLn86Kp5/Xdvmo//Vnt1Ptajcd55W2gRWO+UWVldlpCK2ZPA4lID/PUzAch3SFkuJs35KwHDC73YChCN5WtDJI+k/YqGnwSxHI6C0joaIyvLgPRUOAUgAQziEWDF6xkCESuRFKWssUy08I6VNBfIGcRkoTWy5hoDAqCQoAQNKwVHedFBAVLKy14elQcI8oIsYEMH8d6aJ838CqjzxqKNZVH6TGpbTeQJ8PSLvAZdylIbVPZcZa42KQKEABGWF/IAT4AZGQBhsc7Y9EU7xRl1JSgQ8y8L/cRVgMi/TIQTjGIQBJRU2SFLLJaTm4JIXeEUygGWpJJqW6yqRpv86QzQSwe7YwDpxu04uNT7zsCYUS1Xg0gFaoD5xzHLJt7TZYzjbCD+3E+qNNSYElggf2KqsUTRr/Rb/sll8/rD1wKjV803v/z3zfIbHynfG6nTpYDnqnnqx/+swFw313pN5FpK9Yn27Vx/8LR5cqXNfhfagfN5Veh9pnRSzvET6fdTzR5i34zfmcN64G186o+CLWTFWLm1TiVgmgAMkjtRWdpn2WijeDREdYxjPsp0U+tXBhCU2xaSQOgswAhLRXvL1VbRxEdZPKlzN6Gg2oOEhQQgAUa2tAAdARIWC3zxrp0WxaETZ1qn/pqKZ4ZMrETK1ZQ1ABAQDgsJwIt1NoYl4Ca56jNKxjoCkAAjgM7TU4BQ5qfXhcTpeyRuHGXzgm/IYZKoX4IaiEhjAb64eKImkjtYLQHkHBaDora0PQbcK5mt9d1HbWwIlB44uFv2BSQE5+05/d7O2vZ0h62k0pKwNtabw0DOYQqoLWXhMGnw2k154mYGMY2ulfLmqnn5yZvmpQDpo7/5qPnal7/RLP7mGwKeaz3Fv2oullwqUNelTgl4LQWaSblen100i89NmxdzgdfTl82Lz181Zx+oQCyKCym7pnZWPE3BqI+PM5FiB7jotqHcAJaVNI4/8fqRyomlaKwAcuYFiEq8okzbvHPZVk7sjmZKxGZMLBF2MgcKqRgWV1R91n7Y2mCQEPjwdMtAwJoO2iq5TA99PArKLCCjJvS31+GoF1NGgMqAojYyHZWlx+sxWEhYZSxlx22jjoIyfiFYB8IqKmX5qZjKiPsHd+RwJVQRHzGCuat7F3uW1Be2msq0F5Bj96eBnV656RgHa457qP/h6lHilTORSYR+I2dkGf7mTdraE/sC0lYhRyRSufb2HpF/Yxa3OiXL9xplp7B2WoEUNNSDKDNBjCEuneIkizLEIj16lbAu3rIWYaFp2/yV9tB8S1bRV14147/Saw7XsiwESBwjwhN9wO2NpjRvdBLApTYFvmIJR++EjV+8bt78g+tm/lrLyzxxlxLa9Jf8/FVmQZ6XZuPnm7I16Km2pitjWUCcweRNlyJOeAWFl2ZlKfnAILEFM/kACZRb0yHl5akTlsxUVstCb/vzBBALxMeAqN4UwZMr7/dRWye0V2Urly4ASVEoftQvbjqMi5yqL6o5YxOn+CiX3MAN5yFhXXKcyJJpJFYX60vIVzW5Z+QBwKAhCexgT5cP1feiXAJuAIvXmnQv/QRSa1acMOAngkZg8bL+pssWl9+/YyOoOhy0VFvpHVz0UoQdV1O4DzTWmBQ3pRADElVJlaV7AUMraSXjkYa4C2/dvW1AopF57++4sUWsPFQChw6vhlohZKLXFlCRyhURVBKlQAFwnsaRxmD0oFM+KdByql/t84vmbKqFaSnP+Rv9zn8shfv6qPms2FFxTcKk5sqmWumlDyszkHMlg2D5TArEWxFXsjuYythC4Zbkr66CKgoAiCfMShOIeJOj6oJejsomyKniEynWRKA3yd3cUjYUGIBRSMI0DUKp6RdjhqwWTXs4a2gii4s1qwUnqqG/5FVzJdJrxsiPqaoARCAxVSJKyA51OgtM8hEtKi9OEpAQuk/AsxANbha8pwAMggVKfumPVzhUNlM65fBy10Qy/UOi/EsOspM15FvBrwON1sX+LoOu19UUZjNn+yqOypA1y6slHM625MQF+bac/BIzFpL2ZwmYRppCN6zX1Y7yldcAQ7e5ITQmQvSfMomqVrWDgxbCjF1IX70zLhr+lpqTgESh7vq3VO7bKYYWle5sG2iLKOkoqvSJ2pTWO0y8OBax/c6UBtkSRUBTuFAq0ILpj8Kc+vjkctS8/2qqFZFJ8x2SjBXBhEgqZ+XFj9LOm9evpGhvtJh9KetGT+I8XZKVAhhRGerhYa0AMyAeXrWOROkl06mlAMkWEhaPcuncSCWonrxnBlDw698KQ3JctnoMbrJMZBXxdMvrPii9QITCgUUVIbAtmXLaIhZAA5AdZ38ARGL0KzWaDgWrGA0gqhvypLwAm9d6VF+fv8TDAQ6HkzSayIDkgE3XTxTU2z8EtBdU0sVOeawfAwy0gDL5OD2hE2LQBKwkW8CAFSZWsZIavYzM5k9OWOAVmAAYZ/Z4AYSV6P9BpYyVA4hw+ExX43mmxEMDoAZ3TA+4kxOQjhFwF3moBHcw/buQuS5D0q2Pa2NKkXrgSGNjQhFZqRCDkj00TCuKYa6wlOaaX2ZdKASP4EWb8wKtSGd6nP9CU6APBEMfuEkoFKUDTbZ/ZAMJuETl4pURpi/n7G3SgW0jzlryWGfVSpMQlI/pjcJYexOtQfkxXS7QUr4VPiyQuSoxYwFdygZU+lUG8Sz1sq/rqjBTG5bCaD7tjK5XuPQPdNehEIzfEuZkI5saOtcGSZXF08IWpN1OiRPNj9+V0S/WSiAbQ12eOnVMQySNtTlePnbDqIYcdSavz3JS2wOE4acP1VZdvMzLMbV+2dhmHvdA6SrXPxSSAudC/TLDCqP3JAsIO1ObWOOiLgjHx5qr1rYDvBN4xRaO8rnSRc8FBNE5vmnmcPP8J3kfjV9GQNzqh6r1QwPSvbabIcRQ8aKrhykDCUo9uBS1437EQMtQDFwpCCn8EmuQ+zE/SqcB7XUQmBmQpMMnZkpQqkph3zH/UBGABR8XdfCUEJmAitI8hWBKI9kLfs2Z7si0YBGYQ8YMSJqO8aZ9M9fltZAAR8riXTCtWkmW1qNkrTAJBFmZ4gEApVhVkjD5sBTka+Gdw1O8huN9VkVpqWbr9OJt+xJuvPS6sCWkuqq+LHcb1ZgeCYw4F5x6eMuE14ck02mAospknWtU1nGQq82i1M/WiZGi1AFLhkv15YgWpmVLnTe1nEa5S229WNmTapdBR90jC4wXnBHq9a6AO0VlmXk6pyS12k/iVPVy+yBKRniBM4wV+jTub6TwFyYyFuZVQknr8q8xDJENPXCfgMQdybtVhzdUxeSj7yLDhszpIy0LdwClZACScMNFsc6rIL4tJDHLeNGvpgIaseAG0yCDE0yWpuEu0OAoXF68xWjhXCRUFohALVELymVHTQzteIl0dq1tADMtaM/06F8nRo4BGfY4SXHJ4dMDlAHFYiZ1ZgDS3hwAibOBlDeAhSlSvKCKgl0bDLREjXLqcv2l5NSd1kEDBAHIkcAogEnyVCZY0J7eSKVtPqgSHJDGaQCAh0CRo0diOiTQEThYLo1Vx/mccdMUl2tfdVG7vKbDEy5AhoV3gElhr4uxjqb8KwND7VJbqaMX6gEk9jSUc6Q0/3Ofxx2TGLUbcOSoWjZkcpInlq9f6GWnNYfB4RuoaJz6Oa0s8YvZvy2QwhHgjsm3qUgDceTFEVeY5icJ8uNy1H4fV/PV4X3y7s1zn4C0dyUK4z3eViwNDZ+1biTCgCuDirB+Em0IMbrgVyprH9JfpTHiigDCSgDiGNyxVE16OuRyhYOPlyKQx2pN/mZD55gQD3qUFCtAl+VatqQoE/zIwxqAhxMmlyizwrE4yztmAiR2JYu20CYkrEK+L8DRTIAltfMb+5pqYdlEmKkdgCBQwlphigOjG06ZlCfriWmSAUk88FNXW1kCNSxFWRw+X5p8uvwZJ4EDvcU5UfzjmVdMppAZINRaXExF4VNfjNh2gFVIp1MnL9Dzsq/yeIFafSTfnzWSpQQAn9miki0GkAvQOP4lLg1v/aJQMnEW03n1R4J1UTsu+l91Eg/1dArtaNMKIDnOPXXiykcELn0EPD6XtX/wmj8EINH4HBF3e/s2SMsCe3t7LY+smrKgG1WMHJjujHVgxY++NaZt9kvwUp8PmmiQkzaXPxcCcOB+rOIwgLk8oREVqSzTAmJSDtaN9AmiMe/G6RylpRZbDICSxlSHoQ8gWTfJK0UM8FI6iVRK9cfWsZ0joKQuUzIIffF5qG6LTmHqOAOoqLcAgHfdvIucBTADDcCgIM4FFGU10K0Uk7azEMWnnBa0XZene2qgz2dSO9xy1cdnBNhSUYskm6wYOLQvCsMX2PBLAM3AzxM/QI96iSbwc7Vos+o113UdHaAoEzLyUbaAUS84M1EEfOLANx0Jw652LdrzvJOtDaqFLoZ+3Hz6gu0JPiZY4GbRLpG6xcWPBP3H/eTeAbEhR96759zdalb6b62F+wASlYo7t7lam3iyQdvyb8q7ubQDUhg2jGM7auEaZbUKXUSAIqjKgfnuwR/8NuGlKJ6KYPKjPPzikh1lFDPD9I1+nT8+ixcesIP4h3pw2D/PzziQ9aX4Xoqu3UrNpXgvBEbXABJaIJn+hRcPXc5fZEjbFcKhEFIM8foLGIX/SuVeKnylUiajp1JW7daWgjFVY+3pjLrrkf6lNmRe8mjfGx8FVbKIUNHoFFknAp54b0wUl4kyqmXuAMI41J9PLmljJ63TEzLKZZme85J4DM5WUq9oCYhmPE3z4rKAUv8m7HuiHdp/ZFCnFw14yFYYXjXZj90VdzX0J2ScCTjUDk3tLtWGpdadZDcqTe1TM7gHbOD0F1jUdjag8mrMTF9Kmcmfa3f7WLvd4/ECwKS7ovK8Jm5ApNcDdgCiAE3aDTCStvobsbXR5dRH/sdDeksbSN/Es4lei9vJsw8g1QJvE6YyqVl1+DYye/MyTHAa122BJrg7MlW+fwpzUAUo+TttVS7v+VM+ZBmEWKBl/pdO2Zl1YXXoYNnm76W8QJVWRQwf/C7rtVApIQfOLnQI7ERgtGx4D5chfy5l0jYktMkXslzNKFFEgEkAZCqMugBF14EzFSeSi0U2FShpgyHP8aR8+f7cSPuKnqoRPNJ/bUVmF3hYClhTbNxkAdygAzCocO+2NuhRE4GUrK2Ea8qfKd8MxZfCzwUQBgZZMwuDtawXTS19pK/0+FrlR+unUn82YdI76g36XmW7k2h0cQAipdEZPAEjpID+AMZqo8p9ox3eb/RS8kLvCgKhrLFp5qh2qZ8AQYHMtZ6OXguA/K6eXua90nWu+FSv2wDObDXgrs6Vhx8P96tCBDmbPGw86sU44ebI0R2Yy3LcEwiuGvR3z9WtqsP32tK7BCQqzchJv6/i3bSMp9+X5+5obe3KAOuR7FMORQ9FUGOoGZcdVK4yKMt49VMsKeOVHtu/ktWTS9m8sy6bRSrGcjYW0ljW0dJLw681VWO6NtO0jV/0mQDmnCdhbFQsBbbFKm8oqQJIovpWDCmdFHuuqdO1NmdiBWA0Yd1MtRg8FkpOFeaT3kxVrmU9zdkEOJZlwZ4nLuVdeiGd0gSRaDaP0CnHC7lMTkjDSsBnU4EsJMmbSal1uIq6RJaIplWsTS20yfFaa0QzmR3sUL+WxgbUxzZRDvFfaJrLES5Mt2JrgDg8HQUMAAjWhihKAtzVtJmhioV0pqOBZZUBhAAZDRb/FF5ZXbZ4NO2e0Y9LvZun0xMmejdvofBMoLTg/T9eWeFpouoKGHlzo3w/HVQfRAfTB7pYKzNNnm+/yiHJNCqneIwWiI/Z0RBc+hG7GU96zdvNU/McFN4GSH093Uc7qMAdzHfWsE3l1A1YFcYI42kZuVa2AA+lWF/wDyQaYi0RCxaHFkT81IqFEWXnHOr5haZEz/Rr/DkBw6VOkNSv9YWmLFfawc2TqCsp4BsByZUUcvFMSvFEinIukBBAXPH6x6UGuA5sm2t/kgwBDwWDnZQlLAGtVwkKfPwt00rF5hNNlc4ECuf6jBB7fww2ssnm+rKH4ixs+3PSUtzlWJ84Gr2QXn+gzzS9p+u5ZpzaEaX6FM2XT5CesdZpdOZmBToH6+ZcddEFuOn9MxR+NH6uWgHETNTiINqZFtfVJLpKFOyJFwIi8etolYXqyHG/AAJTXqM+1pX40nKi9AlWFMDr+6I+03TrWttO58v3ZKUJ2gUqYwHGXFNU719Clu8f9wp5+vx3857C7yuvwEkW0lwv9nJSAX1IfqxFgIzpOHZogg/twGqk55OmgJzKYEDQMHSX9bqoIImP0dGA+3R98vtorkMfIB3SwynYQ0YSM2/62dBuHHofLfnvz8+a9pbA052iiqodY87LRVQWvWBs4iBa04IwlZVz8ex5c/Ztn2nOv/Pz/pWfzvSyrI4gObt+Y59xywutvCIylzI+O9db7t/+Hc0H3/5dzbP3P6+PYHxGBeitd6Wz+7p9SZVeklrgLfRkTZMTBYjruBKDi0DmQgCjUwWm15qi6NE4X+sYaQvBRNsKOBdprI2MvLt2JmXmu2tjlXV+8e0uczxFYaWkSg3FooNQZvwAo1heR9nDdls2UvDxB9Ljz/7/7V1dqCTVdu7zf+Z/HEcnmpHgVSLGB4MQEcaI4FMugg/hvsgliZGAkrz6koQ8hBAUXxMUgjEJlyBIBNHc+ySIYYLJg0QuXhH8ebgikYiJOv7NnJmT79tVX5/Vq9feVdWnz8w5Z/ae6V5rfetn71rda52q6upqNDUchCL+Cr4DcxF7V/zpajaJ9OOMaML8fTqOBcy7vHQtvnFzDXZqjqYmlvas2BDQ4HhFefpSL5sjzy8xxXiw0aS9I+7hoLGMFuG/cgJrxx4bPvlbRnPgT10vsXmkvUb4YR3p+i3MubmEy1SXj2Pu4zjS5bYib2hMvKsBuz5/lQRg+t88Mbf8FJIZt49mOwC2tpTx+qfDTeZrXw1uuB8ekyxKe/JW9jG8PGUbNSTvJJnOfJdqeFm4aE7vccmi8p875Vuo71uHi9GwG00s7Rmlkz3Ye+Ib+sDB0ZHjx0fXnL5pdB7HKd/f8H+jQ7ggaR331V678M1ofeNbFC32XninSBxq8J5H55dwI7QT140O/eqvjY6e/vXR2onTuBvHMTQU/GXmIRYWy8clFBmbGedMf69T4fFTLZylWsJezvpxFNy50To+YVrmZQH89AvviYUL348O4NYm62hUB9Gc2JDO45BuGXs1iyvwOXhytLKGb9whBm+OxqbDlgMgPTdPPMeCU7tpb4NZYPZ4mIO9idUT6GM4PX8Qc+BQdQ2HiPz13PPYM+Iv6TafQnLN2AisfwFNYHHh+tHaynWjZcw/WsKeGtbTfNqFHKZmwnNL/OoHHqh1vl4rPCRjLrgXhKaytHZytHYJ8+J7hIto+qtIDg8c+eE+m8gS/lBswnkN567Oo4ltLhxD87p2tHLgBH4fsmlKmwvIPc5/pY8aeCjIfjT1xuA7gCvgg394KNOIMgYbJdacfrSSOWubYaOk7Z4aWrCoFu/lLjynz8WR/ZgOaUhjJzCcwNep1Yu3dpaX3tPeC/eOSc7MwLcQ30p9Fqw4/OvMrWxOYwSe6U84THj+Ze3A6PCx46PzN2GmQ4dxiPY9yn4TjeAbNIWvRwcv4D5CaFS8/1C6EySKc4SiGB1GQ7j2htHo+tOjhSOn0k4KZ2Jh8TtizQWZ/OQIcdGkLuIvOvc+cNoWBY2DOBx2LY2wt7OK0+UrKEseI+FXT9JJ4wvnca+lb0cH0BRX0RB5iLmExrPBT5lWDo9W1k9gxwSPZTQGntfBeRfu/yzzc/l2cCZ+fYWfqvFcTbOfxsTgcBR7KIsHcUod6zx0AfdjWsHtVlJTvMibYWInB3ubTHrag8D6cRJ64dJJ7NFcj7Vfg/rlfZCwl5JeGb06oNw7Qnx+abdJMZoU/i3xnkloSCur8EfzW11DY8U5N/5QCz14C12ciYM/HmjMB3AdxHkcpl3EXhX35JbXr0MzQxNdPoaGdxAnvPnHAQvFlDwxzabffFbBQzduI981njZ7xFC0Ourx4F8OrJHvFfalrQzSbtcPbkTXsDaWL/n1tZuIYRsSA1yuXGouTycWN1hoV8+3N98iGpQnh0e25PQ25KrSH0XuCyApW+ok8Dtu6V5A+Cu5gOuONg+hOE6eHJ04dGh04NQNKALs7MBmCTdpWziPz9Q28D1/nmvirVvZqtJ5DBToMprSARyGHEFjOIy5GAtHLOwJ6f5LqJJ0rop/idu/wFwfr+BewrkYHm6tpG+vY99pFedoUGRLKHTu8YzwCdQa5l3hr59s8A6W2IPAvZNWebJ3EetYxyEXziXxMJEf32+kvTI0LTQebW+60hldId0Lm5cmtG8PfoC/hIuJVg/wHo/Ys8I5nfQDk8jHOg7fVnk+Zg327bkoXkW+wFv5bqA5bGDvaJOHXto7QlNgZMzDwyxsfapqfi+PX825hC6xhEMw/novD7lW1q/HHhHtT2CPkDhfIeSWV61zrxENewGHtrz9yypvk8tGhibE5ruAPSSeR1vExZc8fOYno3yjpBPr2Latl5kxKYmK51rJSwabBgPhQfM2RwneW0/cCA5PG3RnnzUn3lk7PzRZ+84Zv2LELSZ5phXxLYL3J96g6T3Gt3UaxDmatxu6TCrstl2xAJIPD3OaPREeuCQt/2RipDc8V8kHzFMzQtpSHQDaxKdq/KSKVbx06ChOowLDXhO/xsDviC3gsGKEE8wpKBpGunc0PuXZxPFNuqAQP520yYsj19GM1lD8CMXbiPCvNqSmPsFR5jfgm+uPoOcnVWgm2JeAFc8s8ZvrPOnNIkRXwwnt5VXc2wRNcbTCNcAOhye8gyNPJrMZbuJkNA8f0zf9054MtxlviWbTwTebzcsDcEDI1aTBdfGGaiur16CBcTvRkPhO4rqx15Jyls7N0Ly9noefKvIe2htomBvIErebG8sNS4OTIlY7C2/MdhGvwSL2PriHxGmWcK5rYRGHXZTTleWtOVw3sYeW5oLPJg/v2G14U7d05TcO3XiujNuL83fpuiWo0x5NmpUzmME9J2Y/vcjk+eBo15f09OBGIxfjbaDNnhxMPoenHpM+Ge/E0zwbEher19Xyft0lnbcdIDdh2UfYlDRSX+ET8XZ5zRVCsKALB99QyYcW7V9dvhlbmCo+0u44r67mBKDsMuk9y0938OAbPQ2A/P4WzxdtYo8h3RKWxx/po2s2BfjiTc2rm9NdGLnHhRPAOFrBROAZjoEQLsVnvLTWVIoJSzdsS82HxcSLC7hLx8JhEDYQtlUUf/p6Cb+Swvmp54PnPrCHxk+5sEvGO0guY+8sXXuTJmwSw+a3CpktoV0RKLeaZ7O4PNjhyuhNNKRmPcA4T4qRTJM1JgHFvLximietcQ+pdL9wxkUgRk+5TWvD9sB/GflcTi8kt48hGQNrxYl8Nkd0tcYRHA+ZmvmRA9jx6zipZ3CvDq8B/XhnynQSnb6Iz6bf5JT+DJJc+YwHD08x0h8vzkUfya3x2E6XDTR48qPv/hhMem5YneVz9r1wZrvP4IR6JSzvfbUw2Vq99RM/RfEx+wW8IfGuHT6aY38UkFaBEAkby3q7tHtI4ylwvmNsQxCC7WoJ4X4BB57TyRFascjkiCUzLKdAY0qHAWkhANmM0oAShyBNibVrSfZQYj7TF8fJZvvYGjateOlQMKmx4LBkS0Oujc0Fpbn51x5wCkZGNluUh4ka49USw6Im+gugplzR9HDYw0+tUrMYb6OiWNomButtvkvG9ZkJk5TaG7h0bTr6O/WTNuhkmJM5515gu0otdixzLpgkV8wz3nACmpfraNMBtPGglsFow0HKs2ocbHKa0a6p4ZsVJ8M99cRaSxvXrFqZ9JRaYY3l1jPxnI5WVmf5rQiOyzUkOtvMO7cJURN5+wgvxU26ixcvfo2P0XGiYdaBPZxO126LyVw2AdMGJdeMv7qHMtHKSkR+WVsWW1zemppmK7EONoXM6Bsr4z5OwWSztta8LikYIRjYdUI+EOdDUj3cGScy2Aoy/WpOI1vWUay9ibHW2pWXNs/rKHuMYXJ4O8UUiWJ01m7o1Ibuu4BcDOE2Du75hc9066gZqBnY8Qy0tRbWYWZy2WbUCbb1HNkVY0z/KYhCbGHFYFtmU5xdpOcnjGtDmkhHFWoGdiwDmVpTjfs6FT50PYP8hjakoYvx9tHihCX6zTff/NI7VblmoGZg/hkwtTZRg24m6Ry8M6JvSKXJSzqtjjb2QTznZ3Hxm1988cWHClZpzUDNwM5loK21ce2ZmYQZKLHCSe3D23lZfh6nPKHzDSlyiLCJIG1Qj9FPmKjFxEuX6GeffVYbEjNTR83ADmfA1JqtQfGcPeItphUS87iXZVukszYkBY0WIp2n1tbytNPiN99+++1feMcq1wzUDMw/A22tjWvPzGDr0/LGJGSH2IYB+AG1PqSWgZXFR9Ri5PVgHDY6yRG1+gn+2LFjS+jc/7W0hK+E11EzUDOwIxnAR/5fnjx58jdx2MYrankplppJjpfeUtpyWIw8hzDxEbUY+c6P/ZPRDE9ajKU2jBZNTDaJR4Iuffnll/9hjStfM1AzMN8MsMZYa4iqWrR1yMmEa2LpLZVubnQ7h2x2wX0W6W0ka2MUb/Pjjz/+d4GV1gzUDMw/A6ixs4g6rjkzg61L8bIzZmM2sinZjx0jZmhDiiaKsGgui1kfz28+88wzP8Vl7dodtH6VrxmoGdhmBlhbqLGfIQxrz9efoltcWBeNfCIsG0fnd7wBcQ5RywuzvuJFZS/Z0olzRu0c0o912J38yZEjR36bgeqoGagZmF8Gvvrqq3/DudofIyKbBR86dItkr5MNKYeVPSa9pZaXPbE0uvaQphzkWKBdPtTLRvyU/M477/xLYY6qqhmoGZgxA21tZWuvDSt9aRbVbcnG64o+2jPxTsQ1xIsSt37ChQ2l472iNm6Sb7/99nV8LHkWX7S9TguptGagZmB7GdjY2PifO++888y7777L30Vnc/B7QF5WY+pDuTg1HNkT47B4g2xhkrf1KZsmGAdzjBZUonSx+rHMhH3wwQd/52JWsWagZmAbGWBNmWakGg5rENNY3POlVShuySbU5Q7ZooARFgXVwiOdx7zthPzII4/8BNdL/K93qnLNQM3A8AywllhTxnOi3oB72ZhOsUNtfQD6T41cQ7KGoaMxkL5rgdKLmhDjREzEevPNN8+99957f2sNK18zUDMwWwZYS6wpeNsaFK/aU3CLe51sSGUn3uo8X4qTbHW+xztS1rkhy+cw4YonKl/JJerPJdF28dSpU8sfffTRz9bX129jsDpqBmoGhmfgu+++e+/mm2/+nU8//RT3/p06b8RGMeTcERegRiRqMfGkHGpEohZLBnpiE7BGwnO0jy1t9PBxhItST55D2ARlAl955ZU/a/XJsD7VDNQMDMrAJmuobUYT9YUokhmQPIcw0QbdehYu+y3NNNfHRl66K/3E3pCUpNxL0RAvSpy8ZEuF5zCrj/ipvSVcWfqXN9544x9w0jpqBmoG+mfgk08++eIpPj8AAA0rSURBVIfTp0//BTxsIyE/ZK9IvpxYvKgwUeIa4kWJW152Ce9zDsk6RHw2OIwjHbHcQ/G9fnT//ff/FW4o9XMZVFozUDPQnQHWDGuntZyqqwxu7fwk0nmcMnXbGv629D6Y9nCIR7wwT2VPXDpiHMIi2lhMPy98/vnnl1ZXV8/ee++9P1pcXOQPnNVRM1AzUMgAPlX76qmnnnr4pZde+hxmaiQRLUSZ8LN2ikMs14hyuI0zwatZiE4oW8HqxIvSRDxpiZfe21jc81OHbi+//PKZBx988J9m/amkdpsqqRnY1xngTxy9+uqrv/fQQw/pS7RqIKR9D9WYI+sn3uIRT4yD9hyink9K89R5Dom2aiCWL2HS+eYi/xyuw0fqpxpRu47k+8Ybbzx45syZv0FTkg9j11EzUDOADPDLs2fPnv2T++6771WKhYcaE/Nm+ciHNh4XFtEujHo/xg2JChZ7NCxe4qWz1PORTGzw46233noYl8D/dW1K0UtWsas1A2xG+MrVn951113/jBz4BjKLzFRaPyuLF6WdRh9etqTJvs8eRi6wDTYOqMAttb7WhjwH9TM9mHD+FeCuaYpUn2oGrvIMsBZYE3NoRjaTUQ0L89T6iZcNZctLP0H7NKQJByPY4JY3JomlTg8C4r2PxXvx3CXlcTJP3qWZ6lPNwFWaAdYAa6HHYVqutmzmrA1xL1tb8bTRsLywXlSfsslYh1SSRT0uWZR24iNKzOLiFT/yt7os/8ILL/wS99/+17vvvvu3VlZWTmUNq6JmYJ9m4Ntvv/35k08++fBjjz3Gy2Js8+jimRE1D2+rbEnvZeGi0lta0oV2vjF42TpZXRdPvWws9XhO7sKlH9Nbb7119fXXX/9zXDz5+2Zuu/7K1wzstwxs4qLHf+R1Ru+///55bBwbQJ8H8xDZeTwnW1w8KQfjauR46UXHdrMeso0DKGJAZSNKE/KSxUeydNZHWEj5gvBq1BdffPFH/N4OHeuoGdivGeB7nO91vucvQzNSGm2tCstR2eb0Ic49DDu8bHXkrb6Ll97SEu91lPXQ3JI9ndDzC7mvvfbaH952221/jMO5a6iso2ZgP2SAtxDht/YfeOCBvw++m8ZNDP9gt3hO73ErR7wwS/vytPNj3LxY2H5EmGy8TrIo7cSXqNV5PpJzGPGcbnTPPfccfv755398yy23/FG986Rewkr3YgZ4p0feXI33M2pvIcLN8M0nwmQT6Txm5YgXFtEcZnHyfoybERUqZmsUYTm9tY14YREl1geXnbUtYVzrhJ63w33uued+eMcdd/zu4cOHz9Rrl+zLWfndmgFeU3Tu3LmzvAf2o48++tP2To9crpqMirkkRzYRpriiiim5RK2uxFPnh9aScBW5NYqwkt7aR7wwS2fh6eP9hsjchgV8EvErjz/++A9x7H3m6NGjd9dfyLUvbeWvdAZwSIbfcPzyP/m7afw5sGefffa/sSYVraW+YfSVfQxucuQb4cIsLfFeR9kPrSfhKmhvlMNlZ/VdvPSijEFe8qy89++SNa/oAn4KZvHpp5++A1d8/wZ+VvgHkH9w8ODBm/Dl3cN8oFkdqt+ZY7rqmFcGePEims7Xly5dOscHvo3/S/zk14f4+fgPcYX1L5544ol3zC/Kqlgt9fxQmZtCH+9XwqWLqMVKPHV+aA1jXEU8Blomh8vO660c8cJK1Ooszzkp62Fly1ufPrx8I5rDLE6eQ3M10tZzDt+yqNxezsBUMbUb4/GcbHHxJWp1Jb6vjsulbc5e+hK1Os9HMjE7NPcYKxVNSccAXm/liBdWopHOYp63stZELIfLZgilLYdiej4pzZO1M3AnO6tfZ+Bq0CsDU8XRy2uroCNzG9PytJU8hEa2xPrg1sbyWkuESRdRi3k+konZofksNlFkEwoIXQXi9Va2PONK7kMjG4tZXrEtluO9reSIdmHUa2g+yZaWdNau8nsrA2ExtZsQ6SwmXpRu4j2VzuOULZbjI39rG+mFlSh1HIrl+UgmZof1HeNdBTNUb+27eOkj2hfjhtC2yz7Sy5eUI2fTaLf0OdnGkE2lV0cGouLyWE4WLsqMiY+oxSwvvwgr6Ur28iPlkG2J9zrKftg4EzoV4QRohC49Tb2Nlbt46SMqTHNIttTyJTvp+lBrU+Kp09A6JHvapff2Vd6dGcgWUrvcnN7iXbz0Q2hkW8K4XOojG+ks7ct7O8rR0LxTuj6F0mXj9SXZ6sTPQvv4yIYbTV6yp9Jb6vk+cmRDrI79n4GowDxWkqUTZcbEWypeesklWtIpTolanef7yLSxQ+ux2JhXcY6BgJnFxvpYnuGtLH4nqWLbuYV5qs3vwmUnKnvJnnbpvX2Vd2cGisWEJef0Hpcsqq2VnKO0oy6nnzeu+Ug1NAdly0eyfCz1PlY30RwmFE7oU1DexsqWZ2grixe1emGk4r0+h3s7K1te/qJWR57D6iI5GQV2wivd3xnIFZnHS7J0njJzHsvJsvX6HC476S31vJetr9dRjob3mbLxhTZl0AKz2lk/yzOslcWLWr2wvrSPr7XJ8ZqPeg4vN2ge76uXXaV7IwNdRZXTe1yyKLe+i5feU+vrdV1y5Gsx8hyK4/lIJhYNGyPSZ4ssMs4VpLWNbCxmefpZWbyo1QsTLelKNpGfxchzRDEazaSuhElX6dWTgajgPGZlyzNLVhYvavUlTDrRyK+ks/bkOSL7RtM8W73FLd/HZqLwrHPE2yKN9MIiO4tZnj5W7uKl99TGKemsXV+edhyK20jTsnBRby+80v2Rga4C83ovMwsWm5WXn6iNK8xTa1Piu3ReTzk3tIacPuFDi6avfWRnMctrgcJEiXfx0otanwizes972fp7HWU7vK3V5fhZfHKxKj7/DPQqIDdtycfrrGx5hrRyFx/phYn2iWlttVkWs3ykFxbRyDeymyj40CAA+xZSZOexkmx1Ed8X4yZEtiVcm239SpiPJdtKr54M5Iouwrswqx/CR7YRxlclh3tdJOcw4n7YebxuSo4KbsooAPr6RXYeK8lWZ3kuSbJoDrN4ife6SCamYecVZmmX3tpWfu9loKvQSnqvK8lWZ3lmTLJoDrN4ife6SM5hxP2w6/K6UJ61aIb4RbYe8zIXa7Ecb+1yNha39p6P5CEYbfsMv54+PtXmymVgcFGZpUa+fTBrY3mGtnLEW6yPvVnuRGzvKzsfX3hEh9gmf/8zSFHQHDaksCLbPpi3sbLlc2v0+FCfnD0TPTjZ8MnF8+us8u7KwNDXuuv94eMNka1tjmf2+uq8rTJv/UuYdJ5G/t5mSt5ugQzxz9l63MtctMUs73VeLtl6nfelzBHZlfDkVJ+u+gzkCjLCuzCvt7LlmfSS7HVd9vZFjHyt3vJDbK1fttgmjDqEXMHm3CL7WTDvM2/Zrt/H7quzdjm+FDvnU/Gdy8DMxdQuqeQ/ROdttyN7Xy51O1gp+1Hckv2Ebl7FMDROzt7jXtbiPW5ly/exz9kQj2LJ3tK+dtan8vsvA32LMbLrg3XZeL2XlXGPezlnJzxHc3Fy9lP4ds4h+WBDizJnH+ERxvk93iX7NUv2fsJLdBafUryq218ZKBVnTudxLytDHu+Sc37EvW/JVrqI5uJEtllsng2Jk8xSpDmfCI+w3Lze1svZpFwBxW5e2xVIxxWbci5F1a6+FCuny+EM6XVejmzapUz5DrVVnByN1pKzLeLzbkicbJbiKvlEugjThka6vphizLod1n8IP7cXdMik1XYiA/N+DbrizaKPfCJMGxbpIqxkL12OluLlfLJ4VKhZ4wGKWeOW/CJdhNllRvoIo08Ot/HED7GVT0TnFSeKXbHZMzCvIhsSJ2cb4RFmtzbSR5h8SjrZRHRWvyhWwna6IGaNX/LL6XK4Nj6nz+FdftIPoV1zDYlVbS9fBuZZeF2xcvocrizk9DmcfiWd4kZ0Vr8o1gR2OQpkO3OUfGfVKQHb9e8TRzaVXj0ZGFKsJduSTtks2cyqU+wcLcXN+fTGS0XZO0gPw+3O0+Vf0pd0ful9bfva+fhVvroy0Ld4+9oxeyXbkq7Lt88r0xW/T4yizeUurO3O18e/y6ZLHyVsFp8ojsV2IqaNX/ntZWAnim+WmF0+XXpmoY9NKVvb9S/FntBdqaKYx7x9YvSxYUL62k0kLxDmFScIXaFdnIF5FWzfOH3s+th0pXQeMbrmmNBfyQKa59x9Y/W1U5KG2suv0pqBUgaGFnpf+752pbVJN89YitlJd0vBzXMdQ2MNtfdJ3a6/j1flvZ2B7RbyUP+h9qXszjNWaZ6sbrcV006sZzsxt+ObTXpVXPUZ2E7hb8c3l/idiJmbq4jv1oLb6XXNO/684xVftKrctRmYd2HPO55P3E7H9/N1ynuhkC7nGi/nXJ0vTjW4ajJwORvD5Zxr8Au41wpwN6x3N6xh8AtdHa5YBnZDA9gNa+j1Auz14trr6+/1IlWjmoGBGdgzDchv134s6P24Tf51q3LNgDKwZ5uPNsDS/wfOkf6Vp0E+LAAAAABJRU5ErkJggg==;" vertex="1" parent="1">
          <mxGeometry x="-489" y="-583.81" width="67" height="65.62" as="geometry" />
        </mxCell>
        <mxCell id="y8ol8J6fjDSW4kQSu5Xz-15" value="ClickHouse Log Client" style="text;html=1;strokeColor=none;fillColor=none;align=center;verticalAlign=middle;whiteSpace=wrap;rounded=0;fontSize=16;" vertex="1" parent="1">
          <mxGeometry x="-533" y="-513" width="132" height="30" as="geometry" />
        </mxCell>
        <mxCell id="y8ol8J6fjDSW4kQSu5Xz-16" value="" style="endArrow=classic;html=1;rounded=0;fontSize=12;startSize=8;endSize=8;curved=1;" edge="1" parent="1">
          <mxGeometry width="50" height="50" relative="1" as="geometry">
            <mxPoint x="-685" y="-552" as="sourcePoint" />
            <mxPoint x="-485" y="-551.1434689507494" as="targetPoint" />
          </mxGeometry>
        </mxCell>
        <mxCell id="y8ol8J6fjDSW4kQSu5Xz-17" value="consume" style="text;html=1;strokeColor=none;fillColor=none;align=center;verticalAlign=middle;whiteSpace=wrap;rounded=0;fontSize=16;" vertex="1" parent="1">
          <mxGeometry x="-636" y="-590" width="60" height="30" as="geometry" />
        </mxCell>
        <mxCell id="y8ol8J6fjDSW4kQSu5Xz-18" value="shenyu-plugin-logging-clickhouse" style="text;html=1;strokeColor=none;fillColor=none;align=center;verticalAlign=middle;whiteSpace=wrap;rounded=0;fontSize=16;" vertex="1" parent="1">
          <mxGeometry x="-757" y="-676" width="301" height="30" as="geometry" />
        </mxCell>
        <mxCell id="y8ol8J6fjDSW4kQSu5Xz-19" value="" style="image;aspect=fixed;perimeter=ellipsePerimeter;html=1;align=center;shadow=0;dashed=0;spacingTop=3;image=img/lib/active_directory/firewall.svg;fontSize=16;" vertex="1" parent="1">
          <mxGeometry x="-939" y="-608" width="30.5" height="50" as="geometry" />
        </mxCell>
        <mxCell id="y8ol8J6fjDSW4kQSu5Xz-20" value="" style="endArrow=classic;html=1;rounded=0;fontSize=12;startSize=8;endSize=8;curved=1;entryX=0;entryY=0.5;entryDx=0;entryDy=0;" edge="1" parent="1" target="y8ol8J6fjDSW4kQSu5Xz-21">
          <mxGeometry width="50" height="50" relative="1" as="geometry">
            <mxPoint x="-425" y="-553" as="sourcePoint" />
            <mxPoint x="-150" y="-558" as="targetPoint" />
          </mxGeometry>
        </mxCell>
        <mxCell id="y8ol8J6fjDSW4kQSu5Xz-21" value="" style="shape=image;verticalLabelPosition=bottom;labelBackgroundColor=default;verticalAlign=top;aspect=fixed;imageAspect=0;image=data:image/png,iVBORw0KGgoAAAANSUhEUgAAASQAAAEeCAYAAAAjGGgnAAAEDmlDQ1BrQ0dDb2xvclNwYWNlR2VuZXJpY1JHQgAAOI2NVV1oHFUUPpu5syskzoPUpqaSDv41lLRsUtGE2uj+ZbNt3CyTbLRBkMns3Z1pJjPj/KRpKT4UQRDBqOCT4P9bwSchaqvtiy2itFCiBIMo+ND6R6HSFwnruTOzu5O4a73L3PnmnO9+595z7t4LkLgsW5beJQIsGq4t5dPis8fmxMQ6dMF90A190C0rjpUqlSYBG+PCv9rt7yDG3tf2t/f/Z+uuUEcBiN2F2Kw4yiLiZQD+FcWyXYAEQfvICddi+AnEO2ycIOISw7UAVxieD/Cyz5mRMohfRSwoqoz+xNuIB+cj9loEB3Pw2448NaitKSLLRck2q5pOI9O9g/t/tkXda8Tbg0+PszB9FN8DuPaXKnKW4YcQn1Xk3HSIry5ps8UQ/2W5aQnxIwBdu7yFcgrxPsRjVXu8HOh0qao30cArp9SZZxDfg3h1wTzKxu5E/LUxX5wKdX5SnAzmDx4A4OIqLbB69yMesE1pKojLjVdoNsfyiPi45hZmAn3uLWdpOtfQOaVmikEs7ovj8hFWpz7EV6mel0L9Xy23FMYlPYZenAx0yDB1/PX6dledmQjikjkXCxqMJS9WtfFCyH9XtSekEF+2dH+P4tzITduTygGfv58a5VCTH5PtXD7EFZiNyUDBhHnsFTBgE0SQIA9pfFtgo6cKGuhooeilaKH41eDs38Ip+f4At1Rq/sjr6NEwQqb/I/DQqsLvaFUjvAx+eWirddAJZnAj1DFJL0mSg/gcIpPkMBkhoyCSJ8lTZIxk0TpKDjXHliJzZPO50dR5ASNSnzeLvIvod0HG/mdkmOC0z8VKnzcQ2M/Yz2vKldduXjp9bleLu0ZWn7vWc+l0JGcaai10yNrUnXLP/8Jf59ewX+c3Wgz+B34Df+vbVrc16zTMVgp9um9bxEfzPU5kPqUtVWxhs6OiWTVW+gIfywB9uXi7CGcGW/zk98k/kmvJ95IfJn/j3uQ+4c5zn3Kfcd+AyF3gLnJfcl9xH3OfR2rUee80a+6vo7EK5mmXUdyfQlrYLTwoZIU9wsPCZEtP6BWGhAlhL3p2N6sTjRdduwbHsG9kq32sgBepc+xurLPW4T9URpYGJ3ym4+8zA05u44QjST8ZIoVtu3qE7fWmdn5LPdqvgcZz8Ww8BWJ8X3w0PhQ/wnCDGd+LvlHs8dRy6bLLDuKMaZ20tZrqisPJ5ONiCq8yKhYM5cCgKOu66Lsc0aYOtZdo5QCwezI4wm9J/v0X23mlZXOfBjj8Jzv3WrY5D+CsA9D7aMs2gGfjve8ArD6mePZSeCfEYt8CONWDw8FXTxrPqx/r9Vt4biXeANh8vV7/+/16ffMD1N8AuKD/A/8leAvFY9bLAAAAbGVYSWZNTQAqAAAACAAEARoABQAAAAEAAAA+ARsABQAAAAEAAABGASgAAwAAAAEAAgAAh2kABAAAAAEAAABOAAAAAAAAAJAAAAABAAAAkAAAAAEAAqACAAQAAAABAAABJKADAAQAAAABAAABHgAAAACPu8+ZAAAACXBIWXMAABYlAAAWJQFJUiTwAABAAElEQVR4Aey9S4xtS1auN9cjM/frnFMFZepe4ArzkBAXWSAaNlJJCImGdZERstxAsizZGNkCueEWHdsNGrY71XLDAtnCyJJlmYaFEDa3hYSQSsJuIJCFUdlwMfdCQd16cc7ZZ++dmevh//tHjLlizZzrmZk7V+4zY++ZETFixIjHjPGvETFjxhw1754bvXtNGlo09MDGHlhuTHmECY9deR97/R/hkBmq/Ah64NGC1GNT6FOo7ynU4RHoxFDF0gOnAA6nUIe9BsRjUK63Wce3WdZeN2hg+lT0wNsEjLdZ1sE371QV8L7rddfy71rewTdyyHASPXDXyn7X8rqddN/yu+XtjJ+aIt1HfW4j8zZ5d3b+wPCp7YHbAMFt8m7q8PuQuamsrfRTUbi7rMehsg7l73bobfN35Q3xx90Dt1XuQ/Mfyr+td+9S1rZyNqY9pDLdZdn7ytqXLzvsUP7MN/hDD2zrgUMVf1/+ffm21S3T7lJWytzpP5TC3UW5+8jYh4dO2pdvV4felZxd5Qzpp9UDd6W8+8rZh28fnl29eBcydpWxlv62Fei25e2TfxfPrvS1DiqRY/L0yalp9yGzlj+Eb9cD96GMx8jclWdXOr2wD8+23rpt/m2y19LellLctpxd+belb0tb6wxF9uXdl68rf4h/unpgX0Xel4/e28a7LW1X3n3uzC75+8jYyvM2FOs2ZWzLe2xadsht8+8jJ3kG/9PTA4co7TbebWnZm9t4jk1L2Zv8bXI35dmbvk0p9xayhfFY+dvybUrbRM/qbUrfRN+VL9MP8XeVdYisgfft9cBdKuEuWZvSN9GzFzalb6KTb1tayu3zj83XJ2uNdl8Kcqzcbfn60vpodQP70vto5NlEr+Vl+BDezNPn35WcPtkD7fgeuCuFO0TOJt4+eh+tbm1feh8t82xLS54+/9h8fbJMuw+FOEbmtjx9aX20bGRf2r60lIHfl+eQ9Jp3n/Cu8vaRMfAc3wN3rVy75B2T3penj5a90JfWR9vGn2mb/G3yNuXZSL9rJThG3qY8ffQ+Go3ro3dp3XjdKZvSNtE3lVnLPCS8rZxD5Ay8t+uBu1SubbI2pW2i06puWjfex5O9cVvelLPJ75O/iXcr/S4V4VBZm/j76H00Gtal74pnZxzLl/n7yq7ThvDQA9uUdFNal96NZ6926bvim/JB7+bdxptpff4mOX28G2ldxdzIuCPhUDmb+Lv0bjyr0aXX8Tq8D/8mHuh9spK/9vflq/MM4XevB/ZVyj6+fWi7eLrp3Xj2eJfejW/iS/omf5OcTfw36HehSIfK6OM/htbNc9fxurO6svdNq/k2hbfJ3pRnoN9fD9xWqbblPySty3ubeDcvvXcb2rbe75O7jX8t7bbKcEj+TbxdejdOhWtaHe6mdePbeLtp3bzEcX182+jONPz51PfAJsXso++iddPreB2m07fFu2m7+Oub2Je3Tq/Dh/DW+TYq2xrThsgmRe1j7+Pdh9blqeN1mDLr+D7hbp594vDUri6npm8KH8q/Sc5Af7s9cKiC7eLvph8Sr3k3hemdfdO6vNmzdf5ttEzr+n35uzw34scqyCH5+ni7tG6cita0TeGabxNPTa/5u+G++CE0ePdx3frsk2fgebgeOEqxSnX78u5Dq3nqMGLreF+4pu3DX6pqb1ve5OvyJL3PP4TX+Y9Vjn3z9fF1advidVodpvIZT38TraZvC3fT+uLQ0tXlJq32d6XXvEP48fXALmXblt5N2xav0+owPZbx9DfRavq2cDetL76JBr3r6np103rjxyjNvnn6+Lq0bfE6rS+8L42G9/Fuo2dn1fm20bqyknfwPz09sEn5+ui7aHX6IeE+3j4ad2UTvZvWF99Eg951dTndtBvxPoW7wVQR9uXv46tpdTjFJy196LvCmZ5+naePVqd3w914nb+bRrx2Xd46bVP4mDybZA30u++BgxSpFL8tTzetjtdhRNXxXeG+9KSlv4/Mmrc0Z2M9+tKT1uf3ye7jW1P4XoaKuK8C9fHVtDqM+Dq+K5zpXb+Wsy2t5ts3DB8u5UbsZjzp6Xf5kz7470YP7FKybno3Ti/UtGPDmS/9Wm7Sun7Nsy28K62bTnyTyzpsSjf9EKXZh7ePp6bVYSpQxzOcfp2etPS3pW3j6ctX0wjj+mREynraNlqmDf6npwf6lK5Lq+N1mF6q4xlOv07fRsu09PvybUur+Qnj+vgjJf7W6TW9Du/Ds6Z4deZuuFbQblod7/LV8TpMnjqe4fTr9KTt6++Tt+bZFM7ySMd140HdTN83PfkG/3H0wC7F2pTepWc8fVq/K5zpXb/O203bFe/LW9MI41JON9wXh9bnahl96RuVrMu8SRlrvi5PHa/D5KnjGU6/Tk8afoa76ZvoXb46Xoczf/p1GmFcndYXN1MPX9IH/93ugU2K1qVvi2da16fnurRN8eTtpm+iJ1+m13433I3XebtpxPtcN88Nnq6i3WAQ4RieOk8dRn4dz/B9+im7LjtpXR8e3C56cK3+Jv+Ksh7alb7OPcROtQd2KdSm9C494+lnezO+yYePtE3pd03P8vDTZRnE63BfPPPUfjdPndYq3hqxE9mlTN30bfE6LcPH+PvkSR6aQzjjXT/Ta78b3ifexwNtcO9+D/QpWZe2LZ5p6dNjGa79DGd6xrf529JSzja/TuuG94nDU7usT01rw6mcLaET2JUOe5enju8KZ3qfn7QsI+O1X4e38WXaPn7Nsy1MWrqsR8a7/q70Lv8QP80e2KpMqvKm9Jq+K5zph/h9vNto9C7pfTyZVvv7hrt8xPtclnsjbZeiHJpe8+8KZ3qfvy+NBsG7i78vPfPi4zbxROoqfVO8lpE8g//p6IE+BevSNsWTnj49luE+v6bV4czXR9uWto0/8+HjkndbuJtGvOtqOWtpqYRrxBLZlgZLN72O1+GaN+nb/L60mlaHU3ZN2xTu8ma8z99FIz1dlpfx2t+WVvMN4cfVAxsVSs3oS6tpGU6flme462dal068pm0K9+WvefvSk7bNJw2Xsrrhvji02tV5W/o2hdmWhoBueh3vCydtm9+XVtO64TqedYK2iZ48h/jw4lJmN+zE6k/NV5F3Bo/Nt1PwwLBXD/QqyB45t+Wr0+owYjN+iN/HC20fes1Th7MufbRM6/NrWjfcF4dWuyyvpq0pWZ2wSzm66XW8L5y0bX6dVoepF/G86ngdrvPsE868ff4mWk0njMuyIrb6u4m+4hhCj7kHehVKDerSN8Vreoa3+XXatvC+afQ9vJv4M32bX6d1w31xaLXLslvatA0dH6gVry+ctPSzpIzjHxPu5tkVp9w1ng8++GD8xS9+8Yd/5Ed+5B9/7nOf+z7Fv+/Zs2f/aDwev+CaTCbPR6PRWVZ48IceuG0PLJfL6/l8/slisXjJ9erVq3/x4Ycf/rOvf/3r/+xP/uRP/u9f/uVf/lPFFyqnq6yM3aTV4V1VIk+O+5q3pveFsyzyZHldv07rhokf7Poq2kerBXfT63hfOGm1f0yYPN18h8Rpw+gXf/EX/8Ev/dIv/ZPv/u7v/sL777//bwh03q8bN4SHHnjIHhBYfST3f/z1X//1l371V3/1n/7ar/3a36k+CQ61T/iYeDcPze2T1UdPWu1vC3fTiHdd1sf0VOiaqY+2Kb3m7Qsnrc+Htg89+WrebTTqupb+Qz/0Q09+/dd//ad/+Id/+N958eLFF2T1jOsGDeGhB06xB2RNLV6+fPmlP/3TP/1ff+EXfuF3/+zP/uxNqWcCSCrztngfTx8N0fvQu3ylSm3eOr0bTt7azzJNSyWvGfpomd5Ny3j68GV4m1+ndcN98U006JvSmh//8R9/8Ru/8Rv/3vd///f/R9Pp9F/JRgz+0AOPrQdms9nX/uIv/uK///mf//n/6Q//8A9flvqjzPUFuY7X4b60Lq2O94WT1udvotV0wl1HHVuXypyEbjzp6dfpu8KZXvvbwt004nlRfob7/LX0z3/+89Pf+73f+w9/8Ad/8D/RlOyzJA5u6IF3oQc0pfvWl7/85f/2p37qp/6Hr371qzO1aRfo7JNO12ziq9My3OfXtG1h0rquBSWUu3bd+La05E0f3gz3+TWtG+6LQ9tGz/Tab37zN3/zX/+Zn/mZ/+rJkyc/WFd+CA898C71wJs3b778O7/zO//5z/3cz/2fpV01oGwLw96X3qXX8b5w0mq/DrcgA1GuGw9q/G3TUuEzsRtPOn6dtitMevLUfpe+Kb6Lnumt/wM/8APnv//7v/9ffOd3fue/X5VNvQc39MC72gPLr3zlK//jT/7kT/6Xf/7nf36lRqLY+1z0Rx9fl74pXtMzjI9DbrpN4UxPv+Xbd3EXxe9zNT3D6df80Gp6HYavTq/Tkr7V/5Vf+ZXv0SPT3xIY/QedcpA9uKEH3tUeGDHmGfvogBq5VU+q9OyP1LXMl3T8TMtwHU++pKWfvJle+zVPTV8L10x1eI1JkTptWzjT+nxoNT3j6VNmhvf2f/u3f/sLP/3TP/3faa3oPQQMbuiBT2MPaG3p49/93d/9j3/2Z3/2S2o/FsehF93Wl6dLz3jXJ2+6fcLJm77zoPjp6nDS0q/TMpw+PBnu86Hllbyb4knfy/+DP/iDf+sLX/jCfzNsXqRbB/dp7wE2XX7pS1/6T3/iJ37if1Nf9IHLvjS6subtxg0ehSfTar8OJ29NI9x15kPx09XhpOHX9G3hTKv9brgvDu3g64/+6I/+Xe2w/q+HPUX1rRrCn/YeYO+SpnD/2Y/92I/9z+qLGlSODdOldd46nuH0DSpE5PYJB2f8NX+uISVQ1AzbwjV/He7Lk2CTaRlPv6bX4Uy/4WMZDWCUXTX4Qw+seoAfaHQDHRH1hu50aJkRvnTdPF16xvv8rpw+nk00501A2sR0KD0rlI2q8ycteTIt6cTrcB1P+og1ozJNu+u6Z30Gf+iBR90DgBI6gq6oIa3uVOFsX6YRr8PddNJqV/N202q+g8OTkmOT0JreF05anw8tL4rJ8DE+4DPiSYK20P8vevH1KQIHN/TA0AP9PSBQmmgrzL+phz3/u7bDfFi46mlUf8btVHR3k8u09Gu+mlaHax6HMzH9LkNNz3D68GYYf1s407s8NZ2wgafIqtPG7DP64z/+49/S2/j/mtIHN/TA0AN79IBOE/i/fvRHf/TfLvuU8hQBgKm+NtETwGreDFP6tnDWrpbRpWU8/eVdTHsSZFJo+gkoGU8/6X3+Jp6GTY8DGGX3DP7QA/v1ADqD7hTurs6lkC69jidP+pmW8don7VZuGyDVwutwFljTMpx+8uBDy6umZ1r6yVPLMI3XQcoO7G7+E4zzYzNcD9cHJzgkHrhK6A46pGqkjmWNMp4+dMJdl+mb0uCv0+pwyqppdTjT7ZOwKbGmZzh9MmcYvxveRsu0rt83XRvzouxf/uVf/tPH8W4aQERvpJUa0eHvW+qBZQ7Dbb+zb6kuJ1YM77597/d+7z8pL+T2TdH6aDkl6/q0bhst07MXUiHS76Ynn9ds2sgBgbzz6W/KWoNOl6dOq+XU9Ia39h8HGJXmAUbL4XqQPhh+CLo61sbRIXQpR6n81LPkyXj6SU8/6fjbXKanv433Rto+PyW7BGc6foZvFFTSkqfL16U7znlGHCHSJ+zkaXWLhvBq+N9XX5z8gHj4CqJL6JRqkneBSmUYv3Y1vZvWxwdtG98+6RstpD7BfbS6YhmG71jetbwcrvbozjOyUapm4A/X2+sDhpz7Pofh4Hd7AF1Cpyr6mr6J3o1XrDeCh/J2BZD/htsktGbOcPoIqfMlPWmH+t21I8c5dlZb4L/0uE56rNaQBuW4MdjulcCoG9aQdnYxJ09qJ/cXynG4jNLu2lE3fsjPKuXnyM98Waea3qVlfKOF1DL0BBKASMpwDUI9WXpJmScT1+Kcgf24wCibIZ+uz9YM/tvpixzu1W0Ygjd7AJ1Ct6qUHKFJ6saTvslPfnxc+t2wE3f92fUZpFr4LlmZvisP6cmT4RtxDuRPgY/Hx7jjB0bNGRTkgW7bPsuiD1S1Eym26NZvVdXJn9Ak1fFtIxm93Zae8mp/a56+u5fg0BWyLV6nEUbGpit563KS12l8qoivgyTj4/Lp0uF6uD54XKPlIWqLbqFjVdlr+id6n24mT+1XIm4EaxkkduO9tD5AuiG5IuwltOLfFKzldMMjfTftp4djRTZ13UAfeuB2PYBuoWOSgu519S+F1/Sk7fL78vTRNso5FJBqQXVBhPOqeepwpme+jCdPS+cjjkl8fH42a/BXQ+Jt9sXjGzEPUeOiY63OVXXImwUpw8lXsbXBPp5t/G3GvsBtAKlPXtLqSmY40/DrCtfpIz5vrS/Kss39Ebq6WY+w+u9ElYd7sM9tRMfQNfFmh9V6iIikp7hMr/1MuzN/GyBlhdLPQrvxpKd/SHrN6/AXv/jFH9Z+ieHz1tmbgz/0wD30ADqGrhXRN/Swh95XizrfPunJn/6NPNsA6QZzDwHBG4V3+GveOgxbyhhpj8Q/7uQbokMPDD1wDz1QdK3VvaqIWj/rcMXSGzyEt1fAsYCUjUihmyqSfOnD3w1n3P7nPve570uhgz/0wNAD99cDla7VOphhCu4L17SsHLQuvRtP3q1+F5C2CdmWloXAU1/QN+Wr6RlmDWkApOzNwR964B57oOhaq3tVUUmrSA4mHb++unzdeObr0omvpXUBqS/DXdLWCi+Ck2ZfB0r9o7sscJA19MDQA/09UOnamg52uDOtQ76f6K6d2t1Sj60c+TJvN7xWhs7L5m3kR+2yoYc24tAtr4fKf1v8n/b2v61+vm05G3SN29fdqZ239JghmvL2qu4uQMqK9AkjbVt65tnEk/RazmhDJ6Wsk/fdqGzZgbX1UUoH5jk19k97+0/tfmyrT9E1blkfAPWBT/JuE5ujvy8/+bbK2ARIKXRbwZkGbx9/H72Pr5bT6HHk8yQM/nE9sK2Tt0ncNIK25Tm9tHejFW+jXytdY8hs6rhuWg6vLv8m+qamdOWabxMgdYVkYdDrcB/fpvSanuEbvra1n3WFPp647tEom3RErcnq29y91/vKGt2++FuWv3V07GrGrdu/q4Ahve6BomvZ65t8smRanT3p+JsGbJ2vDnfltPG7XNSmwHR1OGnpb0tLnkfsb7o3+zSJvEP+fXpq4HkrPbBNV+u0Onyriu1rId2mECqbFU4feRnu+rcp60TyHgsq5YC3W7SCkrNDDxVzbK1vlnPs79zt2x+nDNys0UDZ2gMMmRw6tU+mOo343Q0TpHVcDUjHjuOOyL2iWVbX3yvz6TLdgULddmVbHxi43YjJW3JELzsrf27RD8e2n2J9YiRlHwuIR7T53cniHlRzuv7baGGW2dSAdEjBCNjH1Xx1eFPefXg25T0hOpBwrFKqC47theXi6FKz86zKo9so9LHtzhrcov30W3uMbcob/B094F47gGcffsTty7dW9CGARAG168brNMKb0rv0jKfflfNI4lLE9jM8KOWxdgr5js2bXXVs/rwF8xR0sB8lp5xDsx9bb8qhTAEpnoB5sJLUBfs795rY08+c3fgu+qb0TXKSv/X7AInM+zp4a/4Mp59yunHofbTkf8R+gtGxykX+I5169Da2ze2B8Mh630k2Wq6+W07uRNqnXAi62R3AXVrG06fLCOO6eYN682+d16l9gJTZUnjG8ftodfptw/ct/7b1256f22AricCxwLLvvdxUFT3635S0gx4l37b8HYXcWzL9DRhR/2N74N4qd8qC6az7vOl98vto7qNtgHRoJ+YoSL8vfzct4+n35Xk8NIFRLCmjHMfc42Py1N0DGB0vg5sQuY+XUdfm7YdV71Uj3n7xj7vE7Ln0szXdeNLxMy39Ou2o8F0C0q4KUOl0dThpj9/3ojLKPNN1hFJrU2VMuY6deB1R5p32eliFx9qGq1avQndavUHYIT1Qg0wdPkTGwbz7ANI+4LGJB/qmtKzsrvTkO3nfdtGSBWFCR6iln27RHUfkLb3z0JB0FBCXuod3bPsBMfqN/AOgRV8e/JfO2zaESMf18ezKS76dPPsAEoLu0mWj0r9D2V1FzoG5qajs126+rFI3P/yLgrCEAR/5I/LPtILxRv7rZrnEx0oSnaR8+uZqZF1Y75iKdyoW+bpGc92OiXzvxsiyN919yr7SRTnXuognGOLjsn0RC0XlzRxkR/mug8ILXWO3jGlfX9k0ZKm0uhzKzvJJD55JWy5tXW9v05yLxrCjfCaYSl+qPFmH9Oy4KlsMclCzr7Ms/GwradnO0q4RskN+lA+dMnWpv7N8l60Y/UHNa7fqgaw/qZQTbQxe0uCseUjJ+hB+lI4G0Yj031ojuDun4rp39cB6xUCJwUs4htQSvzvalLoQORRQA9uAkkyRb1HG1JiBraRV5ZQwIo+UYgQQXOnOCYAWL4UL32zml19T8ofNZHwpsEGIMi9QHoXHvGsmSRPU+qJZLN9vFpPPNCNd48kHzXT8TLyUP9aT60kzEr+dldXZI46spcpdfKSyvtEs599UdT42zXUaCahoU5Y/px6CiQVg8ERyn0kv329GZx80zZn80Xsq8UK4mYqsYeEOyj5RNrV31FwqcKkWvRYefCiSruu/F6/abjBWO8cqi/6hSAHDcsQQU08vn4j2Qtjzgcr/bLM8e0/JqksDQAJhACLAQJg+AIjmiuHoP5W9UFmzb8r/lvxP5Ef/O7191K+89DHgsyhAP1G71c5m8m1R/ugDlfFUPOJT/RbqK5eJjNLlC+pQ9jSN6QaqxL10PwCIcgI3fkh0EyPOX/MhhA54NO5kKsxouS9Xbq3F1+Ft5e3L1ytjBUYMYK5z6aWoOTaKdOuKxpZ139YLA5shCcOSYRfDqShVXaklyiarYGQweqXwy2Y2+6iZvf5qc/XJP28uP/qrZnz91eapAOlMdZjOZs1YgMSQX0zGzVzX9XTUXC2fSl++oxlffFdz9vx7m/eea1CPpZyLCwGMgEvKlAox11RujJIx2KU8CzVovFAtL7/VzD/5Z83s5V82b17+bTMTMEynKm961UyW181UfH5TeT5vlrNxc7l8Lvh83ozOP9tcvPiHzfT9724mL75HyvpULb+QcBRLSjYHuFSeO0I1l0a6b932N818/q3mzUd/3cw//iuV/dfN9M2/bKajVwIYtXeqThvPVRc2aZ6pSZKr96WvZwKA8Xc05+ff1Tx5/j3N+MV3Nc1TytOltmEVAko0ElDipo2xAH1LVP+Fwpf/srl8+RfN1av/r7l+/fVmdPWqOXM7L50rbSlD2XiiOlwIxqbN5OJF8+L972qevfhXm9HT79HOAOTTn+pjlQ2oeEspZRWXuJLGrftCYDuyRQgwi4N6G5QU9ViRT585s/zH4dzDe1S15qvDe2Tdn+U+AWn/WtwZJ6NBgIH1wjRAo4Rx0jpFHK8GXlAiHwPZFpEyxLgqjIgSwXkBAuR7ugQgfaSEb8gI+kqzePMXzfVH/08zuVR4gtU0F+tMygTgafCCMVNNj6YCpdFzgdN3NpNnV7KOZD08lbXSyHJZPpOBoQINSCLJYVXxI0xtxrJiRphvWqsaCQib119pli//vJl9+FfNXPHxucqaXopHvpR6qV/9ERbaNYU/t1XWPPlcMx+9ac4vJPQZ5X5Gl6wzlbC0/LqDBKLqldEEuKAHsPw+VllfbWYChvmHf96MXv2NAEkWy1RlnUX/LAAkDm44U9vkz+fPdUv+YTN5Sl+IdvGZZnmBhcQQlFymWeogVJ5SfC9ssdFWWNQmAeHyzb9o5i//XwHxV2SUfdJMFupngRJAoW4KR/epttfLi+ZqcdZMaeP5y2b0RAwLAfJY7QX44QacDEhRTIogiduOgw961Ix7TxtwcAhwLUjBZCRpcEf1wEMDUt7/9I9qxFom/6QxMkAQXXs5+HJUYQFpoFGjIgYRmRqDDv4cmNfNePxGg1wWAuDEtEJTt/H8ja2Y5VyKMke9JHc+keUiQNGv80h5llLM+fVnDSSLmfKfyQpYIleeCvRM0lpB6cpDsY6Xyo0upXavlSKAUNnXuiayJMaL17KO5s0ZQCRry1NG+ecCqZn6ZTmTks5V19lLhVXuOeVihVCOC5Df5+gbtUdgPFK500aAoLLPRh81T5eSo7qPBERYkUuVrRqob1438/F5M55pijl+3kyumWYKyAUkozmgKcCmYRPbKNHvpWhPmxymXpSNvfOJwO9jlfWxrMaXzRP1wdTTOTqMiwzL5srrSOeSfaEZsmBv/KHoAs2Rppu+d3QmF3/54XJG+SECP7s7UuDEkcI9gkr4nXHZoPQfpGE5+tb7/EGq8g4UikUihWS6MpdCLnQBRoroIm0pS0GKirJyKbxYzIIGELVP6KQe3JG8O71dE8q0UsJQoKVkLFyOFNyWlNRNZaPzM/nUaS6eucpbqPyRyl9SD8r3lKzIvVFmTS+KyHpR5ZhK+nL7oixbSrRZZc5U1rX8pfqDfjLqYsHpMg0U7nWUrTQjMjy62rKzXgAWMLFJhpOHP6fbA8agrUP+Hur+7gOflUY9p5aO/Iu9arLjWzu1KJt/m2vFQpjUsL1bmZb8K5+FdOm8dB1wkKKj5CRb/wFBgEKACShgQSrdgABAcNkS2VTJUg6rvAYEldWCBHkRh1xNMVUHwGnuelAnXQV45pQLg4DKlVVdACysqpBSykd29ucNoCmNKqzbwTuZBv+IHlgN4CMyH5qlHeKHZrwl/1tt5C3run92t0qrUFJWFqFHWoxe5jSCPUZKHykNYBqzUA1JT9ImWp8hmfRwRfFvKGHhQWaiTFHheCAU0578i6wQKcUGBHB+ZERAwISMAigBLGtwANPKtWVm2fj9DiDEAUwlEP1gcp1fYQEWNaE+cUWWzNfSqbf7El4LqhhLvO2/KmkIHtsDD9Kb+64hPUjlju3Jh8oHpughmtZntThuQFK3YdZI6ey0fjoBgNTr8AJIE3ih6QKcbLWgcAYKuGBc737AI6YmWChitYKGUgJ2lM/TRfNYiSVHiAfF2w6Ux/Ur4pcAKOW4mpIJ+5rOkwAhrzpe8mIxUTb1oe2yeOyLNqa+TB8llzaPXSdXnFINxtSHeiA5HflcKWSTP0GL/K5L0jKHLK7BVMrOODVfN3zt9vbWz+OwN2UzEcGD29gDRUGtMDBpKiIF4nLHWZlEbnsepQqlbJUMBfS9k0KmUooSWUoadMtSPGWqAHhQeBtk/EEWl6ywAAOxl3T4/CBL+WyhOTPyw3mKaNnQ6qsARdaxbavYxO/yAUBf1CXCQS9lqT6urMo2AFJH159yakdZXLgsN2LD35PvAd3Rw1yM8cPywH1wQYcX8fhyWHVYN9GvOQvKSy3i6tm3rQMsBKwf1k9inUdARbysn7DAvFI4lDKVj3AqadJJS/70ATzRdUe9VlWAAaRxHCm6a4SxyDx15Im3ZBugSlrcWNW1HRkq09O8rEflG6xCLvU1nkkisjHqxviUJb6YqiqN6Wkpi1G0BJhKPKw+2oaQLCei1LO+YiqsvixAtn3tK2UM/lvsAd3Vw1077A7PalA6qtAjynokWaTI+sdiLs5rKF5PATR0+cmSYIPNmqKwhmPrSfztuo8tIiklCllZR+vxdeW0orZrQ7VCUwvKFkcBj/VwlkEehS2jhGGUy2WgAEjSdAEwWTcAoXWkh1uVlzT89Xqz4TJoBVQtswiwV/Ort9wGgI98K7neUgGokWcYke65B/zDHTj6LtwGkLptzkrcqkJdoY8nngqSNe7GRWfO1LqSLiVEubX8rZTOVRQwQAD+kp5gQNwiZYlYLuniAhCFJF5cli+bTRhCfp5iCQR5oqU4T9u82K0wtNU6jcUgSVeW20fLNPzgNMW744HYeGoG3PqpH2VjKQKSKpM9S64XdSk8UeaaNEsOCFeQhmJ5waI8N10A8E36QLnjHqj1PHX/1kXEfb21mFZAX8X6aG2Gdy3g6YoUZplTJU9J1M2Aiy0LpjExbfFiLx2g5JgiSUENAhUQKE9YBtCCbvAyKCUgIIQ0VDSU1EpvCsoftwBQGNl6gxfFjfxhnxFPWip6p8y2bgiO8gjhVpZUyhFRwATIhcUIKAVIKUCiMlFOXFkvADNky28BOWnwEsalH7Hh71vpgT5d7qMdXZm7BqSjK/IuZBQGeX0EwJlo53Gsl/DoX+qjncNeS+EJmNdwWFuJtRyReN82XPpWuFRAlBwFzDjAAntNI0Y6Lv2I1X8TsIK2yr8aCNDyQk6UiV2T4BHpSKhp4lO7t7uS7sornL5rTjwBMWWnv8673r5Ic7dFp2yvwpB60j2wGof3X81W1e6/qIcqoQICKUdMw1QXFKVPWUxTWqvYhGUjtOtBSsESMl8AQwsKWGG+e8rTrv102p3lZtm6Aywor9amKE9RA0nWI+Xhkxo8UW4Jr9U7+SQHWUrzQjNZkaurfroGaNuV0RDtI1/2HdBHOK/C73pQfuGjDsjKtiXb4N9HD5S7dR+i12Xm8Finvt1YNjb9t1v6HZaGuvgJmqYk7EyOCZh+9W0ihR+vTAh0/BSOaYx4tX7j3cut0qFsKB4S0xGuaS4tE+3n06t2/w/UYplRBcAipotYZyqCR2Hu9eJbwWuRpXwrfdYl6wFwIr/mJ6xjRDxdVespT5encyqLvUYuEnnKu3qSR11CFCJX7V6VtQ480DPNGcqfAlY1aQjv0wN5F9PfJ8+98MT9vxfR74DQMr4Z+ivXP+i5k3E3+YUPx5oJ2uhNgvKJ+7UKJcfUKRQrJEa4ZN3hZQkrNiv9KurQ6kkXb9KzbkW+9VueFotqWXKrNgLL1hLByqHeIbGlE2dROhKyBfhMu8LxEvHC7VfcMpFFzpBmkAGIXKWsF2VVPMlrkUGHo65iW9coNmDbr6qI3+2mrgob/JGhegYilxyDdyo9kKPgVOpzUvWQCoc6hB5srBuK5wFujlTsDnuLGPnEq5NuQNiQt8vaxgGArJzVVDqn5WwrXsgyKHnqxK3mUh6lk7OryGqEqS1gwAXouAwgNMJ+OgcoOEXwUbYxQDDgGnj1cF55/UIx5QkQvOeKfVfI9HtsSAhHT9eDEVCiReEoQxaX5RLW5TaEX5jkSQJClDYTz0KgJJtMt8Y7tERX37tc5WMdD1ASr/6sRAyhB+2Begw8aEVOtvB9xmrbixFItV5rk62ToKzUcMXBVGZfJ3USa48UkVFUaaxFtRjYCl7l4akW+6E2KyPKrFT9yVyrJ4AkUAeu4kqZbVQBc0hAPF0L8PAUNVKSdYWDppArS0w/ywpgi2IFV1XxtrbIX+aBBiwY1O++KwoCnM6bYgEkuYw6Mvx50B5oVelBazEUPvTAjR4YYOJGl3wKCAMgva2bfNNcObrkWO/ZdOs20SmuLy2shI6ZIt4yXa1qGTbTJv6KsS9YWzMOpxyYCXfrVsdr3j7hot1h/24oYSC/hR6o7/pbKG4oInvA604ZOdrn9qGsXYUut9VTsiK8Dt8oLxW+64tRU6BqttnmvJ39UpdTD0HomdYWVQKiG3Qyvco3gFG3sx5tvLqrj7YNj7jiqVyHNuFmvj7QOExqDoX0yR3hpddaanqWn/4hJWWefqBbl1SVOYDOete8o7Hqjr+jLTyFZm1Tpt40Ka0/iVJXHkXmdqVC42c4+arb2SsXvuQpebuWUzu16vC5iG75Irb8Ztjwx8cKKC3rm35hdx06tFYS9DqtG28Zh8A70AM56t6BppxKE2rlUfd2Fb6tZs2nsAEklK3dtGxFzDQyks4tC7nBJ1r5lhscXdc/Nczbjjwc8ZSNn/TwR/UORvGu4srXAl/KVO5umz2/g5f/KVvFWG4Vz7a19anTFK7rYSCUzC1tVwmDe2Q9sBpFj6zip11dujWtgm5NV3Q2DQa4cKAGeUq8Cofy13TkacEZUsvvCAQpaHh9fxOcwqghDwvXdbkhJ/nWZQR/0AgrX1pHNVBkJtJasEpiyCe2BkyuA/VIV5cFvU7L+IrmojLr4D/qHljd1UfdjNOqfOrpjVp1LQcDSnIVZW2nL9wa0VqlTmVmkx/0VMwVPRR3xy2Nr2NKdp0/ZVAXwuUyuGV8lRaYl3T8/VyAUJZLnm7ersw6PdP2K2vgepw9sGP0Ps5GPVytKwUClW4AkGgGmJWV1Cq/Kx0nA9xUVG5TKmTeslJWAY3aMLph4fTVw+XVf1J+TcuyoNXhbGdNg4d21W2rw5kHvsqt1Q2eIvMG4GaeqKdBfyPyJ+/gP7Ye6I6ox1b/E6yvunSXoqwpYd2EWmkVNnj1PI26YTUVGb3l1qCQyt4tsx4GhEPpzXVjOpa8WdeUmXFyVWWu1Yk2kY5f8xOu41kGvLhMK75lwNPlM/Pw5xH3wHBH7+zmHdOVmadWyFS+umJJS7704cm0mn9XmHJrGfATz/oQxxXZgFIBx6B3QbKbL7iSF7krq62uL/k25U2+TA+/d3sDdUvgWwO6uh5D+DH0QN7tx1DXR1VHr/PsVeNUvJqZ24KS1benDte8hMV7Y5uAyHspZymrI3L1pK+TkCDVJWd8rzJh7raHfujUpZVV9xE8dd46jNzBPeYe2Pe7bI+5jSde9/xp71YTOitD+yiceKtD3VKSPkWZwS0+ZazXwTiQGFB8aBFc5+1kdTlr61mi8CIvlo3z6w8Synut5s82hnxIq1BhWOPj4DsdyLniqs0mwm0V86xyskNctdWAyykIcvTS+iya5Xfy6pRPpbW18YmW9amWhPkEuaaobZkII0959ca3oE5U+lan0uq2Ja/qui6FtuD0wnGp4LgF8H3ue+Q+tb8DIN3ZHckBEn57WuRW+ZmHoVZfhe6BRpgAfuGxNtX8qdIrP0bp6mwiZbazZOWPoz2QkY6wUl1mVQ5v8VvhS7q42KQQGwZQEjYOWKoFcdwJO7vzsf5Yx4ag2DoJxCeZwDlT+rnK8cmSopeX8l02xbMClTVPyT5MTnqG5Ik0kDzUKFXPR4kozmmY1In4pJmqZtS1gEj3RAIE6JgSzjYf+wufCICIA0R1oe2Q3AcCHwHQormWT82maqtqOxZwLabRdaLCn1JgMzgV8HN73MfBl/U3lxKdr86PPNxcmfxfifrxoY3UKe4k7dNdMMrrgDy3cyXZ+csfnwahcNtfdeIJhAdAutOb4OHkgbManT0FjBnY5yWBPCWfhpfHveMMOJKkfAYgR0TwkF7l8bjL/CLLwYnidl386q+UneNlgw+Z8HMpjEwFSWOoAzJxolBJN58S0heZ41PQXcqmEeQZi0AcXZwIkeZFR+YgTvkemxkQyyVmbJKIhrCsmb9sC8joggNrgI8HBKghWDWV5xM5xcEJlFOJuHaHcg6S+pwvq9hRKxVnlJyLl1L1T3UKoKMGNEOle9osfuVdYA01V+K89F1YKCx4FKOuyUUzXQBMWi+j0nLOWtrlxtEyRJV7yIc0hYeqdtTHpcJS8ocUBOkiH+1TontI1hpfdQGY8HFjASTnP2F+8q/rfIppAeUJJ4m2B7l3OR8uPgDSPfR9OxTKr+JaEVaQoMSnojPVwzG0F0XxoGVwkc6fki7f1pdHbaorPNCJd0ZzZoNFLg9Za39lXcdkkq/6xSeTJEfFo6GRWvFYEnEuFCSdlETItJAMUqADHEyvwCCajlIBTMwu+EEHAHDmL5nAqmhJSAYOUTmfzS0fC8myJATQi4LIg4IqPp6LZyqjIqdsEihFHOlwOBfodkWhHPYGMI34faBQ2s8BcsnjminiHxEsIyykmaiUNXF5lAJgL0cX8iWIxpGiuhlEFLNsZBZHUUTpA4MSBFXTt5V+IGKfME5tFg8Hy4UwErmbURc4ECH7SH81QujYLIREOZ8RxUF3ErHka8L6d2puAKR7uSOMhPw1rgqw8lu1RMzRJl6Z4DHFi0FW5Sh8Fa8TM06Esuq4xGkwtmM/x1xhwXLoqZmkUIfi0HbnIxMXZeCKEPk0BUUKl+ndmKwP/gEcLW9IQVGzaiFWMQjJZ8RatQ4yyVyUht/W17UXoXYGEIY37QI0s58kiYojAGdhEXGvuVGS7CZlKfIBPjqvLTVKjzsXfFF1wnIRCRABjS0S2ybtI3Nt+KPMJX/LAMCAJDjqBspHJeUjkylqOE/odDImALR6uikuxeeiezqbzCXPqXgDIJ3KnRjqcUc9YCS5IUuqeYO2TiCdC00NNGD6lW45PpdyXwiXrkR6UnieCmeeCgyeKX4mfLipTgDvJhc/ArJUKBa+9pdCBJuAVU541hwZuKgrtk4KkS8S4MOVLteM+IFImzfTTsm/2YOnVLuhLkMPHNoDmGKeMpFR4GRAEI2FYKZjzHvSXLO+FsUmj+MoNlflRI/pl0BH0zKtTBWlfiofcHoaec1X8oEylRhgkiLwuXCumvywmmRFKt2Wo4GJ/BLoOpl97U+I5i9WV5o7QV1jhEN1Gdu6W0+pAWs95eFiAyA9XN8PJd9XD1iRUzlT/buaXeI2MpI3KuR1nKyb2TQlAmBkITVLrSGNWEvCPREcPJMlEthBsYc6amdgqqtA2LIUaEGpZqAU4gIa/WOKlvGEuQSbBKO0kCYTgVfpkuRB2qm4AZBO5U4M9bibHmDBG0kd/Q2wQBMr1AAJWkQoeUoyS0Z2oA00+EybCgIuTFrKx+zx9qQUm37k9l9mfiliRY51H+AkqiAmP6oUr4KrxW0VmnVpEU8EBOY3rFqhNGjdAViAUQISqTyZ5Iswrbj1LA8au9mCB63OUPjQA3fTA+gwgzt0GZWvnLS9XtvppMam9wSBNpsQQP9HS03b9Hjda0aEmV6JPmYxfLXK74JdRsopvriMJfiEVmUDTKx0JYeSyZP5YS8uZqSGGlHwaSl1IrcuqiLA8eeqlLQCo1hXyrT4OGkReiLeYCGdyI0YqnG7HkAlw9IIyyOeinVksnYEox1rSihriaG4CgIHCRJrWKAExzF3RqH8bI5nh4bBiIyZIf0Q3fsXdhwQkuVNMLVaK0lWTTJRUde7EFxxcucCfDzsh8L379hvxHQsgApquPg23qyZzcoTuGx8MpyAPwDSCdyEoQp30wPoLCrrdW1EEinaHptLk4iPI5G9RAVLJIAtSFgYOMuKYMSVxh7I0fJcaQIJMQBG5i95EpRqC4zMlCTO4lsc2U1N/CIOD3H2G7GH0aBkMNLTsZZRAQSKvrJ+FLcLqbaf2NBVHACFZWQwwpKTiJt5k/vh/AGQHq7vh5LvuQdSf6MYa7WDLVhIL1FZwIo1o+QnfW1hu9Qz05mnxVZI1pMCG0hbpVcZxMDTvZULaCp4YjKpbZyCKZ+66clYgBKS4cBRYpYmn8ylYKcIjW11FesH0AGM6gv+6VR173nyRgkP6QZAesjeH8q+2x4AVdKMsKKionmhtXmVYpW0zO0A1mapPTSS5RuUPIUKq8U0gGH02gyT5rktmTE7vSWa11soApnsFicaeKGAnOXKT2iBEumkBpW/+RA/aUstXgemhRy4S40IuoUpE6Bk2scrNrgEJEdK3KtOAiM/ccuEE/EHQDqRGzFU4656AHVmpVlTMQDKyywoZ/eK8rBe4rE5ay7isWkihTfCyJemh5Kj3IKBscBo9CYyG6yeBxAVuPG7dWPed+O9N1AN1oJ2Cnk3OCQ5QISUdAFGBbayKi6D9a6as+RIAcrSlkA+kgsgRdAUAxBtAbN5l+0U3QBIp3hXhjrdrgfSSkJNPT+T713XrdpKXwkX5ykbIOY30uQBClLdZVFasXpdanKpAGCUgKR0L3KzMVJajmWkF29HeunWewGs9IABZWV5aRNlHJDqOEyzZGvnlwFXLWdJN2sRBYn3h70OVWj1OhHhkV4kpiqEZzNA87TcAEindT+G2txJD0jjUqENBICCrhaUiraKippDXr1LCDBBFU2A4pMA9Bb/Uq+MjMafiPpS18cky81E065tXicRDy/gjkZSctHCcYpAnCTAESyLEo40yljVI8JRblt1cbAeZExyEik9LkXJv9aC9Zg1LoUNuqqWgSgtJi900x/ivc569sh8INIASA/U8UOx99EDKHgqLUBAPICIl0+t9Gi3Lk/QTEKbycNxHoR4Vy24pclFmUXyO2wfKcAFIAFceodtrN3ayyfKx9EfkmOMQRIO9WLhW+cm6ZrqfbdrlyKU8FwSvlJHhQjHczhoKcMJ5Q80Kk3+jlMST/tsMTENFRv23gQwxbwrLi0mFrlni8FCyn4Z/KEH7qUHACEWfP3Y26YF8QQAFF1ABSBJYZf4ehTuhW3nmgtmAKQZr8pKCv8IAARM0z7U9ffFR5l5j00X77exN4npkGCHnBxrQngkwGq0o5vNBTEphCcWswNYKCP3EcFBHeVTcIsjKp8nYqCMsQrkcc3MZpLYTdGa08iWneJqpNfIdOyKl8bEkAvZ3qs0awtQ7tNwg4V0GvdhqMUd9UCqmD+w6adTqKuU1OtKgAFqmwBV7BBrMqDD4/w47wjrwhaPYQTwYbr2DV3f1PUtXTqHaKETABaCroXOQZpLlSY6C8kv36rMa4BQQHVxrb1LAA3vvVF61pB6ceFi7QqbLlAInzTVSWBoMCHMAjf5vcalYOUsScm0goVr4xXsYBt7kOClaAUAqbkWmy6vtCZ2Ym4ApBO7IUN17qAHmKagfK1W8sZYDUap8OGHElMutlScKwQwcXFCpK2j2bd0ltDXmsXsa4oDTFq8ngFGZ3rCrymZNkvGKW9PhAHnzdVcaZMnzXT+QXN2MRNWMUn08zotkLPKI6ABbCQJR3VXdRa88HhP/EE0nMC2n0uhLTcEtibIB7kEUixov/oEkD0tNwDSad2PoTZ31QNFKVdgY5XEdlAJAievZGPFYL3YvihwIVwRWAAZgE7TvBYIfdzMXn+zubr+ajPTtVx8TYaL0nQW7xg5nIMkawmLaDHiSJKLZja/aMZnL5qLBRaSgO5MZWpaZ+tFU7l20dlWj4rRdCy2KVCXAkAGJepdO6UBLIFebUILWaXdbYICGIfR7qDy1hy7tj959apmO4nwAEgncRuGStxpD7CI22poBtFUlB1fF2synsYFLfcHxVRNmxptHb1pFvOPm6vXf9+8efW15vL13zVXl38rmqyk5WtZRrE1YMwh4bKUFj6sTQe2AUrjZ7KKXvtVk7Mzqdm5pm9T1pL04YFSBeoxYR1LNVrwUhz18joR1pycSTSkAqmSQD0BVueFlixFjNmqP+zKZtpqo7HQPxkspKqHhuDQA/fQA+g6KyYLLeyuJkSs3ATwhOZK4QUEEVbQ+40ip/fwGIx4JH4pq+WTZj77qJm9+VZz+eYbzdWbr8ti+rqA440AKR7q+0nWUmd4L3U2ktaK5qMXwrrnzZmskMWTc0319DRu/p4AiT1KT7RgrtrIMloIILCYvP4NkODwZZzFQrwiSc9Eqq2WeeOmrKR6xzYpUDjTPNaj4Axk9hqa89LOcJeXwxpS9sXgDz1wPz3gFWCUTorI2/Mr/bNqAgCtZSRzIU4SxyJB82HG52LKxsK1gGl+KVB53SyvXzWL65cCpJeybKTMsHlvE+xnskCuBUr6Eon2Ii0mWn9ib9JCO7nnmhqNUH7WpLC+eP6GZVRZQsiSo/pcuCVfQzHo0JagGb0MLNE2r40J2Axq4sm8NHbtHTrlyUf+SAIQr65YHzstN0zZTut+DLW5gx7gFY9AC+wFXvdAoXW1jhUVaa8sI1sOuSPbAIG2Y1+AANpBJA8YOdN6juBG+3r0JE6nRo4V45x9gIWJE2tRfBSJ5XN5yq0l7KXO3F6+UjrvvrFtILYUGCzNI5Kcd4ETgEY1KRqP6ZtAk3+0yPkkN9rGX6iyiAxQKpF1JYdFLciEx8yUfUe4FShpUjoAkvtk+DP0wP30QFFGLchIPsqsc3+s4aG4USjaDiPWSQl7+hbh2BNEOr/V8sfT5okWpGdCpoW+Yzaa8uYbdokuJU/1+HwijWfz4VRrSpfKowfqAgltg9RrJlNZRhO929bIcjIgCcw4BtcAQZFgSGCYIriCIARJT4QhiBNzZJOF5aMqTSSh8CsU2BP4JXlgEYvY9dv9xK+GV0fovMENPXD3PYBhEU/GkC2V1WscC3+MkxQgpHaoNNM1plTSVnnWfQXSMrKCK7YU6mBVnLPmI3DD8gDkprKb+M4isDVhrYjpGRgncLrW/qelnqhNBUgTvYg70QJ4s3yj6V8A00iAOfJLZyqbggGQtQomXYmkeQG+TD9VX+MnUz9ZditQgpHaR33TImrXmoRKCUqkzQVGV8MakvpscEMP3GcPMEfBwGGegpbLorCVZLMBpU0HEzxSYkwI67PsHs1/Rn4UT7oQplhPE/EAIkzZlvjKAA0MmvB4XruhyTHlaZZAbD46k3V0pXTWjlgc17twABJrUryygaUkUMECS0DyU7A0bxBGAo/FJB5QNKw6HSsNQFVSC0q0RZnwACX98ysjMMkBQglS7EG60ntsw6J29M3wd+iBe+gBLIgCOLzg6pc/0GQ0ErqU2EpO0Qr42TvhcJFVMCNA4mqmhhplV5jsiAdH+PqtjoBFLutF8RFMQYUe24+Ze7EQroJ44ZZ1Jha6l5qujZiyFTBaAkZlFRq8MeAYQBWmrEKjmm1cwdoJXhSlfWLm5AJFKZ1a145p2lIfh7yWFYfjnCSAiRdrAaVTc8Oi9qndkaE+t+8BplUsRctKsZoaKIoCt9JtSoTCJzixFqRH+X6UzueCUG/FvRZ9rWnZtfZXXxYwAehUDp9DRzwLyhPWhgRgYyHXUlbRSNckMkuW8vkSmBmMVJ9SJWUNNJHH6yHUPoHKoAT9hlMmW3Ils0EJ0CntKkEvYvvdNpVLqsJ8Vw4ria/YnpoDgwc39MDj74GihzZjaI1NHkCD6Y2U1nGFzJfMKHNxwSp2vRDrL4vIWmI6BFgZqMQ7E5PAZCSfdSOesjF1w00lf2qrSVaHrSE9iZNFhJWk/QIqH2sEAFAmX/KyGiXYRimvqlowtqnizkT80j7LpKWy1jSFzKdsYrBBGH+k7sXqYj2pU4hZH/rPYCE99B0Yyr+THvDSSqWz6J2jUu4gSwEBJawXTnRk3YfpWOWY0o1YA7LWlnwhRLQAAXJgmEzEx6yOw/hjnqS4yrqyngsWhCgsght8ogJRIZk+lGFk9HRLLOBUXRXV0xaSyKXyAaRFDlLX+InLGZ4ENBTLVFL//XZ/7NCOzIQBLZzr4dDp/BkA6XTuxVCTPXrAymi+UCqCgELsPSKyUryJNJ0nYWCPscjTOK3lcAwtZxrp5ddGL8ViBPmRvmWJV8wTZxBSaIPjcnKl19bwNW0DgIRcC6ZIPHZnKwC+qrPUbm2sjrnSODeAfyx/4/tcbICoTA+9wCxeZlBcHAdiF9VvtINAchUBqEAYX3AITqiDnJ8Sqr0+iI12u+1kKEH8IteySFAy60oc8n9+rheCT8wNgHRiN2SozqYe4HddCiwltjJLR1mKAXBWDmCAwHSJtRw2Cyqqi3WekeCBdZ3GJz++svGx9AmKvBRLumRyOL+nP8pgANPaz0QL0wASwqTQPInjI4szVeBM6zDQATH9bZZSdACCp18AhkHDJhSqVsACK2YueaySjwQKIntpRxWgVKoM8NlKokwqZkclvfVyFUe2yjIL7VVKvrdGP+UhbNA4RxuZnIn07Nmz5tlTHb17Ym4ApBO7IUN1tvQAmrrRSTEFOEILKyisY6EMmxdZaCYVe6UZ8xiet9z1CgjqKw1Y6Dwj9J49PbaClKqYLvELiEa6FlOFpwIdAwXTHuyvmdaNADBgQHIEbgtZT1hHbF/0pgAByIjD2+SzNykWlcWMdcReJCoWaGIfPLXFhkiFVxs7FV9zlKrMgAxzTeogma2DRBSESweN2gqcnjy5aJ49f54pJ+MPgHQyt2KoyK17wNYRloqcwtZzBR1Caa2wpOYTL3xpviATSQAAQABJREFULNMzczO5YoqVKCEJmBTlYvf1kn1D2lKgfc4CHvxYzEYG0zNAbi6QWGhhfMFTvrEsoInyyB+RX2EWzr21oJTqsgEfqkiN5JeZnWJQ8lIwWmMf0GPFy2Akn1MqsYjAHaZkTNMAn3S2LBWJUyPPmxcvXmTSyfgDIJ3MrRgqcvseAEhWJoGVW9odFgSKm0CDkjLNQfNRaaUpiD+SyTTyHibWV3T5iZvOOuLcbJ15NF9wfjZ0np5pV7ZNGqZfPEw/E0ydC+7ODFYA1pxTI5e6xrrIB0hhMXHcraZaRg+l4GrYMYEqm+pYzx9VmoJV48zMfii/xgJVgAT4AEQ8VeMinvTng4XU06cDaeiBe+oBT8n8ckcAENq/1CseBiL/BYxkFWEkFWwAjLBzPJdT2MfU6rA1ToScC5RmAqilpnhsblwaDDSxY/1IRVyqrCtZP5dYQso71hlJcw5vA4gU5xoVQMJa6qKRDTiDkJLsgCjcCmQjzl+sufABI6acTB4NTCyukUUMgA+A5N3opBcHnXWkU3ODhXRqd2Sozy17ACsIbWSHEJdAiMvzINLqS3BU5kZeO5a+xpQtwANQGulYkaWBRZYRVpLOPFosP5Gv9SZJY58S74uxdoR1dCXQmQNgAp45T/A42pbLwCR1Y28Tx4pQHwBCefFyigawOSxatKMPjJwY+SuQAV799M85NaETYAI8+FqtkktgMkNzcYHVdlpuAKTTuh9Dbe6oBwwW0m4WocdMjQxEUuSc4liRpf3iARoAJJ6mh6qjFoCHgGTOAWtYRE8ELgIjnQbJAWze5wN68GqIrR+tTOmJGedpL3QI29KnR3K+tqwqTfUmkuMpGhYaL+ImMFIliaFcoId633RQw+SJ+sFBxoh5IzoURVk78mK8/vqRP0W1TpYcTwWVl7Wv4bF/2zFDYOiBe+gBL06jgShcLDDHtI04yksa8JMuJm+esknfUehwBDTt4qB+AVEjcBkJhCbT93VOtg5qY24lgBmJ7i0BHC8CmgmMxgKnidaNlqNnWiZ6X2DzQmU/N81fJ/FeJeogfhUIGOEMRFl++qYmRJU8bgcgSlxXJluKqqN6YK0xpQR6plhmYvOGSPEa9LRlgddGzs6wBE/LAaeDG3rgHekBpmhawFVrmKLEdC2mboCRv8dWFNoNBoQ0P2IrkqdsZNSFjntxm4P7tYg9Hr2nQ/o/oyOxL5sLlJn33GQt8cns6VQHtbFHSeDiD0FylG2xkqbTzzZT5RtNXwh7tF6jqV98EED5WbQyqLgwgYiSAKIWjKIFomxwwUi90yVkEZ/pBWBAa3nB+3YCXj1tY1GbtSRetOVp3Nl0AKTsu8EfeuDOewArCECKtaO0kFLLKx/gkYJi6KDQrAPZ3hAGAAxOYPGZp2Oaoo0n72l6o/1LyjDRYjRP2hqdBDmWZTTWRsope5VkmfBUbabp4VwXa0dYSGdPv00njHyggp4LtGRpCazCUgOUMF0kiiK5AMMaVcKeUUq4AkGqa2YKCqnVzgWhcSxk89nLqT5AsGSvkkCJjZHQvBVADwnHbNI6MTdYSCd2Q4bq3K4HWFaJh0yxfiS1k8AAHyTzBgbKzyQOp5SIE0W/QanW6QOQAMmZHugDPDo5csF60oL9O5q6CYim+ggkp0jGlE1fFNE7H7yDO9O32saa5p2ff0ZbkD6jHdzvFSuJV1WkdgWMKIqiecMDC0m4IUcdoHadE0UM1LJ1JFbAKFMih9pU2sGO8hFfR+EVF2HghEV1pdX7k7qlPGR8AKSH7P2h7HvoASmcFoXQR77qgWqvNFaKKi2OZ04ovCwbWQxw2eoQBVXHUvFyk/cLCZQmAiAMGn3OaOynZlo70nlHvKjrI231jtvIn9GWFD09O5eldTZDkiyis/eVFzBiV7SmgH5VZAVIWEQAKOs91DmghukalaD268BEOi59wutgFJR83O/9R+oPvowS793hafNntWGSHKfiBkA6lTsx1ONOegArIyyklTiDkqK8huHXNWTt5CpT+CteQlZwMgmQAkAECtJnWzUAEovZfidOcmSehLUFRAiQUHQWuI0YmtrJwmLax6e0PQXUtE5LzeYtD8lURlhIgA8WWwBR+orKuU4ZclJAUvx1gnngc/Gekq4sIR9HonwAFXWL3dqR75T+DoB0SndjqMutegA9DQd6rOyLUNpIRTFHWtTVt4nEEZZIvK6qPCsBzm/NlUXjaRR/mPP4ET+P8LGQ0oohI1Bg1Iow/CxiJxh57QiA07ROfJZJxWBT9qXMsoUsrrGmcqx+rWq/ArwEn7TmWuwSN87TUaqpf2daeEdKOiwlW0UQ4XEFMvV0/AGQTudeDDW5RQ+woI0DGvLyVI04iyxecCkg1IIR77JBwxeYIILM6SwSkOEChOSZRxCmdZk5CKALC4cnWVo2lvEhXonk2GztEdBUiYVx5WWRXGDmerJ+hEjlS9Dg2aDPaBK5roSrEOaWU9r6qdAEqEgof0sdRwIkiqAAQV376ohBqbQx15nW8j9wZACkB74BQ/H30AOcT4S6emFXYcfls+FIXyMJAOLJWIRHAFRovnzQRRqbcXFjo/AvUASrR/Ch6ILd2mJl03XAUWwxACi8Y5o9RwKyia0qXicRkGkqZcNKKbUzUKjsGmSiCvzNNa7cf7TOZ6wtwgoerSygyF4X5fBgId3okoEw9MDd94DPGPKzc2wPAAgfgAGkACDiK1AyQGHO2NJJsAgoEKOc+PUfkQFKTLuUzlv7wWA/NipCYVGdR+wlrCkapwB4l7Y4Wd9hfRngSAftbAoUIZMU6ogDeFqIUVg1QK7bp1SKwBVhrmPSIkXtB18TyESsES95TsgfLKQTuhlDVW7ZA0zNUjnRW0ek3AYjlJwnaglGnHFdrjE+VpLgQOjQWjDIa11AQyw7s+rE9Isygo7kPLaEp1jxPTS0vzzpK3KwrFytCjgIBoBVxMJPflyNI3WYtIJPybrOrHSDmOdvcJ+2GwDptO/PULs9ewBYmJd1FYAolDbhAmABmBKcsJYAIMWxoLTgy+FsbG5ccnYsILOm9RFZ2CTxak8FRvlaCvZLyatQhY1tC1owaim7AmF3hcWU8gGoCrgI1ri5S+SJpw+AdOI3aKje/j1QqammKbw6Ea+RYM+spkJob14AUVxjL8SILoBizcjrRgaw9fKhrwAhwwARYUqMWvRiBMRIVqDr6hwAkYCydZ6sORbrRSEIUXWuYGgzPcrAAEiP8rYNld7UA34LX8rM6yO2XdipbGZUV1euKVmViQNaghGBDxeP5G0dkVQsoiwrwAY5YTHFmhLgQQl5RTGZp/bJtQ4zmYrMOgV6lpE8UKIlUFahVQQakvKvg4/szwBIj+yGDdXd3QO5agM4xcIvUILCo66p/BnHQtIHIDXHwr6J75mxJwhAgDdVv8BJCDRc5EkCwVMWaZQFyca9wBTFipOoLinrE6VQHi7LjJjzOCkgMLAreAulMGb+iD7GvwMgPca7NtS5twcMKEoBiLhwHLthcHDs5p94fB9qzcJ0TO6AAML48TdyKs57JRVeRE5DBsaWkyJ2s6x1Sk7uEhgzdSU8pmdJz2Ir6b0Nq9JXWR9NaACkR3Orhoru0wPoKDufASeOFfEatTLG8rCU3SvLKC0Wjbng1LM3ONjdLPsqrSCDGqs5gEZwW5JfdjNJf9iTpFya5wFONRysoKXwYsC0T+5qmZmeOWopJS29yKZqEEAgV7iAOOhb8ifzifoDIJ3ojRmqdUQPCECYrqGOnHeNettqAVh8kZKXUxUXCHGkrHyACaVOFQe7gJmlwSaRIC2bVHuV5wxK5zTIxIL0XWIrkYqJkq4OUx8cGTOsoMSuYoV/DYxgKHTaqDY4k+Uo+MjcAEiP7IYN1d3RAwV8AAkvNyvORyPDyEHZ8woLKfYVEQ7riA0BCRMJBF7cFihhKWFTof+RxnI48koOLCWflS0SjiT42WJgl5IT3CCaKZL5q6TkSmLGA2IzVpi1/hXPElUjv2undANT5n5c/gBIj+t+DbXd1gMoM/oq08ZGA6hh5GAqBego4kdogECAEFYRMIOFhHP2ovP+DLdowEfm8EI5jMX5RV2nOqeKkF+O9ri5kF4EtxIRkuCk8g1GrnBUJAtJvyRFVLLcyFKuiTBwdUAuMjyKvwMgPYrbNFTyoB6wrgqEdBgZ74jx6oQV1YfrM+QBn4CYOHtbfFgV+u837wlKBqq+cih65RJHTMqIZFpMbRGRVoNGSoUHmcpjq64qL1kse/UH8notsND4F+UHANKuDQJWok42NADSyd6aoWJH9UBaR1JylLf93JDACSBiisXp1/6qiHzOJuKySkuPwQbCvF+GXrOOxOK4nYFNQOJpWQCNjZRM1pQt+PSX/AiwtFYARDmXEMHyl3JD7hp5QyTkAkXecR61X/GWuq8Ijyc0ANLjuVdDTbf1gK2MoolGFY4CEfgwfQKMWHAWoDBFy+maN0EqvuAExSI7YCYgA2lwt05yV+s4sZbktHahWgBhBIOakhKMClgZREjHQpJ056WklUtcW1HElhUU0RLLdG0FSjAgs2KsBTyS8LsHSP6p4QbrxtR3sdwQD1nu6NoYyGHHwmW5oZbT5ctBxo3PgRaLpmMNeD46yAIqF0eajjkILB0DVYevc676mX5+r1XOQhF+wb3oaj7x6JHzkp9kP3rmiU/+qlNHdsqobCWvnjxHnZ2iRzzoH6enunlZRT9qQkWSQGFSKFcPzlxj0XDQkRlLnRsdEigTZRUjCuAzfcK6KMu7lhhdTrrYVT+dFBSP24uiLth4SFJxlEu7lwYKVdbWi3x/skdluji1hUVatSmsGqX73uCXJ2EuL6VCLgpJXXWkCIvQbHik7gs9mYpNjxW/gnmbaypiKaV2LgpZtJjd3zm22oaJJiY41h05a2rG8bnWU03o/MmiTG4rFvkByFhYT3ktQ0fK44i+Y4DUdzMYDHHj85ZkzD53u5ziF3x+jiJW/fYIVHg3HH32Bxr0rSveEB/N+WQDJwYWBZAST/R1h4kOdj+TP5JiTRnpDFy+tT6TAL1bxSDmkPUL8Sz4xrreGB+dixcA8/PiqP9IhS2tiHzhQtMJyfLRPbxFTmUkc+TFDvjFw5cwlHYtNJoK7LxUovpz9vxUoOB2IoDvjElJveVP+RHlF951eD2HifHJn9G1Pu9Ds4oSUUtkj5f6OOLkjfg+kRwAi6kO1oWkqQAun8YotMEqGc0DAGaiA5LzMu+ZiPFMfTCaaej544kcCauLz1PrSA/wFkfdlkqHxBrJmLOFdM2Vn7LYX6RPiwVYKj0ySj1Vjs/UVh/NdALjXI0Z6SD+BZ3B2deirY4fCfAEQDk8DbwBgrl1DssnHpAYEExtVk4M7t24b0ZS0vm1AExbXuqXPJmfvNBUZ40L3yVIZE9WRWtXkkXKvJRhCfZjGqq0PpQtHKfu6S6/Sy5vlNrk+06cwRA3bq2lpDNupC1LBjusHnoOlLjEaGCHfmrw8pXSxaX8S53xfiX9QPnEr6NKp1Kw2WziD/NxoPoUpZSpsuQTFNcadLKOMEmWEx2JOh01FwIR730hrwAxBnDU81IVm0vuSPVioPq77KoE4yzGKm3CiSDl5rPN15J3betKoCfFQ1sFmV7/kARzL2U1cFTqWNpmmVgwAsNG9ebs6NFcX1wVggQgRXkoJk2Ef6kPHvr7Yvo8EN+6d23UzoUeR2GJjKzFVi2FsU8AUFlLKsOH2NMaadu5+mq5FAD4O2WAGycqCqTU17TJrVN5lMtpi2OBCJ+zHgnIuZdztRMrMEqQGoJQtBEUw/ySnEt11qV+BGYCo0kgs7JyJxOQCHNSUdigWI+6Y6KFw9qhNKBiAqhRd8U51ZFasnlyZMvO1MgEklA+mc0VZBEy0PHhVxrVLimbsKQrMXJQQ1K4JAvfdVLwkbp3CJAYOvz6l5uDAhHEkvAg5A5x09Jx8zTMPJh1YzNJZCuE2Mg/R8k0cEcelBrMra8TB5HN1yYADin1RFoyRlNQapsFCFCdFlJHCxUv41WWykSfPObLoUvxk08F8SMtEBnpAzuwAVeyjJTkH3XVk6pgObliAIBNISmowGiGovpTN1JoFYO6yXPLz9UXjPtoF3/5tVcJfL8LxmuVNNYXMbDuZPzZEBSZPqH11i8AUhbUcqEPHvK9MgEEn/NBVSeqi98FE/9YCilPmVS6AIJmMV3Cx2EhTVBcWZNc+qBzyFNalEO7RKJrnYc/AiNZZLHoi8XGJTIFUUG3Vg1RxqU6bCafD1xfq3ELfarI0zesJAH1pDoxknzAH9NgW0mSy+RVgsrfTGeCTf34K0fF1A6DEpV2HSLJlSLNmxcrWgb7fIstsi2Mxq07fg5WTrweUKUTbI0ptUWzlLXK8VhC7xAg0eWAksel/jKqIemPQUlhD9y82dy0MpjkoQRWVe51YSEOyFmQaD43earfVH6FsGrkNPQ0NkIWyn3FVEW/0OcSyFfemSaw05c5VwAIwilE4CW+mSyo2VxfQJ1pOqQvWeg33Re//h73qj7AsnKAomwfowbKpvwqS3gI9glY+KVnChjwHGsoyk2x9Ad/sJRoMOijcvIoVyOeGeHb7BCzUDm2FVSOp0gC6nqNhh6h53D0Jzy2fcQHGKrlrofBWi0e0Z9kkqM7ASRXhXpz3wTq1N1lAXS6wAJe24h2wReO7qbdCyktdQAwwyEsL3opCsQyyrqWKohCP3KRorIQYBAIO2odIEhcueBOSSv6/qGs77Yclfx92LeJOqG0dwyQomcZkCyaMsy23ytSPdTaW4IiMAT960yYCIMeD179AmO7hPYongUo46WU7jUAMdWbUWeL5pkkXQh0/CFBWwOlPAa2BC/0q73UWpQmFxLOBAtQeuP42L5+qUda11F7xq6Y1q/Gr1SmbKixrpF4ta6znFzJOpJNACKVCvFSKc77a1xH/SmgwdvtSwEk+cZTyTv7RLk+UTNlsWmtqO2RMub1g2+gW6qs0US8C5U9oQ6XkhOg5sLKn8zvNSVbJFJtl60yxb8o9bYMjoL1lJkvu3Jete6aqmrjU/1H+/hK7Eh5GtoqEEUWbYk7VZVc2sztGjPF00Dg8jSGBXMuLDN/0571tDMBDtYX0099c62IivrzlwsqPv2HRx+LpvscICl50OUoKrK4w00b/hzWA+rNT7krg2lzL3QHFxnqS6NQLEtpkFStuTzn17tpXmm860fcesMiNu9WYebDHPgmsPTahiyGqQCCzzFLwljgBBgJ2uQLApVlPNLHClFOwMgKChjpy6lSUkBl4QtFR1nQFeVT2fiunKkKKWq7humLgHAx0VqYQQaF/9gKi4ilP2pYMsnDthmdCRynANcr5VP9WNQHjJhPkskF0lcMKdFqZzACXFRHlbmYvtEXXwE1LZCj3F5DA2DOZAtd6GIqN6M3FSpAPXqltgYA+txsygQUAGqKLc5v95e+9qRX81csUxbFuZYLpogCIT8x1LqZwQhgkpMc+hvnuH94KuFtQWED8YDBdqh+/AxGkXX4e4seeGcBiQGSeuLBorG7zdU8tvDLwLyZhwGqC0UoA5TXB2aKX+sJz0zj/UqL1nrcJjCSFaQnbFgKT2zhMMwFTphdmAAssmJBSKlHKLhXkAQSAqSxFJMqeK1HU6wRC9V8vlmgNJKFtJSFBN9M4DCbhoUUj+LEJseTvpiiOuo/1AMFojzWVgCH6UQgJ2VvmpcqTJbfuYADPFlqrUhm4lz19LQPAGkEWrKkGoBR1tFCgBSWD1MuWYUCgrBLxVZcTuNyWreQhQOYLSXPAGvVZxVHIClwkJ0pn7oz3ZLlaHDDGpOF5HwAIbwCBW6ULZYsTb5vC+Cj6ZZu6oKHBwIg1vlY9/KDAvmNHi4AgI0W57krwKFvOfnX7j1tSg6l4YzaESSJLHZCM7K28UIevP174BQAKYdA+vvXfhcn4yiBqA1nMSSsr850xTFtG3vuxqhDBZQXMFE4vqGFDOJMM6S44uVzy2y041H5lZ7KoRRTrX8whs8U9oHrtlzKwKU6yAWwJEs5NcZRRg7EwGriYi8QKCGLBKVk/Qggk8+0b4GCGmyQpSStcfGFVu+HQtWwGCo1ca1ZR8LCYNHXio/yo/SyInjWrizkYj0HC2ksQFgaMJmiMfVSPiwfZOAogwxYeUyX3S7ilYOochtZSlhLADAXcmO1hnYDNlhIlCorTmWNabcuHixwD7z+hflZnIulfFbzRadKfgKmfvC7Z+pv7/Vi7U9APfL0Wb7aOgasxM/wiD+lGcTdJFIogYsyS7mk+Z5lH9BmEXO8iPMRuezM9B+s6m8TkGgsd/UtuBw8WVQ3vrkquUTQ5mQQM8ix5ZWNBesxC6xmRKHFKTqLshM9op5OL6ROWDdMBzRYNWhZ2oEdFfPn+/Rr7XUTpnJMKfxkTgP/gnrma6AxLagXVl0QFRO6seiqP3bGG0dAD/2ea87IvigsN/+685RPTP799pMipApElR/AMdCqdoAhYDMySAEGAY34ACPPrngaFStz9KFqW5TZaisQjA2PCGZRXj6V038c+6k4idH5jVjKbHks5CMXn17DUSsACJ4oy2T/oZ0CGckDfNnKQDlun9mjQGMl/cE9NBjhM+R1MX2z1QQoFQuJvDiJp+qBechSPtc3aqbCzRbtKuUCTliYdqTTI++M696Ae2vY2wSke2vEumBWWxgO8ZyEmPfQMMJuDGz6OQYvMmy4iET+HFoTXvm2NHkol9J5mmaEwSIivwbiVFbF2QQweqKJwBOBgqYkmp6MZMWggkhhU2Q8neNXWV0vMOKx/1z7lKbXFCywQxlcIqUaNhRLAEJdbSNYQbBODCpUR5frCdgBmkJBT1sEIl6/ct1VvuQHr3sm2iwKlklMj7BaVG/DEzyk0RsztY2eySvqaVnItmMKpHTFwzJhbYUyUc6Vgnp67FogC9BJMIoW00rKCehalRciwhLh/mL12PLxHgD1jPuOuiov2ZADEfDCenJYPmCtu+S9UGoAwONepYoaJ+R1HWmcq40c6sQlosGJTDBAo2DCOMqHNrhjeuCuASnvUF2XPlqdfofhACMEMh49lvjjwQm1DCiC21zJbG790RAVN2sWoTAhOWgyJzR4NcBl/k8m2l/kNQlZSJoKTLQYPdHo5huATELYAGhFYEFVwDHW1GGh5/VMIawknnJ4KdbwQPkAED6N8FMr4ta2UAD+Ws9Ux4kUlKkhi7eTAkhWFD6EiEK10wnVWfzkQxGZKAUgAUo0nid/wIF354gDOtMqrKTkUd1UOLWjjgAsGy592qItSPpHLqrpegFMJaq6UE5cudWBLYpMWJEJEBIDqqity7DA6JWovBugMtSHap9BBTzIMqHrH9Nm0lnc9hYMQNu0wix+S6U6VFsR+hFn34Aa8agzBYjB1iZhrqwXfmm7Qu+Yo6Fd10fr8uwdv0tAyruSFeTOPLBTFZiTaPDYSopgqZOqmb90HkxB5kcPRc0xZhZ+NZ2sQQ34+H2G7DpGrsrR4J9ow+PFFWD0tJnOnzXnsnqeCBieoAjOzw5nPcbnNYmZLCnCZ0+V76nyaxG5ka/pnladxC8F1+XpBW1AuaT0bPzz4iyLtVhZUi6DgdLhQc8NRipzYlOO26B6k2Ye8ojXFho2TynDZaKgtDT8sOvoPdsjokYa00Ce4C1URig7PpagWsnrKepALDR6bcQubiwYlUkdmKoiL8rI8qIOQE9ckqFQOACQ3qPdXPRDWEbe2mGZ4gVwffNob7TCFpaszqCIGDfB6ZYFQItGn3mYkM7DBtGpIUY1eUeYoQYl6kJK1i19aDjlJQNy3n1HK7Ol6d+61YyEY11WgltwEi6HR10ZwCV/7Wp6hrvjx4MQYmmVrfIcaBAFBAECKJNKFMNIwLN8Lf9DkT4UlGjWw6P+p7Oz5uxaUwOPY3UXT3ekkEzT2B09O5cNoMdykyfa+Tx7LmV+Ib2SPwGYuMSvx9QjWV0jrBwWkrE+ZKkY2PSqx1jve431bln417KSZFlIOSdaw6GGWAhWVkIoMsBj0FCZyj8SGC6nlJWA+EytfSrueMqnzMqTgMwTKZ5OqTy/PqL6seucy5+jVrt4Z83lqw4q2qAlZcYaXBpE9YgdAJ7pcrl6HUWvpDRMc5lG+UkboMXwYkGfKR0Wm3aJq8x8py0ANqxCo4mmijwwCGtOWe1EYxFdMlgQV2MVZpQgmzB+OK8XlXueNPuwQG9BifwQEoQUtIvMMV6S9qn06bFVxx7YBccCUt6mA4t7O+xZOYaOhw1/FPEUI8cRiekKzT+Y0mIvGymNwbVgYyMTB/UUFoKnbbylj2UhJeRdtdHlrLn86Kp5/Xdvmo//Vnt1Ptajcd55W2gRWO+UWVldlpCK2ZPA4lID/PUzAch3SFkuJs35KwHDC73YChCN5WtDJI+k/YqGnwSxHI6C0joaIyvLgPRUOAUgAQziEWDF6xkCESuRFKWssUy08I6VNBfIGcRkoTWy5hoDAqCQoAQNKwVHedFBAVLKy14elQcI8oIsYEMH8d6aJ838CqjzxqKNZVH6TGpbTeQJ8PSLvAZdylIbVPZcZa42KQKEABGWF/IAT4AZGQBhsc7Y9EU7xRl1JSgQ8y8L/cRVgMi/TIQTjGIQBJRU2SFLLJaTm4JIXeEUygGWpJJqW6yqRpv86QzQSwe7YwDpxu04uNT7zsCYUS1Xg0gFaoD5xzHLJt7TZYzjbCD+3E+qNNSYElggf2KqsUTRr/Rb/sll8/rD1wKjV803v/z3zfIbHynfG6nTpYDnqnnqx/+swFw313pN5FpK9Yn27Vx/8LR5cqXNfhfagfN5Veh9pnRSzvET6fdTzR5i34zfmcN64G186o+CLWTFWLm1TiVgmgAMkjtRWdpn2WijeDREdYxjPsp0U+tXBhCU2xaSQOgswAhLRXvL1VbRxEdZPKlzN6Gg2oOEhQQgAUa2tAAdARIWC3zxrp0WxaETZ1qn/pqKZ4ZMrETK1ZQ1ABAQDgsJwIt1NoYl4Ca56jNKxjoCkAAjgM7TU4BQ5qfXhcTpeyRuHGXzgm/IYZKoX4IaiEhjAb64eKImkjtYLQHkHBaDora0PQbcK5mt9d1HbWwIlB44uFv2BSQE5+05/d7O2vZ0h62k0pKwNtabw0DOYQqoLWXhMGnw2k154mYGMY2ulfLmqnn5yZvmpQDpo7/5qPnal7/RLP7mGwKeaz3Fv2oullwqUNelTgl4LQWaSblen100i89NmxdzgdfTl82Lz181Zx+oQCyKCym7pnZWPE3BqI+PM5FiB7jotqHcAJaVNI4/8fqRyomlaKwAcuYFiEq8okzbvHPZVk7sjmZKxGZMLBF2MgcKqRgWV1R91n7Y2mCQEPjwdMtAwJoO2iq5TA99PArKLCCjJvS31+GoF1NGgMqAojYyHZWlx+sxWEhYZSxlx22jjoIyfiFYB8IqKmX5qZjKiPsHd+RwJVQRHzGCuat7F3uW1Be2msq0F5Bj96eBnV656RgHa457qP/h6lHilTORSYR+I2dkGf7mTdraE/sC0lYhRyRSufb2HpF/Yxa3OiXL9xplp7B2WoEUNNSDKDNBjCEuneIkizLEIj16lbAu3rIWYaFp2/yV9tB8S1bRV14147/Saw7XsiwESBwjwhN9wO2NpjRvdBLApTYFvmIJR++EjV+8bt78g+tm/lrLyzxxlxLa9Jf8/FVmQZ6XZuPnm7I16Km2pitjWUCcweRNlyJOeAWFl2ZlKfnAILEFM/kACZRb0yHl5akTlsxUVstCb/vzBBALxMeAqN4UwZMr7/dRWye0V2Urly4ASVEoftQvbjqMi5yqL6o5YxOn+CiX3MAN5yFhXXKcyJJpJFYX60vIVzW5Z+QBwKAhCexgT5cP1feiXAJuAIvXmnQv/QRSa1acMOAngkZg8bL+pssWl9+/YyOoOhy0VFvpHVz0UoQdV1O4DzTWmBQ3pRADElVJlaV7AUMraSXjkYa4C2/dvW1AopF57++4sUWsPFQChw6vhlohZKLXFlCRyhURVBKlQAFwnsaRxmD0oFM+KdByql/t84vmbKqFaSnP+Rv9zn8shfv6qPms2FFxTcKk5sqmWumlDyszkHMlg2D5TArEWxFXsjuYythC4Zbkr66CKgoAiCfMShOIeJOj6oJejsomyKniEynWRKA3yd3cUjYUGIBRSMI0DUKp6RdjhqwWTXs4a2gii4s1qwUnqqG/5FVzJdJrxsiPqaoARCAxVSJKyA51OgtM8hEtKi9OEpAQuk/AsxANbha8pwAMggVKfumPVzhUNlM65fBy10Qy/UOi/EsOspM15FvBrwON1sX+LoOu19UUZjNn+yqOypA1y6slHM625MQF+bac/BIzFpL2ZwmYRppCN6zX1Y7yldcAQ7e5ITQmQvSfMomqVrWDgxbCjF1IX70zLhr+lpqTgESh7vq3VO7bKYYWle5sG2iLKOkoqvSJ2pTWO0y8OBax/c6UBtkSRUBTuFAq0ILpj8Kc+vjkctS8/2qqFZFJ8x2SjBXBhEgqZ+XFj9LOm9evpGhvtJh9KetGT+I8XZKVAhhRGerhYa0AMyAeXrWOROkl06mlAMkWEhaPcuncSCWonrxnBlDw698KQ3JctnoMbrJMZBXxdMvrPii9QITCgUUVIbAtmXLaIhZAA5AdZ38ARGL0KzWaDgWrGA0gqhvypLwAm9d6VF+fv8TDAQ6HkzSayIDkgE3XTxTU2z8EtBdU0sVOeawfAwy0gDL5OD2hE2LQBKwkW8CAFSZWsZIavYzM5k9OWOAVmAAYZ/Z4AYSV6P9BpYyVA4hw+ExX43mmxEMDoAZ3TA+4kxOQjhFwF3moBHcw/buQuS5D0q2Pa2NKkXrgSGNjQhFZqRCDkj00TCuKYa6wlOaaX2ZdKASP4EWb8wKtSGd6nP9CU6APBEMfuEkoFKUDTbZ/ZAMJuETl4pURpi/n7G3SgW0jzlryWGfVSpMQlI/pjcJYexOtQfkxXS7QUr4VPiyQuSoxYwFdygZU+lUG8Sz1sq/rqjBTG5bCaD7tjK5XuPQPdNehEIzfEuZkI5saOtcGSZXF08IWpN1OiRPNj9+V0S/WSiAbQ12eOnVMQySNtTlePnbDqIYcdSavz3JS2wOE4acP1VZdvMzLMbV+2dhmHvdA6SrXPxSSAudC/TLDCqP3JAsIO1ObWOOiLgjHx5qr1rYDvBN4xRaO8rnSRc8FBNE5vmnmcPP8J3kfjV9GQNzqh6r1QwPSvbabIcRQ8aKrhykDCUo9uBS1437EQMtQDFwpCCn8EmuQ+zE/SqcB7XUQmBmQpMMnZkpQqkph3zH/UBGABR8XdfCUEJmAitI8hWBKI9kLfs2Z7si0YBGYQ8YMSJqO8aZ9M9fltZAAR8riXTCtWkmW1qNkrTAJBFmZ4gEApVhVkjD5sBTka+Gdw1O8huN9VkVpqWbr9OJt+xJuvPS6sCWkuqq+LHcb1ZgeCYw4F5x6eMuE14ck02mAospknWtU1nGQq82i1M/WiZGi1AFLhkv15YgWpmVLnTe1nEa5S229WNmTapdBR90jC4wXnBHq9a6AO0VlmXk6pyS12k/iVPVy+yBKRniBM4wV+jTub6TwFyYyFuZVQknr8q8xDJENPXCfgMQdybtVhzdUxeSj7yLDhszpIy0LdwClZACScMNFsc6rIL4tJDHLeNGvpgIaseAG0yCDE0yWpuEu0OAoXF68xWjhXCRUFohALVELymVHTQzteIl0dq1tADMtaM/06F8nRo4BGfY4SXHJ4dMDlAHFYiZ1ZgDS3hwAibOBlDeAhSlSvKCKgl0bDLREjXLqcv2l5NSd1kEDBAHIkcAogEnyVCZY0J7eSKVtPqgSHJDGaQCAh0CRo0diOiTQEThYLo1Vx/mccdMUl2tfdVG7vKbDEy5AhoV3gElhr4uxjqb8KwND7VJbqaMX6gEk9jSUc6Q0/3Ofxx2TGLUbcOSoWjZkcpInlq9f6GWnNYfB4RuoaJz6Oa0s8YvZvy2QwhHgjsm3qUgDceTFEVeY5icJ8uNy1H4fV/PV4X3y7s1zn4C0dyUK4z3eViwNDZ+1biTCgCuDirB+Em0IMbrgVyprH9JfpTHiigDCSgDiGNyxVE16OuRyhYOPlyKQx2pN/mZD55gQD3qUFCtAl+VatqQoE/zIwxqAhxMmlyizwrE4yztmAiR2JYu20CYkrEK+L8DRTIAltfMb+5pqYdlEmKkdgCBQwlphigOjG06ZlCfriWmSAUk88FNXW1kCNSxFWRw+X5p8uvwZJ4EDvcU5UfzjmVdMppAZINRaXExF4VNfjNh2gFVIp1MnL9Dzsq/yeIFafSTfnzWSpQQAn9miki0GkAvQOP4lLg1v/aJQMnEW03n1R4J1UTsu+l91Eg/1dArtaNMKIDnOPXXiykcELn0EPD6XtX/wmj8EINH4HBF3e/s2SMsCe3t7LY+smrKgG1WMHJjujHVgxY++NaZt9kvwUp8PmmiQkzaXPxcCcOB+rOIwgLk8oREVqSzTAmJSDtaN9AmiMe/G6RylpRZbDICSxlSHoQ8gWTfJK0UM8FI6iVRK9cfWsZ0joKQuUzIIffF5qG6LTmHqOAOoqLcAgHfdvIucBTADDcCgIM4FFGU10K0Uk7azEMWnnBa0XZene2qgz2dSO9xy1cdnBNhSUYskm6wYOLQvCsMX2PBLAM3AzxM/QI96iSbwc7Vos+o113UdHaAoEzLyUbaAUS84M1EEfOLANx0Jw652LdrzvJOtDaqFLoZ+3Hz6gu0JPiZY4GbRLpG6xcWPBP3H/eTeAbEhR96759zdalb6b62F+wASlYo7t7lam3iyQdvyb8q7ubQDUhg2jGM7auEaZbUKXUSAIqjKgfnuwR/8NuGlKJ6KYPKjPPzikh1lFDPD9I1+nT8+ixcesIP4h3pw2D/PzziQ9aX4Xoqu3UrNpXgvBEbXABJaIJn+hRcPXc5fZEjbFcKhEFIM8foLGIX/SuVeKnylUiajp1JW7daWgjFVY+3pjLrrkf6lNmRe8mjfGx8FVbKIUNHoFFknAp54b0wUl4kyqmXuAMI41J9PLmljJ63TEzLKZZme85J4DM5WUq9oCYhmPE3z4rKAUv8m7HuiHdp/ZFCnFw14yFYYXjXZj90VdzX0J2ScCTjUDk3tLtWGpdadZDcqTe1TM7gHbOD0F1jUdjag8mrMTF9Kmcmfa3f7WLvd4/ECwKS7ovK8Jm5ApNcDdgCiAE3aDTCStvobsbXR5dRH/sdDeksbSN/Es4lei9vJsw8g1QJvE6YyqVl1+DYye/MyTHAa122BJrg7MlW+fwpzUAUo+TttVS7v+VM+ZBmEWKBl/pdO2Zl1YXXoYNnm76W8QJVWRQwf/C7rtVApIQfOLnQI7ERgtGx4D5chfy5l0jYktMkXslzNKFFEgEkAZCqMugBF14EzFSeSi0U2FShpgyHP8aR8+f7cSPuKnqoRPNJ/bUVmF3hYClhTbNxkAdygAzCocO+2NuhRE4GUrK2Ea8qfKd8MxZfCzwUQBgZZMwuDtawXTS19pK/0+FrlR+unUn82YdI76g36XmW7k2h0cQAipdEZPAEjpID+AMZqo8p9ox3eb/RS8kLvCgKhrLFp5qh2qZ8AQYHMtZ6OXguA/K6eXua90nWu+FSv2wDObDXgrs6Vhx8P96tCBDmbPGw86sU44ebI0R2Yy3LcEwiuGvR3z9WtqsP32tK7BCQqzchJv6/i3bSMp9+X5+5obe3KAOuR7FMORQ9FUGOoGZcdVK4yKMt49VMsKeOVHtu/ktWTS9m8sy6bRSrGcjYW0ljW0dJLw681VWO6NtO0jV/0mQDmnCdhbFQsBbbFKm8oqQJIovpWDCmdFHuuqdO1NmdiBWA0Yd1MtRg8FkpOFeaT3kxVrmU9zdkEOJZlwZ4nLuVdeiGd0gSRaDaP0CnHC7lMTkjDSsBnU4EsJMmbSal1uIq6RJaIplWsTS20yfFaa0QzmR3sUL+WxgbUxzZRDvFfaJrLES5Mt2JrgDg8HQUMAAjWhihKAtzVtJmhioV0pqOBZZUBhAAZDRb/FF5ZXbZ4NO2e0Y9LvZun0xMmejdvofBMoLTg/T9eWeFpouoKGHlzo3w/HVQfRAfTB7pYKzNNnm+/yiHJNCqneIwWiI/Z0RBc+hG7GU96zdvNU/McFN4GSH093Uc7qMAdzHfWsE3l1A1YFcYI42kZuVa2AA+lWF/wDyQaYi0RCxaHFkT81IqFEWXnHOr5haZEz/Rr/DkBw6VOkNSv9YWmLFfawc2TqCsp4BsByZUUcvFMSvFEinIukBBAXPH6x6UGuA5sm2t/kgwBDwWDnZQlLAGtVwkKfPwt00rF5hNNlc4ECuf6jBB7fww2ssnm+rKH4ixs+3PSUtzlWJ84Gr2QXn+gzzS9p+u5ZpzaEaX6FM2XT5CesdZpdOZmBToH6+ZcddEFuOn9MxR+NH6uWgHETNTiINqZFtfVJLpKFOyJFwIi8etolYXqyHG/AAJTXqM+1pX40nKi9AlWFMDr+6I+03TrWttO58v3ZKUJ2gUqYwHGXFNU719Clu8f9wp5+vx3857C7yuvwEkW0lwv9nJSAX1IfqxFgIzpOHZogg/twGqk55OmgJzKYEDQMHSX9bqoIImP0dGA+3R98vtorkMfIB3SwynYQ0YSM2/62dBuHHofLfnvz8+a9pbA052iiqodY87LRVQWvWBs4iBa04IwlZVz8ex5c/Ztn2nOv/Pz/pWfzvSyrI4gObt+Y59xywutvCIylzI+O9db7t/+Hc0H3/5dzbP3P6+PYHxGBeitd6Wz+7p9SZVeklrgLfRkTZMTBYjruBKDi0DmQgCjUwWm15qi6NE4X+sYaQvBRNsKOBdprI2MvLt2JmXmu2tjlXV+8e0uczxFYaWkSg3FooNQZvwAo1heR9nDdls2UvDxB9Ljz/7/7V1dqCTVdu7zf+Z/HEcnmpHgVSLGB4MQEcaI4FMugg/hvsgliZGAkrz6koQ8hBAUXxMUgjEJlyBIBNHc+ySIYYLJg0QuXhH8ebgikYiJOv7NnJmT79tVX5/Vq9feVdWnz8w5Z/ae6V5rfetn71rda52q6upqNDUchCL+Cr4DcxF7V/zpajaJ9OOMaML8fTqOBcy7vHQtvnFzDXZqjqYmlvas2BDQ4HhFefpSL5sjzy8xxXiw0aS9I+7hoLGMFuG/cgJrxx4bPvlbRnPgT10vsXmkvUb4YR3p+i3MubmEy1SXj2Pu4zjS5bYib2hMvKsBuz5/lQRg+t88Mbf8FJIZt49mOwC2tpTx+qfDTeZrXw1uuB8ekyxKe/JW9jG8PGUbNSTvJJnOfJdqeFm4aE7vccmi8p875Vuo71uHi9GwG00s7Rmlkz3Ye+Ib+sDB0ZHjx0fXnL5pdB7HKd/f8H+jQ7ggaR331V678M1ofeNbFC32XninSBxq8J5H55dwI7QT140O/eqvjY6e/vXR2onTuBvHMTQU/GXmIRYWy8clFBmbGedMf69T4fFTLZylWsJezvpxFNy50To+YVrmZQH89AvviYUL348O4NYm62hUB9Gc2JDO45BuGXs1iyvwOXhytLKGb9whBm+OxqbDlgMgPTdPPMeCU7tpb4NZYPZ4mIO9idUT6GM4PX8Qc+BQdQ2HiPz13PPYM+Iv6TafQnLN2AisfwFNYHHh+tHaynWjZcw/WsKeGtbTfNqFHKZmwnNL/OoHHqh1vl4rPCRjLrgXhKaytHZytHYJ8+J7hIto+qtIDg8c+eE+m8gS/lBswnkN567Oo4ltLhxD87p2tHLgBH4fsmlKmwvIPc5/pY8aeCjIfjT1xuA7gCvgg394KNOIMgYbJdacfrSSOWubYaOk7Z4aWrCoFu/lLjynz8WR/ZgOaUhjJzCcwNep1Yu3dpaX3tPeC/eOSc7MwLcQ30p9Fqw4/OvMrWxOYwSe6U84THj+Ze3A6PCx46PzN2GmQ4dxiPY9yn4TjeAbNIWvRwcv4D5CaFS8/1C6EySKc4SiGB1GQ7j2htHo+tOjhSOn0k4KZ2Jh8TtizQWZ/OQIcdGkLuIvOvc+cNoWBY2DOBx2LY2wt7OK0+UrKEseI+FXT9JJ4wvnca+lb0cH0BRX0RB5iLmExrPBT5lWDo9W1k9gxwSPZTQGntfBeRfu/yzzc/l2cCZ+fYWfqvFcTbOfxsTgcBR7KIsHcUod6zx0AfdjWsHtVlJTvMibYWInB3ubTHrag8D6cRJ64dJJ7NFcj7Vfg/rlfZCwl5JeGb06oNw7Qnx+abdJMZoU/i3xnkloSCur8EfzW11DY8U5N/5QCz14C12ciYM/HmjMB3AdxHkcpl3EXhX35JbXr0MzQxNdPoaGdxAnvPnHAQvFlDwxzabffFbBQzduI981njZ7xFC0Ourx4F8OrJHvFfalrQzSbtcPbkTXsDaWL/n1tZuIYRsSA1yuXGouTycWN1hoV8+3N98iGpQnh0e25PQ25KrSH0XuCyApW+ok8Dtu6V5A+Cu5gOuONg+hOE6eHJ04dGh04NQNKALs7MBmCTdpWziPz9Q28D1/nmvirVvZqtJ5DBToMprSARyGHEFjOIy5GAtHLOwJ6f5LqJJ0rop/idu/wFwfr+BewrkYHm6tpG+vY99pFedoUGRLKHTu8YzwCdQa5l3hr59s8A6W2IPAvZNWebJ3EetYxyEXziXxMJEf32+kvTI0LTQebW+60hldId0Lm5cmtG8PfoC/hIuJVg/wHo/Ys8I5nfQDk8jHOg7fVnk+Zg327bkoXkW+wFv5bqA5bGDvaJOHXto7QlNgZMzDwyxsfapqfi+PX825hC6xhEMw/novD7lW1q/HHhHtT2CPkDhfIeSWV61zrxENewGHtrz9yypvk8tGhibE5ruAPSSeR1vExZc8fOYno3yjpBPr2Latl5kxKYmK51rJSwabBgPhQfM2RwneW0/cCA5PG3RnnzUn3lk7PzRZ+84Zv2LELSZ5phXxLYL3J96g6T3Gt3UaxDmatxu6TCrstl2xAJIPD3OaPREeuCQt/2RipDc8V8kHzFMzQtpSHQDaxKdq/KSKVbx06ChOowLDXhO/xsDviC3gsGKEE8wpKBpGunc0PuXZxPFNuqAQP520yYsj19GM1lD8CMXbiPCvNqSmPsFR5jfgm+uPoOcnVWgm2JeAFc8s8ZvrPOnNIkRXwwnt5VXc2wRNcbTCNcAOhye8gyNPJrMZbuJkNA8f0zf9054MtxlviWbTwTebzcsDcEDI1aTBdfGGaiur16CBcTvRkPhO4rqx15Jyls7N0Ly9noefKvIe2htomBvIErebG8sNS4OTIlY7C2/MdhGvwSL2PriHxGmWcK5rYRGHXZTTleWtOVw3sYeW5oLPJg/v2G14U7d05TcO3XiujNuL83fpuiWo0x5NmpUzmME9J2Y/vcjk+eBo15f09OBGIxfjbaDNnhxMPoenHpM+Ge/E0zwbEher19Xyft0lnbcdIDdh2UfYlDRSX+ET8XZ5zRVCsKALB99QyYcW7V9dvhlbmCo+0u44r67mBKDsMuk9y0938OAbPQ2A/P4WzxdtYo8h3RKWxx/po2s2BfjiTc2rm9NdGLnHhRPAOFrBROAZjoEQLsVnvLTWVIoJSzdsS82HxcSLC7hLx8JhEDYQtlUUf/p6Cb+Swvmp54PnPrCHxk+5sEvGO0guY+8sXXuTJmwSw+a3CpktoV0RKLeaZ7O4PNjhyuhNNKRmPcA4T4qRTJM1JgHFvLximietcQ+pdL9wxkUgRk+5TWvD9sB/GflcTi8kt48hGQNrxYl8Nkd0tcYRHA+ZmvmRA9jx6zipZ3CvDq8B/XhnynQSnb6Iz6bf5JT+DJJc+YwHD08x0h8vzkUfya3x2E6XDTR48qPv/hhMem5YneVz9r1wZrvP4IR6JSzvfbUw2Vq99RM/RfEx+wW8IfGuHT6aY38UkFaBEAkby3q7tHtI4ylwvmNsQxCC7WoJ4X4BB57TyRFascjkiCUzLKdAY0qHAWkhANmM0oAShyBNibVrSfZQYj7TF8fJZvvYGjateOlQMKmx4LBkS0Oujc0Fpbn51x5wCkZGNluUh4ka49USw6Im+gugplzR9HDYw0+tUrMYb6OiWNomButtvkvG9ZkJk5TaG7h0bTr6O/WTNuhkmJM5515gu0otdixzLpgkV8wz3nACmpfraNMBtPGglsFow0HKs2ocbHKa0a6p4ZsVJ8M99cRaSxvXrFqZ9JRaYY3l1jPxnI5WVmf5rQiOyzUkOtvMO7cJURN5+wgvxU26ixcvfo2P0XGiYdaBPZxO126LyVw2AdMGJdeMv7qHMtHKSkR+WVsWW1zemppmK7EONoXM6Bsr4z5OwWSztta8LikYIRjYdUI+EOdDUj3cGScy2Aoy/WpOI1vWUay9ibHW2pWXNs/rKHuMYXJ4O8UUiWJ01m7o1Ibuu4BcDOE2Du75hc9066gZqBnY8Qy0tRbWYWZy2WbUCbb1HNkVY0z/KYhCbGHFYFtmU5xdpOcnjGtDmkhHFWoGdiwDmVpTjfs6FT50PYP8hjakoYvx9tHihCX6zTff/NI7VblmoGZg/hkwtTZRg24m6Ry8M6JvSKXJSzqtjjb2QTznZ3Hxm1988cWHClZpzUDNwM5loK21ce2ZmYQZKLHCSe3D23lZfh6nPKHzDSlyiLCJIG1Qj9FPmKjFxEuX6GeffVYbEjNTR83ADmfA1JqtQfGcPeItphUS87iXZVukszYkBY0WIp2n1tbytNPiN99+++1feMcq1wzUDMw/A22tjWvPzGDr0/LGJGSH2IYB+AG1PqSWgZXFR9Ri5PVgHDY6yRG1+gn+2LFjS+jc/7W0hK+E11EzUDOwIxnAR/5fnjx58jdx2MYrankplppJjpfeUtpyWIw8hzDxEbUY+c6P/ZPRDE9ajKU2jBZNTDaJR4Iuffnll/9hjStfM1AzMN8MsMZYa4iqWrR1yMmEa2LpLZVubnQ7h2x2wX0W6W0ka2MUb/Pjjz/+d4GV1gzUDMw/A6ixs4g6rjkzg61L8bIzZmM2sinZjx0jZmhDiiaKsGgui1kfz28+88wzP8Vl7dodtH6VrxmoGdhmBlhbqLGfIQxrz9efoltcWBeNfCIsG0fnd7wBcQ5RywuzvuJFZS/Z0olzRu0c0o912J38yZEjR36bgeqoGagZmF8Gvvrqq3/DudofIyKbBR86dItkr5MNKYeVPSa9pZaXPbE0uvaQphzkWKBdPtTLRvyU/M477/xLYY6qqhmoGZgxA21tZWuvDSt9aRbVbcnG64o+2jPxTsQ1xIsSt37ChQ2l472iNm6Sb7/99nV8LHkWX7S9TguptGagZmB7GdjY2PifO++888y7777L30Vnc/B7QF5WY+pDuTg1HNkT47B4g2xhkrf1KZsmGAdzjBZUonSx+rHMhH3wwQd/52JWsWagZmAbGWBNmWakGg5rENNY3POlVShuySbU5Q7ZooARFgXVwiOdx7zthPzII4/8BNdL/K93qnLNQM3A8AywllhTxnOi3oB72ZhOsUNtfQD6T41cQ7KGoaMxkL5rgdKLmhDjREzEevPNN8+99957f2sNK18zUDMwWwZYS6wpeNsaFK/aU3CLe51sSGUn3uo8X4qTbHW+xztS1rkhy+cw4YonKl/JJerPJdF28dSpU8sfffTRz9bX129jsDpqBmoGhmfgu+++e+/mm2/+nU8//RT3/p06b8RGMeTcERegRiRqMfGkHGpEohZLBnpiE7BGwnO0jy1t9PBxhItST55D2ARlAl955ZU/a/XJsD7VDNQMDMrAJmuobUYT9YUokhmQPIcw0QbdehYu+y3NNNfHRl66K/3E3pCUpNxL0RAvSpy8ZEuF5zCrj/ipvSVcWfqXN9544x9w0jpqBmoG+mfgk08++eIpPj8AAA0rSURBVIfTp0//BTxsIyE/ZK9IvpxYvKgwUeIa4kWJW152Ce9zDsk6RHw2OIwjHbHcQ/G9fnT//ff/FW4o9XMZVFozUDPQnQHWDGuntZyqqwxu7fwk0nmcMnXbGv629D6Y9nCIR7wwT2VPXDpiHMIi2lhMPy98/vnnl1ZXV8/ee++9P1pcXOQPnNVRM1AzUMgAPlX76qmnnnr4pZde+hxmaiQRLUSZ8LN2ikMs14hyuI0zwatZiE4oW8HqxIvSRDxpiZfe21jc81OHbi+//PKZBx988J9m/amkdpsqqRnY1xngTxy9+uqrv/fQQw/pS7RqIKR9D9WYI+sn3uIRT4yD9hyink9K89R5Dom2aiCWL2HS+eYi/xyuw0fqpxpRu47k+8Ybbzx45syZv0FTkg9j11EzUDOADPDLs2fPnv2T++6771WKhYcaE/Nm+ciHNh4XFtEujHo/xg2JChZ7NCxe4qWz1PORTGzw46233noYl8D/dW1K0UtWsas1A2xG+MrVn951113/jBz4BjKLzFRaPyuLF6WdRh9etqTJvs8eRi6wDTYOqMAttb7WhjwH9TM9mHD+FeCuaYpUn2oGrvIMsBZYE3NoRjaTUQ0L89T6iZcNZctLP0H7NKQJByPY4JY3JomlTg8C4r2PxXvx3CXlcTJP3qWZ6lPNwFWaAdYAa6HHYVqutmzmrA1xL1tb8bTRsLywXlSfsslYh1SSRT0uWZR24iNKzOLiFT/yt7os/8ILL/wS99/+17vvvvu3VlZWTmUNq6JmYJ9m4Ntvv/35k08++fBjjz3Gy2Js8+jimRE1D2+rbEnvZeGi0lta0oV2vjF42TpZXRdPvWws9XhO7sKlH9Nbb7119fXXX/9zXDz5+2Zuu/7K1wzstwxs4qLHf+R1Ru+///55bBwbQJ8H8xDZeTwnW1w8KQfjauR46UXHdrMeso0DKGJAZSNKE/KSxUeydNZHWEj5gvBq1BdffPFH/N4OHeuoGdivGeB7nO91vucvQzNSGm2tCstR2eb0Ic49DDu8bHXkrb6Ll97SEu91lPXQ3JI9ndDzC7mvvfbaH952221/jMO5a6iso2ZgP2SAtxDht/YfeOCBvw++m8ZNDP9gt3hO73ErR7wwS/vytPNj3LxY2H5EmGy8TrIo7cSXqNV5PpJzGPGcbnTPPfccfv755398yy23/FG986Rewkr3YgZ4p0feXI33M2pvIcLN8M0nwmQT6Txm5YgXFtEcZnHyfoybERUqZmsUYTm9tY14YREl1geXnbUtYVzrhJ63w33uued+eMcdd/zu4cOHz9Rrl+zLWfndmgFeU3Tu3LmzvAf2o48++tP2To9crpqMirkkRzYRpriiiim5RK2uxFPnh9aScBW5NYqwkt7aR7wwS2fh6eP9hsjchgV8EvErjz/++A9x7H3m6NGjd9dfyLUvbeWvdAZwSIbfcPzyP/m7afw5sGefffa/sSYVraW+YfSVfQxucuQb4cIsLfFeR9kPrSfhKmhvlMNlZ/VdvPSijEFe8qy89++SNa/oAn4KZvHpp5++A1d8/wZ+VvgHkH9w8ODBm/Dl3cN8oFkdqt+ZY7rqmFcGePEims7Xly5dOscHvo3/S/zk14f4+fgPcYX1L5544ol3zC/Kqlgt9fxQmZtCH+9XwqWLqMVKPHV+aA1jXEU8Blomh8vO660c8cJK1Ooszzkp62Fly1ufPrx8I5rDLE6eQ3M10tZzDt+yqNxezsBUMbUb4/GcbHHxJWp1Jb6vjsulbc5e+hK1Os9HMjE7NPcYKxVNSccAXm/liBdWopHOYp63stZELIfLZgilLYdiej4pzZO1M3AnO6tfZ+Bq0CsDU8XRy2uroCNzG9PytJU8hEa2xPrg1sbyWkuESRdRi3k+konZofksNlFkEwoIXQXi9Va2PONK7kMjG4tZXrEtluO9reSIdmHUa2g+yZaWdNau8nsrA2ExtZsQ6SwmXpRu4j2VzuOULZbjI39rG+mFlSh1HIrl+UgmZof1HeNdBTNUb+27eOkj2hfjhtC2yz7Sy5eUI2fTaLf0OdnGkE2lV0cGouLyWE4WLsqMiY+oxSwvvwgr6Ur28iPlkG2J9zrKftg4EzoV4QRohC49Tb2Nlbt46SMqTHNIttTyJTvp+lBrU+Kp09A6JHvapff2Vd6dGcgWUrvcnN7iXbz0Q2hkW8K4XOojG+ks7ct7O8rR0LxTuj6F0mXj9SXZ6sTPQvv4yIYbTV6yp9Jb6vk+cmRDrI79n4GowDxWkqUTZcbEWypeesklWtIpTolanef7yLSxQ+ux2JhXcY6BgJnFxvpYnuGtLH4nqWLbuYV5qs3vwmUnKnvJnnbpvX2Vd2cGisWEJef0Hpcsqq2VnKO0oy6nnzeu+Ug1NAdly0eyfCz1PlY30RwmFE7oU1DexsqWZ2grixe1emGk4r0+h3s7K1te/qJWR57D6iI5GQV2wivd3xnIFZnHS7J0njJzHsvJsvX6HC476S31vJetr9dRjob3mbLxhTZl0AKz2lk/yzOslcWLWr2wvrSPr7XJ8ZqPeg4vN2ge76uXXaV7IwNdRZXTe1yyKLe+i5feU+vrdV1y5Gsx8hyK4/lIJhYNGyPSZ4ssMs4VpLWNbCxmefpZWbyo1QsTLelKNpGfxchzRDEazaSuhElX6dWTgajgPGZlyzNLVhYvavUlTDrRyK+ks/bkOSL7RtM8W73FLd/HZqLwrHPE2yKN9MIiO4tZnj5W7uKl99TGKemsXV+edhyK20jTsnBRby+80v2Rga4C83ovMwsWm5WXn6iNK8xTa1Piu3ReTzk3tIacPuFDi6avfWRnMctrgcJEiXfx0otanwizes972fp7HWU7vK3V5fhZfHKxKj7/DPQqIDdtycfrrGx5hrRyFx/phYn2iWlttVkWs3ykFxbRyDeymyj40CAA+xZSZOexkmx1Ed8X4yZEtiVcm239SpiPJdtKr54M5Iouwrswqx/CR7YRxlclh3tdJOcw4n7YebxuSo4KbsooAPr6RXYeK8lWZ3kuSbJoDrN4ife6SCamYecVZmmX3tpWfu9loKvQSnqvK8lWZ3lmTLJoDrN4ife6SM5hxP2w6/K6UJ61aIb4RbYe8zIXa7Ecb+1yNha39p6P5CEYbfsMv54+PtXmymVgcFGZpUa+fTBrY3mGtnLEW6yPvVnuRGzvKzsfX3hEh9gmf/8zSFHQHDaksCLbPpi3sbLlc2v0+FCfnD0TPTjZ8MnF8+us8u7KwNDXuuv94eMNka1tjmf2+uq8rTJv/UuYdJ5G/t5mSt5ugQzxz9l63MtctMUs73VeLtl6nfelzBHZlfDkVJ+u+gzkCjLCuzCvt7LlmfSS7HVd9vZFjHyt3vJDbK1fttgmjDqEXMHm3CL7WTDvM2/Zrt/H7quzdjm+FDvnU/Gdy8DMxdQuqeQ/ROdttyN7Xy51O1gp+1Hckv2Ebl7FMDROzt7jXtbiPW5ly/exz9kQj2LJ3tK+dtan8vsvA32LMbLrg3XZeL2XlXGPezlnJzxHc3Fy9lP4ds4h+WBDizJnH+ERxvk93iX7NUv2fsJLdBafUryq218ZKBVnTudxLytDHu+Sc37EvW/JVrqI5uJEtllsng2Jk8xSpDmfCI+w3Lze1svZpFwBxW5e2xVIxxWbci5F1a6+FCuny+EM6XVejmzapUz5DrVVnByN1pKzLeLzbkicbJbiKvlEugjThka6vphizLod1n8IP7cXdMik1XYiA/N+DbrizaKPfCJMGxbpIqxkL12OluLlfLJ4VKhZ4wGKWeOW/CJdhNllRvoIo08Ot/HED7GVT0TnFSeKXbHZMzCvIhsSJ2cb4RFmtzbSR5h8SjrZRHRWvyhWwna6IGaNX/LL6XK4Nj6nz+FdftIPoV1zDYlVbS9fBuZZeF2xcvocrizk9DmcfiWd4kZ0Vr8o1gR2OQpkO3OUfGfVKQHb9e8TRzaVXj0ZGFKsJduSTtks2cyqU+wcLcXN+fTGS0XZO0gPw+3O0+Vf0pd0ful9bfva+fhVvroy0Ld4+9oxeyXbkq7Lt88r0xW/T4yizeUurO3O18e/y6ZLHyVsFp8ojsV2IqaNX/ntZWAnim+WmF0+XXpmoY9NKVvb9S/FntBdqaKYx7x9YvSxYUL62k0kLxDmFScIXaFdnIF5FWzfOH3s+th0pXQeMbrmmNBfyQKa59x9Y/W1U5KG2suv0pqBUgaGFnpf+752pbVJN89YitlJd0vBzXMdQ2MNtfdJ3a6/j1flvZ2B7RbyUP+h9qXszjNWaZ6sbrcV006sZzsxt+ObTXpVXPUZ2E7hb8c3l/idiJmbq4jv1oLb6XXNO/684xVftKrctRmYd2HPO55P3E7H9/N1ynuhkC7nGi/nXJ0vTjW4ajJwORvD5Zxr8Au41wpwN6x3N6xh8AtdHa5YBnZDA9gNa+j1Auz14trr6+/1IlWjmoGBGdgzDchv134s6P24Tf51q3LNgDKwZ5uPNsDS/wfOkf6Vp0E+LAAAAABJRU5ErkJggg==;" vertex="1" parent="1">
          <mxGeometry x="-145" y="-587" width="67" height="65.62" as="geometry" />
        </mxCell>
        <mxCell id="y8ol8J6fjDSW4kQSu5Xz-22" value="clickhouse database" style="text;html=1;strokeColor=none;fillColor=none;align=center;verticalAlign=middle;whiteSpace=wrap;rounded=0;fontSize=16;" vertex="1" parent="1">
          <mxGeometry x="-189" y="-518" width="188" height="30" as="geometry" />
        </mxCell>
        <mxCell id="y8ol8J6fjDSW4kQSu5Xz-23" value="presistence" style="text;html=1;strokeColor=none;fillColor=none;align=center;verticalAlign=middle;whiteSpace=wrap;rounded=0;fontSize=16;" vertex="1" parent="1">
          <mxGeometry x="-308" y="-584" width="60" height="30" as="geometry" />
        </mxCell>
      </root>
    </mxGraphModel>
  </diagram>
</mxfile>
